<svg xmlns="http://www.w3.org/2000/svg" width="44" height="48" fill="none" xmlns:v="https://vecta.io/nano"><path d="M32.13 11.974l-4.762-1.956c-3.175-1.304-5.869-1.203-8.083.302s-4.155 3.203-5.822 5.093-2.881 4.173-3.643 6.847-.556 5.009.618 7.003 3.216 4.167 6.128 6.517 5.391 3.399 7.438 3.148 4.119-1.122 6.217-2.611 3.311-3.54 3.638-6.153-.554-4.542-2.645-5.789-4.257-1.596-6.499-1.047-4.023 2.063-5.345 4.541-1.332 2.721-.031.729 1.643-4.059 1.026-6.199-.614-2.232.008-.277 1.745 2.36 3.366 1.212 1.396-1.761-.676-1.838-2.812-1.046-2.221-2.907 1.446-1.714 2.564.439 1.436 2.279.954.375-1.285-1.936-2.408-.1-.089 3.001 3.106 3.494 4.439-.364 3.733-2.571-2.072-4.128-4.101-5.763-3.393-1.456-4.096.537-.487 3.846.645 5.56 1.476 3.637 1.031 5.769-.864 3.085-1.258 2.86-.459-.534-.195-.929a5.84 5.84 0 0 1 .921-1.072c.35-.32.734-.594 1.151-.821a5.84 5.84 0 0 1 2.714-.714c.474-.007.943.042 1.406.148a5.84 5.84 0 0 1 1.329.481c.424.214.815.475 1.175.785a5.84 5.84 0 0 1 1.63 2.284c.175.441.295.897.36 1.367a5.84 5.84 0 0 1-.295 2.79c-.161.446-1.223 1.218-3.185 2.314s-4.879.961-8.751-.404-5.876-2.371-6.013-3.014-.167-1.293-.091-1.947.255-1.278.536-1.874.65-1.13 1.106-1.605a5.98 5.98 0 0 1 3.412-1.776 5.98 5.98 0 0 1 1.949.015c.649.111 1.263.324 1.842.636s1.093.71 1.542 1.191.809 1.022 1.081 1.621a5.98 5.98 0 0 1 .507 1.882c.066.655.026 1.303-.12 1.945a5.98 5.98 0 0 1-.735 1.805c-.344.561-.768 1.053-1.273 1.475a5.98 5.98 0 0 1-1.677.992c-.613.239-1.249.374-1.906.404s-1.303-.045-1.936-.226-1.22-.458-1.762-.832-1.01-.824-1.404-1.351-.694-1.103-.899-1.729-.305-1.267-.3-1.925.115-1.298.33-1.921.524-1.194.926-1.715.877-.964 1.425-1.329a5.98 5.98 0 0 1 3.714-1 5.98 5.98 0 0 1 1.9.434c.61.248 1.163.588 1.662 1.018s.915.928 1.25 1.495l.502.849a1082.23 1082.23 0 0 0-2.207-.043c-1.471-.028-2.075-.239-1.812-.634a5.84 5.84 0 0 1 .92-1.072c.35-.32.734-.594 1.15-.821s.854-.401 1.313-.522a5.84 5.84 0 0 1 2.806-.044 5.84 5.84 0 0 1 2.505 1.265 5.84 5.84 0 0 1 1.63 2.284 5.84 5.84 0 0 1 .36 1.367c.065.47.072.941.022 1.413s-.155.931-.317 1.377-.688 1.252-1.58 2.418-2.288 2.407-4.188 3.724-4.28 1.686-7.139 1.107-4.959-2.256-6.3-5.032-1.833-5.151-1.475-7.125 1.18-4.089 2.468-6.345 3.602-3.724 6.944-4.404 6.433-.304 9.273 1.127 4.62 3.236 5.337 5.413.616 4.309-.305 6.393-2.32 3.667-4.199 4.748-4.132 1.568-6.757 1.46-5.346-1.32-8.164-3.635-4.53-5.359-5.137-9.129-.235-6.949 1.114-9.536 3.052-4.291 5.11-5.111 4.288-.899 6.69-.238 4.384 1.947 5.945 3.855 2.455 3.777 2.682 5.607.109 3.903-.355 6.218-1.731 4.244-3.802 5.785-4.298 2.151-6.68 1.83-4.404-1.236-6.064-2.743-2.973-3.306-3.939-5.396-1.447-4.244-1.443-6.462.448-4.489 1.333-6.812 2.059-4.186 3.52-5.589 3.513-2.345 6.152-2.824 5.376-.086 8.209 1.179 5.01 2.931 6.532 4.996 2.97 4.793 4.345 8.183 1.556 6.4.545 9.03-2.532 4.627-4.562 5.99-4.928 2.33-8.695 2.899-6.859.299-9.277-.811-4.421-2.858-6.008-5.245-2.387-4.823-2.401-7.307.511-4.982 1.576-7.494 2.35-4.485 3.856-5.919 3.437-2.468 5.794-3.103 4.653-.548 6.888.258 4.075 2.009 5.522 3.607 2.517 3.609 3.208 6.034.684 4.886-.024 7.385-1.765 4.5-3.172 6.006-3.228 2.651-5.462 3.438-4.949.072-8.147-2.143-4.933-4.386-5.208-6.513-.193-4.09.243-5.888 1.148-3.646 2.132-5.545 2.268-3.502 3.852-4.81 3.42-1.999 5.509-2.074 3.918.578 5.486 1.956 2.46 3.001 2.677 4.868-.024 3.899-.722 6.097-2.098 4.893-4.202 8.088-4.389 4.854-6.857 4.981-4.515-.842-6.145-2.908-2.22-4.781-1.772-8.146 1.435-6.01 2.962-7.933 3.813-3.134 6.858-3.632 5.597-.092 7.654 1.218 3.678 2.911 4.863 4.805 1.943 4.034 2.275 6.421.259 4.66-.22 6.819-1.443 3.993-2.891 5.499-4.22 2.305-8.317 2.397-7.005-.463-8.726-1.666-3.15-2.869-4.287-5.001-1.644-4.441-1.521-6.928 1.3-5.036 3.529-7.648 4.659-4.123 7.29-4.533 5.283.182 7.958 1.779 4.376 3.375 5.106 5.337.98 4.087.752 6.375-1.155 4.692-2.782 7.211-3.664 4.246-6.113 5.18-4.624 1.258-6.526.97-3.966-1.007-6.191-2.159-3.978-2.77-5.258-4.854-1.997-4.182-2.152-6.295.158-4.113.939-6.001 1.942-3.544 3.483-4.967 3.469-2.367 5.782-2.832 4.621-.096 6.925 1.106 4.039 2.837 5.205 4.906 1.863 4.148 2.091 6.238-.378 4.951-1.818 8.581-3.957 6.322-7.552 8.075-6.417 2.425-8.468 2.016-3.84-1.564-5.367-3.463-2.185-4.142-1.974-6.726 1.177-5.191 2.897-7.82 4.172-4.84 7.357-6.632 6.007-2.763 8.467-2.913 5.154.198 8.081 1.042 5.067 2.14 6.42 3.889 2.228 3.592 2.625 5.53.486 4.623.267 8.057-.915 5.928-2.086 7.485-2.571 2.971-4.2 4.244-3.651 2.335-6.065 3.187-5.39 1.267-8.928 1.246-6.764-.91-9.677-2.665-5.436-4.364-7.567-7.826-3.48-6.28-4.048-8.454-.587-4.377-.06-6.608 1.341-4.293 2.441-6.186S6.19 11.725 8.468 9.31s5.266-4.562 8.963-6.442 7.54-2.398 11.531-1.552 6.166 1.347 6.527 1.505.698.357 1.01.596a4.85 4.85 0 0 1 .838.821c.246.307.452.64.617.997a4.85 4.85 0 0 1 .444 2.286c-.02.393-.086.779-.199 1.156a4.85 4.85 0 0 1-1.184 2.006c-.276.281-.581.526-.916.733a4.84 4.84 0 0 1-1.065.493c-.375.121-.759.196-1.151.224a4.85 4.85 0 0 1-1.172-.058l-.582-.1h0z" fill="#f5f2f2"/></svg>