<svg xmlns="http://www.w3.org/2000/svg" width="23" height="24" fill="none" xmlns:v="https://vecta.io/nano"><path d="M17.39 16.685l-3.235.473-3.915.503a5.59 5.59 0 0 1-1.348-.103c-.445-.089-.873-.23-1.284-.423a5.58 5.58 0 0 1-1.145-.718c-.353-.286-.666-.609-.94-.971s-.501-.751-.68-1.168-.307-.849-.381-1.297-.095-.898-.06-1.35.123-.894.265-1.325.333-.839.575-1.223.525-.735.851-1.05.685-.588 1.077-.816.806-.407 1.241-.535 1.805.586 4.108 2.142 4.032 2.597 5.188 3.124 1.83 1.008 2.023 1.442a5.85 5.85 0 0 1 .493 2.768c-.031.475-.118.938-.262 1.392s-.34.883-.588 1.289-.541.776-.879 1.11a5.85 5.85 0 0 1-1.119.868 5.86 5.86 0 0 1-1.294.575c-.455.139-.919.222-1.394.248a5.85 5.85 0 0 1-2.763-.52 5.85 5.85 0 0 1-2.205-1.745c-.291-.376-.32-1.834-.084-4.374s1.258-3.602 3.069-3.187 1.77.429-.122.04-2.234.205-1.026 1.783 2.043 1.869 2.502.874.749-1.14.87-.435.125 1.411.014 2.118-.332 1.377-.663 2.012-.754 1.199-1.271 1.695-1.098.896-1.745 1.2-1.326.498-2.037.58a6.5 6.5 0 0 1-2.116-.101 6.5 6.5 0 0 1-1.973-.771 6.5 6.5 0 0 1-1.623-1.36c-.467-.542-.835-1.145-1.104-1.808s-.426-1.351-.469-2.065.028-1.417.215-2.107.479-1.333.877-1.928A6.5 6.5 0 0 1 4.48 9.993c.567-.437 1.188-.772 1.865-1.004s1.372-.352 2.088-.356a6.5 6.5 0 0 1 2.092.329c.68.224 1.305.551 1.878.98a6.5 6.5 0 0 1 2.368 3.445c.196.688.277 1.389.243 2.104s-.181 1.405-.442 2.071a6.5 6.5 0 0 1-1.08 1.822c-.46.548-.995 1.009-1.605 1.382a6.5 6.5 0 0 1-1.962.797c-.698.158-1.402.201-2.114.128a6.5 6.5 0 0 1-2.044-.553 6.5 6.5 0 0 1-1.761-1.177 6.5 6.5 0 0 1-1.293-1.678l-.508-.944c0 .001.335-1.794 1.006-5.385s1.958-5.971 3.864-7.141 4.055-1.543 6.446-1.121 4.36 1.89 5.905 4.404 1.815 5.15.809 7.91-2.458 4.671-4.358 5.732-3.966 1.497-6.201 1.307-4.262-1.049-6.083-2.577-2.919-3.19-3.294-4.985-.288-3.736.259-5.822 1.651-4.046 3.314-5.877S7.818.848 10.722.472s5.211.031 6.921 1.219 2.974 2.847 3.792 4.977.696 4.706-.366 7.729-2.513 5.027-4.354 6.012-3.752 1.444-5.733 1.376-3.874-.637-5.68-1.708-3.144-3.519-4.017-7.345-.145-6.708 2.183-8.645 4.907-2.542 7.738-1.814 4.839 2.054 6.023 3.977 1.704 4.211 1.561 6.864-1.072 4.72-2.786 6.202-4.036 1.695-6.967.638-4.561-3.117-4.889-6.182.501-5.805 2.49-8.219 4.582-3.005 7.78-1.772 4.835 3.034 4.91 5.403.209 3.771.402 4.206a5.86 5.86 0 0 1 .415 1.354 5.85 5.85 0 0 1 .079 1.414c-.031.474-.118.938-.262 1.392s-.339.883-.587 1.289-.541.776-.879 1.111-.711.624-1.119.868a5.85 5.85 0 0 1-2.688.824 5.85 5.85 0 0 1-1.413-.092c-.467-.088-.917-.231-1.35-.428s-.835-.443-1.208-.738-.705-.631-.996-1.006-.164-.76.382-1.154.592-.58.139-.56-.903-.014-1.348-.103a5.59 5.59 0 0 1-1.284-.423c-.411-.193-.793-.432-1.145-.718s-.666-.609-.94-.971-.501-.751-.681-1.168-.307-.849-.381-1.297-.095-.898-.06-1.35.123-.894.265-1.325.333-.839.574-1.223.525-.735.851-1.05.685-.588 1.077-.816.806-.407 1.241-.535 1.724-.393 3.867-.794l3.909-.632c.464-.021.923.015 1.379.106s.893.235 1.313.433.811.442 1.172.734a5.71 5.71 0 0 1 .962.993c.28.37.513.768.696 1.195s.314.869.39 1.327a5.71 5.71 0 0 1-.21 2.737c-.145.441-.341.858-.588 1.252s-.537.752-.87 1.075-.701.601-1.102.835a5.71 5.71 0 0 1-1.27.547l-.668.196h0z" fill="#66e6ff"/></svg>