<svg xmlns="http://www.w3.org/2000/svg" width="27" height="22" fill="none" xmlns:v="https://vecta.io/nano"><path d="M19.74 17.868l-2.807-.667c-1.871-.445-2.913-1.667-3.127-3.667s.494-2.492 2.122-1.477 1.514.974-.343-.124-1.845-1.573.034-1.425 1.491.04-1.165-.324-3.718.066-3.188 1.289.513 2.056-.051 2.499a6.52 6.52 0 0 1-1.86 1.024c-.676.24-1.373.365-2.09.376a6.52 6.52 0 0 1-2.101-.311 6.52 6.52 0 0 1-1.891-.965 6.52 6.52 0 0 1-1.484-1.518 6.52 6.52 0 0 1-.922-1.913 6.52 6.52 0 0 1-.263-2.107 6.52 6.52 0 0 1 .424-2.081 6.52 6.52 0 0 1 1.066-1.836 6.52 6.52 0 0 1 1.597-1.4 6.52 6.52 0 0 1 1.96-.817 6.52 6.52 0 0 1 2.118-.148 6.52 6.52 0 0 1 2.055.536 6.52 6.52 0 0 1 1.776 1.164 6.52 6.52 0 0 1 1.311 1.67 6.52 6.52 0 0 1 .709 2.001 6.52 6.52 0 0 1 .033 2.123 6.52 6.52 0 0 1-.647 2.023 6.52 6.52 0 0 1-1.259 1.71 6.52 6.52 0 0 1-1.739 1.219 6.52 6.52 0 0 1-2.037.6 6.52 6.52 0 0 1-2.122-.082 6.52 6.52 0 0 1-1.985-.755 6.52 6.52 0 0 1-1.639-1.349 6.52 6.52 0 0 1-1.123-1.802 6.52 6.52 0 0 1-.488-2.066 6.52 6.52 0 0 1 .197-2.114 6.52 6.52 0 0 1 .862-1.941l.589-.899c0 0 2.061-.437 6.185-1.313s7.046-.236 8.766 1.918 2.465 4.507 2.232 7.06-1.733 4.653-4.5 6.301-5.352.718-7.757-2.789-3.16-6.316-2.265-8.427 2.217-3.846 3.967-5.206 4.681-.893 8.793 1.401 6.258 4.416 6.439 6.365-.307 3.887-1.463 5.812-3.195 3.148-6.117 3.67-5.329-.301-7.221-2.469-2.658-4.209-2.298-6.123 1.561-3.779 3.604-5.592 4.157-2.577 6.342-2.289 4.052 2.346 5.6 6.175.398 6.705-3.45 8.63-6.897 2.518-9.148 1.782-3.898-1.976-4.941-3.719-1.091-4.268-.143-7.574S7.171 2.6 8.896 1.869s4.267-.355 7.629 1.128 5.232 3.647 5.612 6.493-.345 5.228-2.176 7.146-4.015 2.824-6.554 2.718-4.642-1.09-6.309-2.956-2.407-4.293-2.221-7.283 2.248-4.689 6.186-5.097 6.6.391 7.985 2.399 1.618 4.786.699 8.336-3.514 5.313-7.784 5.29-6.995-1.097-8.175-3.223S2.142 12.422 2.39 10s.951-4.376 2.109-5.865S7.397 1.62 9.719 1.054s4.446-.241 6.369.975 3.407 3.385 4.452 6.507.368 6.082-2.034 8.879-4.678 4.016-6.831 3.654-3.89-1.274-5.212-2.737-.342-3.916 2.942-7.358 6.139-5.027 8.567-4.756l4.301.601c.439.129.857.309 1.252.54a5.63 5.63 0 0 1 1.087.824c.329.319.615.672.858 1.06a5.64 5.64 0 0 1 .847 2.572c.035.457.015.911-.061 1.362s-.204.888-.385 1.308-.41.813-.687 1.178a5.64 5.64 0 0 1-.949.98 5.63 5.63 0 0 1-1.155.724c-.415.195-.846.337-1.295.427a5.63 5.63 0 0 1-1.36.104l-.686-.03h0z" fill="#66e6ff"/></svg>