<svg xmlns="http://www.w3.org/2000/svg" width="37" height="36" fill="none" xmlns:v="https://vecta.io/nano"><path d="M27.953 17.386l-4.266-.702c-2.844-.468-5.596-.063-8.256 1.216s-3.104 2.735-1.332 4.37 3.709 2.233 5.811 1.795 3.629-1.792 4.581-4.062 1.18-4.413.684-6.427-1.767-2.681-3.815-2.001-3.64 1.79-4.775 3.329-1.672 3.239-1.611 5.101 1.101 2.808 3.119 2.839 3.582-1.214 4.69-3.735.836-3.264-.816-2.228-2.386 1.912-2.202 2.63-.041 1.237-.675 1.558-1.302.532-2.006.633-1.404.088-2.103-.041a6.46 6.46 0 0 1-3.629-2.015 6.46 6.46 0 0 1-1.67-3.801c-.063-.708-.012-1.407.154-2.098a6.46 6.46 0 0 1 .816-1.939c.378-.602.842-1.127 1.393-1.576s1.158-.799 1.823-1.049a6.46 6.46 0 0 1 4.149-.144 6.46 6.46 0 0 1 3.39 2.396 6.46 6.46 0 0 1 1.249 3.959 6.46 6.46 0 0 1-1.402 3.907c-.441.557-.959 1.029-1.555 1.416a6.46 6.46 0 0 1-4.021 1.033 6.46 6.46 0 0 1-2.045-.492c-.655-.276-1.248-.649-1.781-1.119s-.976-1.014-1.33-1.629-.601-1.272-.74-1.969a6.46 6.46 0 0 1-.073-2.102c.091-.705.291-1.376.602-2.015s.716-1.211 1.214-1.717l.747-.759c0 0 .698-.462 2.094-1.386s3.712-1.376 6.945-1.356 5.716.661 7.448 1.922 3.01 3.14 3.832 5.636.119 5.388-2.109 8.676-4.496 5.286-6.803 5.995-4.579.713-6.814.014-4.024-1.939-5.365-3.717-1.998-3.772-1.968-5.981.545-4.139 1.547-5.79 2.386-3.082 4.15-4.294 3.756-1.8 5.974-1.765 4.387.856 6.504 2.463 3.336 4.23 3.656 7.869-.069 6.325-1.163 8.057-2.466 3.043-4.113 3.933-3.523 1.377-5.628 1.463-4.092-.447-5.962-1.597-3.236-2.562-4.097-4.235-1.392-3.535-1.592-5.586.141-4.204 1.024-6.46 2.556-4.204 5.017-5.844 4.867-2.584 7.217-2.834 4.734.339 7.153 1.767 4.06 3.183 4.926 5.266 1.169 4.167.91 6.253-.962 4.455-2.11 7.106-2.686 4.676-4.614 6.074-4.145 2.45-6.649 3.155-4.674.845-6.51.42-3.603-1.231-5.3-2.419-3.11-2.829-4.24-4.921-1.782-4.198-1.957-6.318.038-4.318.639-6.593 1.592-4.406 2.972-6.392 3.805-3.802 7.275-5.446S20.797.615 22.86.616s4.183.586 6.361 1.753a11.85 11.85 0 0 1 4.986 4.998c1.146 2.164 1.783 4.607 1.909 7.327s-.318 5.797-1.333 9.23-2.437 5.875-4.269 7.327-3.866 2.583-6.104 3.393-4.361 1.16-6.368 1.048-4.043-.391-6.108-.838-3.929-1.254-5.592-2.419-3.049-2.76-4.159-4.784S.539 23.418.58 21.022s.741-4.441 2.101-6.137 3.272-3.479 5.737-5.35 5.119-2.958 7.961-3.262 5.707-.331 8.595-.082l4.97.532c.425.106.831.262 1.219.467a5.39 5.39 0 0 1 1.933 1.725 5.39 5.39 0 0 1 .602 1.158c.154.41.257.833.308 1.268s.05.87-.005 1.305a5.39 5.39 0 0 1-.927 2.419 5.39 5.39 0 0 1-1.945 1.711 5.39 5.39 0 0 1-1.222.458c-.426.103-.858.154-1.296.153l-.657-.002h0z" fill="#66e6ff"/></svg>