<svg width="441" height="440" viewBox="0 0 441 440" fill="none" xmlns="http://www.w3.org/2000/svg">
<path d="M221 439.8C177.516 439.855 134.992 427.011 98.81 402.894C62.626 378.773 34.412 344.464 17.732 304.308C1.05202 264.148 -3.33799 219.945 5.11101 177.288C13.5602 134.632 34.47 95.4401 65.201 64.6681C95.928 33.9021 135.092 12.9411 177.741 4.43806C220.386 -4.06584 264.596 0.270063 304.781 16.8991C344.961 33.5241 379.304 61.6961 403.469 97.8481C427.633 134 440.531 176.508 440.531 219.988C440.719 268.836 424.402 316.316 394.219 354.718C392.317 357.163 388.797 357.601 386.352 355.699C383.91 353.796 383.469 350.277 385.371 347.831C414.027 311.393 429.519 266.339 429.332 219.981C429.332 178.711 417.09 138.372 394.156 104.061C371.222 69.7523 338.629 43.0143 300.496 27.2373C262.363 11.4563 220.406 7.33933 179.936 15.4133C139.463 23.4836 102.295 43.3783 73.1364 72.5813C43.9764 101.78 24.1323 138.976 16.1133 179.461C8.09775 219.941 12.2657 261.895 28.0974 300.011C43.9294 338.12 70.7103 370.679 105.05 393.57C139.39 416.457 179.749 428.644 221.02 428.59C268.079 428.743 313.774 412.774 350.49 383.34C352.916 381.407 356.451 381.809 358.385 384.235C360.318 386.665 359.916 390.2 357.49 392.133C318.771 423.129 270.615 439.945 221.02 439.789L221 439.8Z" fill="white"/>
<path d="M221 356.08C184.875 356.111 150.215 341.795 124.645 316.275C99.075 290.755 84.684 256.127 84.641 220.002C84.5746 192.643 92.8558 165.92 108.383 143.393C109.215 142.151 110.508 141.288 111.981 141.002C113.45 140.721 114.973 141.034 116.207 141.881C117.442 142.729 118.289 144.034 118.555 145.506C118.821 146.979 118.485 148.499 117.625 149.721C103.402 170.397 95.8053 194.909 95.8403 220.002C95.8052 257.377 112.496 292.807 141.34 316.58C170.184 340.35 208.149 349.963 244.83 342.787C281.514 335.611 313.057 312.396 330.814 279.51C348.576 246.623 350.685 207.514 336.564 172.91C322.447 138.305 293.584 111.832 257.888 100.75C222.193 89.6721 183.411 95.1446 152.178 115.676C150.94 116.524 149.413 116.836 147.936 116.547C146.463 116.254 145.171 115.387 144.346 114.133C143.518 112.879 143.229 111.344 143.546 109.875C143.862 108.411 144.753 107.129 146.018 106.325C181.928 82.6955 226.893 77.4265 267.298 92.1095C307.7 106.794 338.79 139.704 351.15 180.876C363.513 222.048 355.693 266.642 330.06 301.146C304.423 335.654 263.994 356.021 221.01 356.08L221 356.08Z" fill="white"/>
<path d="M221 272.3C207.113 272.374 193.766 266.921 183.902 257.144C174.035 247.371 168.464 234.07 168.418 220.183C168.367 206.296 173.844 192.956 183.637 183.113C193.43 173.265 206.739 167.718 220.625 167.691C234.516 167.668 247.844 173.168 257.672 182.98C267.5 192.789 273.024 206.109 273.024 219.996C273.008 233.816 267.532 247.066 257.79 256.867C248.044 266.664 234.821 272.211 221.001 272.301L221 272.3ZM221 178.894V178.89C210.082 178.816 199.586 183.089 191.82 190.765C184.058 198.441 179.668 208.89 179.617 219.808C179.566 230.726 183.863 241.214 191.555 248.96C199.25 256.706 209.707 261.073 220.625 261.097C231.543 261.125 242.023 256.804 249.75 249.093C257.481 241.382 261.824 230.913 261.824 219.995C261.824 209.143 257.531 198.729 249.883 191.03C242.235 183.327 231.852 178.964 221 178.889V178.894Z" fill="white"/>
<path d="M128.15 157.17C119.845 157.186 111.873 153.897 105.99 148.033C100.111 142.17 96.7986 134.209 96.7908 125.904C96.7791 117.6 100.072 109.627 105.939 103.752C111.806 97.8735 119.771 94.5688 128.076 94.561C136.381 94.5571 144.349 97.854 150.224 103.725C156.095 109.596 159.396 117.561 159.396 125.866C159.396 134.159 156.107 142.112 150.248 147.983C144.388 153.85 136.443 157.155 128.15 157.171L128.15 157.17ZM128.15 105.764C122.814 105.748 117.693 107.854 113.912 111.62C110.131 115.381 107.998 120.495 107.99 125.831C107.978 131.163 110.092 136.284 113.857 140.061C117.627 143.838 122.74 145.967 128.076 145.971C133.413 145.975 138.529 143.857 142.303 140.088C146.077 136.318 148.198 131.201 148.198 125.865C148.198 120.545 146.088 115.439 142.331 111.67C138.573 107.9 133.471 105.775 128.151 105.764L128.15 105.764Z" fill="white"/>
<path d="M372.2 401.33C363.899 401.33 355.934 398.033 350.067 392.162C344.196 386.291 340.895 378.33 340.895 370.025C340.895 361.724 344.196 353.759 350.067 347.892C355.934 342.021 363.899 338.72 372.2 338.72C380.505 338.72 388.466 342.021 394.337 347.892C400.208 353.759 403.505 361.724 403.505 370.025C403.489 378.322 400.189 386.279 394.321 392.146C388.454 398.013 380.497 401.314 372.2 401.33L372.2 401.33ZM372.2 349.924C366.868 349.924 361.755 352.041 357.985 355.811C354.216 359.58 352.098 364.694 352.098 370.026C352.098 375.358 354.216 380.471 357.985 384.241C361.755 388.014 366.868 390.131 372.2 390.131C377.532 390.131 382.645 388.014 386.415 384.241C390.188 380.471 392.306 375.358 392.306 370.026C392.306 364.694 390.188 359.581 386.415 355.811C382.646 352.041 377.532 349.924 372.2 349.924Z" fill="white"/>
<path d="M221 178.89C217.906 178.89 215.398 176.386 215.398 173.292V157.218C215.398 154.129 217.906 151.621 221 151.621C224.094 151.621 226.602 154.128 226.602 157.218V173.292C226.602 174.777 226.012 176.203 224.961 177.249C223.91 178.3 222.484 178.89 221 178.89L221 178.89Z" fill="white"/>
<path d="M221 288.71C217.906 288.71 215.398 286.202 215.398 283.112V267.096C215.398 264.003 217.906 261.495 221 261.495C224.094 261.495 226.602 264.003 226.602 267.096V283.112C226.602 284.597 226.012 286.023 224.961 287.069C223.91 288.12 222.484 288.71 221 288.71L221 288.71Z" fill="white"/>
<path d="M284 225.6H267.93C264.836 225.6 262.328 223.092 262.328 219.998C262.328 216.905 264.836 214.397 267.93 214.397H284C287.094 214.397 289.602 216.905 289.602 219.998C289.602 223.092 287.094 225.6 284 225.6Z" fill="white"/>
<path d="M174.18 225.6H158.11C155.016 225.6 152.508 223.092 152.508 219.998C152.508 216.905 155.016 214.397 158.11 214.397H174.18C177.274 214.397 179.782 216.905 179.782 219.998C179.782 223.092 177.274 225.6 174.18 225.6Z" fill="white"/>
<path d="M187.9 192.62C186.412 192.628 184.982 192.042 183.927 190.995L172.728 179.796H172.724C171.541 178.78 170.834 177.316 170.771 175.757C170.713 174.198 171.306 172.687 172.408 171.581C173.513 170.48 175.025 169.886 176.584 169.944C178.142 170.007 179.607 170.714 180.623 171.898L191.822 183.097V183.1C192.881 184.151 193.478 185.581 193.478 187.073C193.478 188.569 192.88 189.999 191.822 191.05C190.771 192.065 189.361 192.628 187.9 192.62V192.62Z" fill="white"/>
<path d="M265.8 270.4C264.304 270.396 262.87 269.791 261.823 268.72L250.624 257.521C248.722 255.299 248.847 251.986 250.917 249.92C252.984 247.849 256.296 247.724 258.519 249.627L269.718 260.826C271.327 262.42 271.816 264.826 270.96 266.923C270.101 269.021 268.066 270.392 265.8 270.4L265.8 270.4Z" fill="white"/>
<path d="M254.21 192.62C252.741 192.612 251.335 192.03 250.292 190.995C249.23 189.944 248.636 188.511 248.636 187.018C248.636 185.526 249.23 184.093 250.292 183.042L261.491 171.843C263.675 169.671 267.202 169.671 269.386 171.843C271.557 174.026 271.557 177.554 269.386 179.737L258.187 190.936V190.94C257.14 192.007 255.706 192.612 254.21 192.62L254.21 192.62Z" fill="white"/>
<path d="M176.54 270.4C175.063 270.381 173.653 269.775 172.622 268.72C170.45 266.537 170.45 263.009 172.622 260.826L183.821 249.627C186.001 247.432 189.548 247.416 191.743 249.6C193.942 251.779 193.954 255.326 191.774 257.521L180.575 268.72H180.571C179.513 269.802 178.056 270.412 176.54 270.4L176.54 270.4Z" fill="white"/>
</svg>
