<svg xmlns="http://www.w3.org/2000/svg" width="23" height="24" fill="none" xmlns:v="https://vecta.io/nano"><path d="M17.67 12.654l-2.635 1.95c-1.756 1.3-2.295 2.326-1.614 3.078s.907 1.329.679 1.732a5.69 5.69 0 0 1-1.878 1.987 5.69 5.69 0 0 1-1.239.6c-.437.15-.887.245-1.347.286s-.919.026-1.376-.044-.899-.195-1.326-.373a5.69 5.69 0 0 1-1.198-.679c-.372-.275-.705-.59-1.001-.946a5.69 5.69 0 0 1-1.192-2.461 5.69 5.69 0 0 1 .089-2.733c.125-.445.756-1.409 1.891-2.893s2.646-1.74 4.532-.772 2.013 2.062.383 3.279-2.073.46-1.329-2.271 2.099-4.408 4.065-5.028 3.204-.92 3.716-.897 1.013.106 1.504.25a6.3 6.3 0 0 1 2.616 1.523 6.3 6.3 0 0 1 1.609 2.565 6.3 6.3 0 0 1 .233 3.018 6.3 6.3 0 0 1-.43 1.463c-.202.47-.458.91-.767 1.318s-.663.773-1.06 1.096a6.3 6.3 0 0 1-1.292.81c-.463.218-.946.377-1.448.478s-2.158-.79-4.967-2.672-3.82-3.911-3.032-6.087 1.426-2.018 1.915.476 1.307 3.871 2.454 4.131 1.554.591 1.219.994-.712.76-1.133 1.071-.873.567-1.356.769-.984.342-1.501.422a6.44 6.44 0 0 1-3.083-.274c-.495-.17-.963-.396-1.403-.68s-.84-.615-1.2-.996-.668-.798-.926-1.254-.458-.935-.599-1.439-.221-1.018-.238-1.541.029-1.041.138-1.553.277-1.004.506-1.475 2.039-.491 5.432-.061 4.883.935 4.469 1.512-.908 1.074-1.484 1.489a6.45 6.45 0 0 1-1.882.937c-.678.21-1.373.305-2.082.287s-1.398-.149-2.065-.393-1.277-.588-1.832-1.032-1.023-.965-1.406-1.562-.661-1.241-.834-1.93-.23-1.387-.174-2.095.225-1.388.504-2.041.656-1.244 1.129-1.773S5.443 1.251 6.06.9 7.335.307 8.032.173 9.43.018 10.134.112s1.374.3 2.01.614 1.206.723 1.709 1.224.912 1.07 1.229 1.706.523 1.305.62 2.009a6.45 6.45 0 0 1-.054 2.101c-.133.698-.373 1.356-.722 1.974s-.787 1.165-1.315 1.64-1.118.853-1.77 1.135-1.332.451-2.039.51a6.45 6.45 0 0 1-2.095-.168c-.689-.17-1.333-.446-1.932-.828s-1.121-.849-1.567-1.402S3.417 9.466 3.171 8.8s-.379-1.354-.399-2.064.074-1.404.281-2.083l.311-1.018c0 .001 2.26.967 6.782 2.898s6.619 3.863 6.291 5.796-.658 3.1-.993 3.503a6.44 6.44 0 0 1-1.133 1.071c-.421.311-.873.567-1.356.769a6.44 6.44 0 0 1-3.059.472c-.521-.046-1.03-.154-1.525-.324a6.44 6.44 0 0 1-1.403-.68c-.44-.283-.84-.615-1.2-.996s-.668-.798-.927-1.254a6.44 6.44 0 0 1-.6-1.439c-.142-.504-.221-1.018-.238-1.541s.029-1.041.138-1.553.277-1.004.506-1.475a8.62 8.62 0 0 1 .65-1.149c.205-.295 1.767-1.168 4.686-2.621s5.593-1.395 8.021.174 3.128 4.084 2.097 7.549-3.296 5.174-6.797 5.128-6.379-.857-8.638-2.434-3.545-3.457-3.861-5.64 1.434-4.088 5.25-5.715 6.447-1.657 7.894-.09 2.426 2.362 2.937 2.385 1.013.106 1.504.25.958.345 1.401.603a6.3 6.3 0 0 1 2.176 2.105 6.3 6.3 0 0 1 .649 1.38c.16.486.26.985.3 1.495s.017 1.018-.067 1.523a6.3 6.3 0 0 1-1.196 2.781c-.309.408-.662.774-1.06 1.096a6.3 6.3 0 0 1-2.74 1.288 2.87 2.87 0 0 0-1.322.636c-.379.323-1.747.483-4.104.478s-4.905-1.183-7.644-3.536-3.961-4.756-3.665-7.209S3.45 5.657 7.225 5.612s6.368.695 7.779 2.221 2.334 3.362 2.769 5.51-.16 4.366-1.786 6.656-3.526 3.343-5.7 3.159-4.094-1.142-5.759-2.874-2.667-3.716-3.008-5.952.648-4.666 2.965-7.289 5.059-2.913 8.225-.87 4.247 4.659 3.241 7.85l-1.851 5.39a5.69 5.69 0 0 1-1.878 1.987 5.69 5.69 0 0 1-1.239.6c-.437.15-.886.245-1.347.286s-.919.026-1.376-.044a5.69 5.69 0 0 1-2.524-1.052 5.69 5.69 0 0 1-1.746-2.104c-.202-.416-.35-.851-.447-1.303a5.69 5.69 0 0 1 .088-2.733c.125-.445.155-.027.091 1.253s.134.278.594-3.007 1.604-5.711 3.43-7.277l3.328-2.714a5.69 5.69 0 0 1 2.601-.84 5.69 5.69 0 0 1 2.693.465 5.69 5.69 0 0 1 2.168 1.664 5.69 5.69 0 0 1 1.147 2.481 5.69 5.69 0 0 1-.137 2.729c-.133.443-.317.863-.552 1.261a5.69 5.69 0 0 1-.838 1.092l-.485.495h0z" fill="#d980ff"/></svg>