<svg xmlns="http://www.w3.org/2000/svg" width="48" height="50" fill="none" xmlns:v="https://vecta.io/nano"><path d="M37.033 18.081l-5.213-2.49c-3.475-1.66-6.527-2.43-9.157-2.307s-4.642 1.325-6.039 3.608-2.406 4.573-3.028 6.871-1.044 4.39-1.267 6.277.3 3.497 1.57 4.83 3.046 1.932 5.328 1.797 4.34-.473 6.174-1.014 3.143-2.028 3.926-4.461 1.148-4.644 1.092-6.634-.602-3.805-1.641-5.444-2.565-3.53-4.58-5.673-3.059-2.19-3.132-.14l-.46 7.417c-.233 2.895.194 3.447 1.281 1.655s1.293-1.725.618.202-1.104 1.927-1.288 0 .018-1.792.603.406.775 2.338.57.42-1.04-1.443-2.502 1.426-2.88 3.391-4.253 1.566-1.484-1.94-.337-.347 1.08 1.552-.203-.126-1.119-1.712.491-.102 1.388 2.553-.665 2.833-2.242.853-.567 1.721 2.706.25 3.093-1.856.849-3.122 1.385-3.05 1.009.286 1.42.641.772.755 1.086 1.199a6.68 6.68 0 0 1 1.171 2.99c.071.538.077 1.078.018 1.617s-.183 1.065-.37 1.575a6.68 6.68 0 0 1-1.795 2.662c-.402.364-.843.676-1.321.933a6.69 6.69 0 0 1-1.506.59c-.526.136-1.06.206-1.603.212s-1.079-.053-1.607-.177a6.68 6.68 0 0 1-1.518-.557c-.484-.247-1.117-1.875-1.899-4.883s-.355-5.615 1.282-7.82 3.854-3.589 6.65-4.152 5.014.113 6.654 2.027 1.959 3.123.958 3.626-1.766.817-2.295.944a6.7 6.7 0 0 1-1.611.184c-.544-.004-1.08-.073-1.608-.207a6.7 6.7 0 0 1-2.838-1.516 6.7 6.7 0 0 1-1.809-2.662c-.189-.51-.315-1.036-.376-1.577s-.058-1.081.012-1.621a6.7 6.7 0 0 1 .399-1.571c.197-.508.451-.984.764-1.43a6.69 6.69 0 0 1 1.084-1.205 6.7 6.7 0 0 1 1.341-.911c.484-.249 1.196 1.183 2.136 4.298s.529 4.39-1.235 3.825-2.215-1.723-1.356-3.475 1.237-2.777 1.131-3.074-.394-.569-.864-.816-.905-.545-1.304-.897a6.54 6.54 0 0 1-1.051-1.183c-.302-.437-.548-.904-.738-1.4a6.54 6.54 0 0 1-.383-3.119c.063-.528.189-1.04.376-1.537a6.54 6.54 0 0 1 1.781-2.588 6.54 6.54 0 0 1 2.78-1.464 6.54 6.54 0 0 1 3.142-.005c.516.126-.2.25-2.149.371s-1.536-.254 1.238-1.126 5.646-.929 8.614-.172 5.094 2.362 6.375 4.815 1.686 5.437 1.213 8.951-1.439 6.032-2.899 7.554-2.977 2.555-4.55 3.098-2.639.828-3.195.853-1.108-.017-1.654-.127-1.071-.282-1.576-.519a6.86 6.86 0 0 1-2.56-2.072c-.336-.444-.615-.922-.835-1.433s-.377-1.042-.468-1.591-.116-1.102-.074-1.657.151-1.098.325-1.627a6.86 6.86 0 0 1 1.749-2.791c.4-.387.841-.721 1.322-1.002a6.85 6.85 0 0 1 1.523-.656c.534-.157-.197.684-2.193 2.525s-2.765 1.082-2.306-2.276 1.213-6.19 2.264-8.498 2.538-3.875 4.463-4.702 3.918-.986 5.979-.477 3.933 2.248 5.616 5.218 2.484 5.578 2.401 7.825-.913 4.623-2.49 7.128-3.481 4.181-5.711 5.027-4.332 1.011-6.307.496-3.543-3.032-4.704-7.552-.541-7.966 1.86-10.341 5.068-3.432 8.004-3.173 5.18 1.249 6.733 2.969 2.351 3.864 2.396 6.432-.536 5.153-1.743 7.755-3.21 4.43-6.011 5.485-5.118 1.177-6.951.367-3.249-2.991-4.249-6.545-.916-6.358.25-8.413 2.688-3.536 4.564-4.443 4.13-1.244 6.761-1.011 4.706.898 6.225 1.996 2.632 2.838 3.342 5.22.339 5.063-1.113 8.044-3.113 4.942-4.983 5.881-4.197 1.053-6.98.34-4.448-3.1-4.994-7.16-.018-6.802 1.582-8.226 4.368-2.131 8.302-2.12 6.745.929 8.433 2.755 2.642 3.793 2.861 5.902-.369 4.481-1.765 7.114-3.292 4.575-5.689 5.824-4.597 1.616-6.599 1.1-3.633-1.969-4.893-4.36-.9-5.291 1.08-8.702 4.208-5.191 6.687-5.343 4.532.324 6.16 1.424 2.814 2.592 3.558 4.473.699 3.954-.134 6.218-2.613 4.164-5.339 5.7-5.126 2.174-7.199 1.914-3.471-.473-4.196-.639-1.347-.348-1.866-.547-1.007-.457-1.464-.775a6.85 6.85 0 0 1-2.172-2.47c-.257-.493-.45-1.01-.582-1.551s-.196-1.089-.194-1.645.071-1.104.206-1.644.333-1.055.593-1.547a6.85 6.85 0 0 1 .946-1.36c.37-.415.785-.779 1.244-1.094a6.85 6.85 0 0 1 1.47-.764c.521-.195 1.057-.325 1.61-.39s1.105-.063 1.656.006 1.895.086 4.03.052 3.473-.02 4.014.042 1.067.188 1.578.378a6.71 6.71 0 0 1 1.441.745c.45.307.857.663 1.221 1.068a6.71 6.71 0 0 1 1.514 2.843 6.7 6.7 0 0 1 .02 3.221c-.127.53-.316 1.037-.566 1.52a6.71 6.71 0 0 1-2.121 2.424c-.447.312-.924.566-1.432.763a6.7 6.7 0 0 1-1.573.398c-.54.069.198-.379 2.215-1.343s2.374-.488 1.072 1.429-3.789 3.175-7.461 3.775-6.384-1.206-8.136-5.417-1.746-6.925.017-8.14 3.627-1.863 5.594-1.943 4.014.977 6.142 3.17 2.956 4.729 2.481 7.611-1.995 4.995-4.562 6.34-5.424.585-8.573-2.28-4.19-5.401-3.123-7.607 2.459-3.667 4.179-4.381 3.576-.553 5.57.485 3.069 3.318 3.228 6.842-1.555 5.96-5.139 7.306-5.759 1.983-6.523 1.908-1.498-.27-2.199-.585-1.333-.734-1.897-1.256-1.029-1.121-1.396-1.796-.617-1.391-.749-2.148-.14-1.515-.024-2.275.351-1.481.703-2.164.805-1.291 1.358-1.826 1.175-.967 1.869-1.297 1.422-.541 2.186-.632a6.99 6.99 0 0 1 2.273.099 6.98 6.98 0 0 1 2.122.82c.663.389 1.246.874 1.75 1.454s.901 1.226 1.194 1.937.463 1.45.513 2.217-.024 1.522-.222 2.264-.509 1.434-.933 2.075-.94 1.197-1.547 1.668-1.273.834-1.999 1.087-1.473.383-2.241.392-1.518-.107-2.249-.344-1.405-.586-2.021-1.045-1.144-1.004-1.582-1.635-.764-1.316-.977-2.055-.303-1.491-.27-2.259a6.99 6.99 0 0 1 1.618-4.189c.491-.591 1.064-1.088 1.719-1.491s1.356-.691 2.105-.864l1.122-.259c-.001 0 .11.783.332 2.348s1.261 3.325 3.117 5.279 3.228 1.947 4.114-.022.299-3.295-1.762-3.979-2.425-.357-1.092.98 1.697.918 1.093-1.259.262-4.462 2.597-6.857 3.773-3.56 4.314-3.498 1.067.188 1.578.378.991.438 1.441.745.857.663 1.221 1.068.674.849.93 1.33.451.985.585 1.513.202 1.065.206 1.609-.058 1.082-.185 1.612-.316 1.037-.566 1.521a6.71 6.71 0 0 1-.913 1.341 6.7 6.7 0 0 1-1.208 1.083c-.446.312-.924.567-1.432.763a6.71 6.71 0 0 1-1.573.398c-.54.069-1.466.114-2.777.136s-2.952.017-4.925-.014-3.219-.146-3.738-.345-1.007-.457-1.464-.775-.869-.685-1.236-1.103-.679-.873-.936-1.366-.451-1.01-.582-1.551a6.85 6.85 0 0 1-.194-1.645c.002-.556.07-1.104.206-1.644a6.85 6.85 0 0 1 1.539-2.906 6.84 6.84 0 0 1 1.244-1.094c.459-.314.949-.569 1.469-.764a6.84 6.84 0 0 1 3.266-.384c.552.069 1.187.201 1.904.397s1.27 1.267 1.658 3.212 1.47 2.395 3.245 1.346 2.084-2.345.924-3.889-2.691-2.581-4.593-3.11-2.951-1.775-3.146-3.739.653-3.292 2.547-3.986 2.638.148 2.232 2.525-1.525 5.189-3.358 8.435-3.028 4.882-3.584 4.906a6.86 6.86 0 0 1-3.23-.645c-.504-.237-.973-.53-1.406-.88s-.818-.748-1.154-1.191a6.85 6.85 0 0 1-.835-1.433c-.221-.511-.377-1.042-.468-1.591a6.85 6.85 0 0 1-.074-1.657 6.86 6.86 0 0 1 .325-1.626c.174-.529.409-1.03.705-1.502s.643-.902 1.044-1.289a6.86 6.86 0 0 1 1.322-1.002c.481-.28.989-.499 1.523-.656s.927-.343 1.177-.556-.933.108-3.549.964-4.159 1.161-4.63.915a6.54 6.54 0 0 1-2.355-2.08c-.303-.437-.548-.904-.738-1.4s-.316-1.008-.381-1.536-.066-1.055-.003-1.583.189-1.04.376-1.537a6.54 6.54 0 0 1 1.781-2.589 6.54 6.54 0 0 1 2.78-1.464 6.54 6.54 0 0 1 3.142-.005 10.57 10.57 0 0 1 1.537.506c.509.211 1.839 1.52 3.991 3.928s3.015 5.303 2.588 8.687-1.476 6.04-3.147 7.97-4.26 3.028-7.766 3.295-6.17-.773-7.991-3.122-2.451-4.881-1.891-7.594 1.793-4.869 3.7-6.467 4.105-2.503 6.593-2.715 4.872.658 7.148 2.61 3.501 4.412 3.673 7.378-.281 5.465-1.36 7.497a14.31 14.31 0 0 1-4.438 5.041c-1.88 1.329-4.586 1.228-8.118-.304s-5.423-3.514-5.674-5.946.134-4.749 1.155-6.951 2.629-3.837 4.823-4.906 4.369-1.244 6.524-.525 3.729 2.792 4.722 6.218.4 5.81-1.78 7.151-3.534 2.075-4.064 2.201-1.066.188-1.61.184-1.08-.073-1.608-.207-1.031-.329-1.511-.586a6.7 6.7 0 0 1-1.327-.93c-.405-.364-.76-.771-1.066-1.221a6.7 6.7 0 0 1-1.119-3.017 6.7 6.7 0 0 1 .411-3.192c.197-.508.451-.984.764-1.43a6.7 6.7 0 0 1 2.424-2.117l.968-.456s1.29-.371 3.386-.952 4.719-.203 7.869 1.131 4.901 3.215 5.253 5.642-.883 4.987-3.704 7.68-5.261 3.945-7.32 3.758-3.628-1.169-4.708-2.944-1.414-2.485-1.004-2.13a6.68 6.68 0 0 1 1.086 1.199c.313.444.569.918.767 1.424s.333 1.028.404 1.566.077 1.077.018 1.617a6.68 6.68 0 0 1-.37 1.574c-.187.51-.432.99-.736 1.44s-.657.858-1.059 1.222-.843.676-1.321.933a6.68 6.68 0 0 1-3.109.803 6.68 6.68 0 0 1-1.608-.177c-.529-.124-1.035-.31-1.518-.557s-.897-.492-1.241-.735-1.349-1.599-3.017-4.068-1.482-5.166.556-8.093 4.588-4.011 7.65-3.254 5.057 2.181 5.987 4.27.981 4.474.154 7.153-2.335 4.471-4.523 5.375-4.5.47-6.936-1.3-3.879-3.761-4.328-5.972.018-4.797 1.403-7.758 3.557-4.759 6.518-5.397 5.359.839 7.193 4.43 1.128 6.61-2.12 9.059-6.165 2.561-8.754.338-3.506-4.532-2.752-6.928 2.502-4.134 5.242-5.215 5.111-.949 7.113.394 2.982 3.117 2.939 5.32-.632 4.029-1.768 5.479-2.66 2.573-4.573 3.37a8.66 8.66 0 0 1-5.88.332c-2.007-.576-2.715-3.138-2.123-7.687s2.517-7.818 5.776-9.807 6.217-2.62 8.873-1.893 4.537 2.076 5.64 4.048.736 4.755-1.104 8.35-3.83 5.357-5.972 5.287-4.118-1.039-5.929-2.908-2.631-4.01-2.459-6.423.975-4.34 2.409-5.781 4.408-1.581 8.921-.423 7.329 2.698 8.447 4.619 1.498 4.123 1.139 6.606-1.388 4.517-3.089 6.102-4.253 2.457-7.656 2.612-6.231-.223-8.485-1.136-4.031-2.363-5.331-4.35-1.887-4.206-1.761-6.655 1.049-4.672 2.767-6.667 3.681-3.187 5.887-3.574 4.421-.062 6.644.975 4.177 3.066 5.862 6.084 2.031 5.84 1.038 8.463-2.319 4.383-3.977 5.28-3.546 1.395-5.661 1.493-4.125-.405-6.031-1.51-3.258-2.755-4.059-4.948-.927-4.361-.381-6.503 1.723-4.472 3.529-6.99 4.762-3.426 8.868-2.724 5.78 3.084 5.024 7.145-2.159 6.475-4.208 7.242-4.436.742-7.161-.074-4.578-2.205-5.559-4.168-.999-4.287-.055-6.973 2.288-4.466 4.032-5.343 4.196-.867 7.357.031 5.442 2.106 6.843 3.626 2.234 3.685 2.499 6.495-1.382 5.856-4.94 9.137-6.428 4.751-8.608 4.409-4.068-1.447-5.662-3.317-2.219-4.61-1.875-8.222 1.173-6.181 2.488-7.708 2.993-2.791 5.036-3.794 4.487-1.283 7.332-.839 5.027 1.828 6.547 4.153 2.118 4.577 1.797 6.756-1.035 4.168-2.143 5.969-2.869 3.433-5.286 4.896-5.031 2.024-7.843 1.684-5.128-1.552-6.947-3.636-2.73-4.504-2.735-7.261.438-5.025 1.328-6.803 2.189-4.081 3.896-6.907 3.606-4.817 5.697-5.973 4.233-1.587 6.429-1.291 4.137 1.228 5.826 2.798 2.857 3.704 3.506 6.401.005 5.6-1.929 8.708-3.897 5.251-5.888 6.43-5.214 1.362-9.668.548-7.286-3.073-8.496-6.778-1.306-7.006-.287-9.904 2.246-5.022 3.683-6.372 3.509-2.625 6.218-3.826 5.385-1.082 8.03.357 4.7 2.713 6.167 3.821 2.856 2.658 4.166 4.648 2.605 4.233 3.885 6.727 1.808 4.931 1.585 7.308-.636 4.751-1.24 7.123-1.649 5.169-3.137 8.392-3.113 5.434-4.876 6.632-3.847 2.032-6.252 2.502a30.03 30.03 0 0 1-7.252.526c-2.429-.119-4.937-.541-7.522-1.265s-4.908-2.017-6.968-3.877-3.61-3.935-4.649-6.223S.104 33.117.156 30.614s.439-4.773 1.162-6.809 1.784-4.263 3.185-6.679 2.843-4.702 4.324-6.857 4.058-3.864 7.729-5.128 6.833-1.718 9.487-1.36 5.826 1.139 9.515 2.344 5.727 1.914 6.112 2.125.739.465 1.063.762a5.4 5.4 0 0 1 1.437 2.164c.148.413.245.838.29 1.275s.037.873-.023 1.308-.173.856-.336 1.264a5.41 5.41 0 0 1-.629 1.147c-.256.357-.551.678-.885.963s-.697.526-1.09.723a5.4 5.4 0 0 1-1.231.442c-.428.097-.862.142-1.301.134a5.41 5.41 0 0 1-1.295-.181l-.636-.169h0z" fill="#d980ff"/></svg>