<svg xmlns="http://www.w3.org/2000/svg" width="24" height="27" fill="none" xmlns:v="https://vecta.io/nano"><path d="M18.627 12.379l-3.84 1.985c-2.56 1.323-3.864.942-3.912-1.145s.463-3.1 1.532-3.04 1.696.418 1.882 1.074a6.19 6.19 0 0 1 .229 2.003 6.19 6.19 0 0 1-1.453 3.705c-.438.521-.948.959-1.53 1.314s-1.205.606-1.869.756a6.19 6.19 0 0 1-2.013.12 6.19 6.19 0 0 1-1.946-.529 6.19 6.19 0 0 1-1.675-1.122c-.497-.466-.907-.999-1.229-1.599a6.19 6.19 0 0 1-.665-3.924 6.19 6.19 0 0 1 1.845-3.526 6.19 6.19 0 0 1 1.663-1.14 6.19 6.19 0 0 1 1.94-.55 6.19 6.19 0 0 1 2.014.099 6.19 6.19 0 0 1 1.877.737 6.19 6.19 0 0 1 1.544 1.297 6.19 6.19 0 0 1 1.492 3.689 6.19 6.19 0 0 1-1.045 3.84 6.19 6.19 0 0 1-1.379 1.471 6.19 6.19 0 0 1-1.776.954 6.19 6.19 0 0 1-1.988.337 6.19 6.19 0 0 1-1.991-.316 6.19 6.19 0 0 1-1.786-.935 6.19 6.19 0 0 1-1.394-1.457l-.577-.842c0 .001.275-1.77.825-5.312S5.158 4.579 7.024 3.72s4.602-.357 8.208 1.508 5.558 3.778 5.855 5.739-1.325 4.185-4.863 6.671-6.148 3.259-7.829 2.321-3.075-2.363-4.183-4.275-1.542-4.17-1.303-6.775 1.259-4.714 3.061-6.331S9.71.172 11.786.208s4.047.763 5.912 2.183 3.307 3.3 4.326 5.642 1.454 4.579 1.305 6.713-.867 4.132-2.151 5.993-3.241 3.392-5.868 4.59-4.973 1.577-7.035 1.136-3.816-1.38-5.26-2.817S.885 19.878.962 16.653s.89-5.588 2.439-7.088 3.551-3.02 6.006-4.563l4.303-2.575a5.52 5.52 0 0 1 2.619-.414 5.52 5.52 0 0 1 2.511.851 5.52 5.52 0 0 1 1.828 1.921 5.52 5.52 0 0 1 .726 2.55c.016.448-.022.892-.114 1.331s-.235.861-.429 1.265a5.52 5.52 0 0 1-1.686 2.046l-.539.402h0z" fill="#ffb3cb"/></svg>