<svg xmlns="http://www.w3.org/2000/svg" width="39" height="31" fill="none" xmlns:v="https://vecta.io/nano"><path d="M30.293 21.796l-4.623-3.502c-3.082-2.334-5.542-3.652-7.38-3.953s-3.055.766-3.652 3.202-.238 2.376 1.075-.18 1.587-2.567.823-.032-.326 2.942 1.315 1.223 2.008-1.761 1.101-.125-.085 2.217 2.467 1.743 2.767-.964.645-1.469-3.653-1.569-4.592-3.19-1.421-1.466-1.447.468.574 2.119 1.798.556.84-3.161-1.154-4.795-3.744-1.246-5.251 1.163-1.264 4.02.728 4.833 3.727.097 5.202-2.148.732-3.279-2.228-3.104-4.209 1.194-3.746 3.054 1.75 2.208 3.86 1.043 3.905-.981 5.384.552 1.294 1.227-.554-.92-2.381-4.109-1.597-5.884 1.47-2.556 2.058-2.34 1.126.52 1.614.913.901.853 1.238 1.381.582 1.096.733 1.704.201 1.224.15 1.849-.2 1.224-.448 1.8-.581 1.096-.999 1.563a5.7 5.7 0 0 1-1.446 1.162c-.545.308-1.126.521-1.741.639a5.7 5.7 0 0 1-1.854.05c-.621-.085-1.212-.266-1.773-.545s-1.063-.639-1.506-1.082-.803-.945-1.082-1.507-.46-1.152-.544-1.773-.068-1.239.051-1.854.332-1.196.64-1.741.696-1.027 1.162-1.445.987-.751 1.563-.999 1.175-.396 1.8-.447 1.241 0 1.849.151 1.176.396 1.704.733.988.751 1.38 1.239a5.69 5.69 0 0 1 1.261 3.436c.017.626-.067 1.239-.251 1.838s-.459 1.153-.825 1.661-.803.946-1.312 1.311-1.063.64-1.662.824-1.212.267-1.838.25l-.938-.026c.001 0-1.301-.659-3.905-1.976s-4.257-2.978-4.959-4.983-.653-3.924.148-5.757 2.459-3.237 4.972-4.209 5.035-.692 7.565.841 4.637 3.245 6.322 5.138 2.855 4.018 3.509 6.374.549 4.868-.313 7.535-2.261 4.555-4.197 5.663-4.395 1.474-7.376 1.098-5.848-1.562-8.6-3.559-4.581-4.202-5.489-6.618-1.082-4.619-.524-6.611S6.462 8.29 8.503 6.821s4.345-2.177 6.914-2.125 5.153 1.118 7.754 3.197 3.828 4.72 3.683 7.922-1.372 5.986-3.683 8.351-4.88 3.63-7.709 3.796-5.349-.331-7.558-1.491-4.041-2.92-5.494-5.28S.363 16.259.631 13.477s1.545-5.112 3.83-6.988 5.218-3.163 8.797-3.861 6.92.153 10.022 2.551 4.767 4.947 4.996 7.644.068 5.025-.484 6.983-1.861 3.766-3.928 5.423-4.365 2.558-6.894 2.701-5.403-.317-8.621-1.381-5.357-3.526-6.417-7.384-.537-7.649 1.57-11.373 4.671-6 7.691-6.828 5.922-.539 8.703.867 5.176 3.681 7.184 6.822 2.714 6.644 2.12 10.509-1.881 6.559-3.861 8.082-4.129 2.294-6.445 2.312-4.571-.442-6.764-1.381-3.928-2.374-5.203-4.307-1.962-4.04-2.061-6.323.337-4.59 1.308-6.923 2.548-4.254 4.732-5.763 4.722-2.001 7.616-1.476 5.307 1.73 7.24 3.616 3.274 4.708 4.023 8.465.401 6.718-1.044 8.883-3.197 3.702-5.255 4.611-4.453 1.055-7.184.439-4.836-2.25-6.317-4.903-1.881-5.424-1.203-8.315 1.866-5.11 3.562-6.659 4.096-2.596 7.199-3.141 5.688-.284 7.753.785 3.726 2.431 4.982 4.085 2.153 3.602 2.694 5.844.309 4.483-.695 6.724-2.516 3.938-4.538 5.09-4.736 1.758-8.143 1.816-6.098-.375-8.071-1.3-3.563-2.161-4.771-3.708-1.822-3.622-1.842-6.223.503-4.833 1.57-6.693 2.887-3.721 5.461-5.582 5.123-2.601 7.647-2.22 4.631 1.525 6.321 3.433 2.721 4.153 3.094 6.737-.094 5.254-1.403 8.01-2.979 4.689-5.012 5.8-4.311 1.541-6.835 1.292-4.876-1.348-7.055-3.297-3.326-4.489-3.438-7.622.637-5.563 2.249-7.292 4.114-2.504 7.505-2.328 6.029 1.023 7.912 2.539 2.989 4.026 3.319 7.532-.049 6.059-1.135 7.661-3.261 2.657-6.527 3.166-5.78.443-7.545-.198-3.433-1.762-5.004-3.366-2.329-3.926-2.274-6.969.705-5.452 1.952-7.228 3.27-3.429 6.072-4.958 5.366-1.867 7.694-1.012 3.898 2.107 4.709 3.757.693 3.914-.354 6.793-2.242 5.304-3.581 7.276a15.8 15.8 0 0 1-5.069 4.771c-2.04 1.209-4.468 1.162-7.287-.14s-4.489-2.978-5.013-5.026-.634-4.281-.332-6.7 1.698-5.054 4.187-7.906 4.93-4.384 7.324-4.597 4.654.069 6.782.847 4.874 2.149 8.241 4.113 5.211 3.084 5.532 3.36a5.21 5.21 0 0 1 .851.93c.246.344.447.713.604 1.107s.264.8.321 1.219.065.839.02 1.26-.138.831-.282 1.229a5.21 5.21 0 0 1-.568 1.125c-.235.352-.508.671-.821.957s-.654.53-1.026.733a5.21 5.21 0 0 1-2.42.638 5.21 5.21 0 0 1-1.253-.132c-.413-.095-.808-.237-1.186-.428l-.567-.286h0z" fill="#ffb3cb"/></svg>