<svg xmlns="http://www.w3.org/2000/svg" width="44" height="43" fill="none" xmlns:v="https://vecta.io/nano"><path d="M28.135 15.12l-4.563-2.937c-3.042-1.958-5.743-2.309-8.103-1.053s-3.959 2.803-4.799 4.641-1.292 3.863-1.357 6.075.916 4.038 2.943 5.48 3.702 1.845 5.027 1.212l2.54-1.245a5.14 5.14 0 0 1 2.393-.609 5.14 5.14 0 0 1 2.402.573c.371.191.714.424 1.029.699a5.14 5.14 0 0 1 .832.925c.24.342.435.707.586 1.097a5.15 5.15 0 0 1 .307 1.205c.053.414.057.829.009 1.244s-.143.818-.289 1.21-.335.76-.57 1.105-.507.658-.818.937.703-.835 3.041-3.343 3.596-5.39 3.773-8.647-.692-5.806-2.607-7.648-3.569-1.883-4.961-.123-2.207 4.02-2.447 6.782.513 3.354 2.258 1.776 1.945-3.087.602-4.529-2.759-1.4-4.247.127-2.577 1.419-3.27-.322-.365-1.456.982.853l.588.982c-.955-1.655-2.629-2.222-5.022-1.702s-3.857.588-4.392.205-.996-.842-1.381-1.376-.675-1.116-.869-1.745-.283-1.273-.267-1.931.138-1.297.364-1.915.545-1.185.956-1.699.894-.949 1.449-1.304 1.151-.614 1.789-.774 1.286-.214 1.943-.162 1.287.208 1.893.467 1.154.608 1.644 1.047a5.99 5.99 0 0 1 1.224 1.517c.325.573.55 1.182.675 1.829a5.98 5.98 0 0 1 .056 1.949c-.088.653-.277 1.274-.569 1.865a5.99 5.99 0 0 1-1.134 1.585c-.465.466-.992.846-1.582 1.14s-1.21.485-1.863.575a5.98 5.98 0 0 1-1.949-.049c-.647-.123-1.257-.346-1.831-.669s-1.081-.729-1.522-1.219-.791-1.036-1.053-1.641-.419-1.235-.474-1.891-.003-1.304.155-1.943.414-1.237.767-1.792.787-1.04 1.299-1.453 1.078-.734 1.696-.962 1.256-.352 1.914-.37 1.302.068 1.932.26l.944.288c0 0 1.042.206 3.127.618s3.963 2.183 5.633 5.313 1.91 5.66.719 7.591-2.92 3.385-5.187 4.36-4.882.787-7.847-.565-4.664-3.286-5.098-5.802.178-5.016 1.837-7.502 3.871-3.973 6.634-4.461 5.084-.244 6.962.732 3.587 2.541 5.127 4.696 2.266 4.864 2.178 8.126-1.251 5.938-3.489 8.029-5.175 2.69-8.81 1.798-6.278-2.539-7.929-4.94-2.587-5.178-2.809-8.33.578-5.911 2.399-8.279 4.043-3.747 6.665-4.137 4.889-.172 6.8.656 3.807 2.174 5.688 4.039 3.122 4.248 3.725 7.146.119 5.55-1.45 7.953-3.378 4.118-5.427 5.143-4.277 1.548-6.685 1.568-4.483-.571-6.224-1.773-2.962-2.931-3.66-5.188-.591-4.695.324-7.315 2.274-4.826 4.079-6.616 3.783-3.141 5.935-4.053 4.482-1.277 6.988-1.097 4.748.976 6.724 2.385 3.32 3.098 4.031 5.064.792 4.453.241 7.46-1.717 5.836-3.498 8.487-4.087 4.349-6.916 5.096-5.381.621-7.652-.377-3.981-2.474-5.128-4.427-1.745-4.081-1.794-6.384.362-4.853 1.234-7.649 2.416-5.419 4.633-7.868 4.759-3.843 7.624-4.18 5.484.212 7.855 1.648 4.362 3.498 5.969 6.187 2.678 6.127 3.211 10.313-.018 7.521-1.652 10.006-3.794 4.681-6.479 6.591-5.199 2.893-7.541 2.95-4.533-1.097-6.574-3.463-2.789-4.902-2.246-7.611.999-4.16 1.367-4.357a5.14 5.14 0 0 1 2.393-.609 5.14 5.14 0 0 1 1.236.14c.406.097.795.241 1.166.432a5.14 5.14 0 0 1 1.029.699 5.13 5.13 0 0 1 .832.925 5.14 5.14 0 0 1 .893 2.302c.053.414.056.829.009 1.244a5.14 5.14 0 0 1-.858 2.315 5.14 5.14 0 0 1-.818.937c-.31.279-.672.546-1.085.8s-2.431.723-6.055 1.407-6.464.688-8.523.013-3.797-1.747-5.214-3.218-2.494-3.479-3.23-6.025-.951-5.521-.645-8.925a22.71 22.71 0 0 1 3.038-9.525c1.719-2.946 4.052-5.269 6.997-6.97s5.662-2.442 8.149-2.224 5.434 1.139 8.84 2.763 5.275 2.557 5.606 2.797a5.04 5.04 0 0 1 1.562 1.85 5.04 5.04 0 0 1 .405 1.15c.089.4.128.805.118 1.214s-.068.812-.176 1.207-.261.772-.46 1.13a5.04 5.04 0 0 1-.717.987c-.279.3-.59.562-.932.787a5.04 5.04 0 0 1-2.284.805c-.408.04-.814.03-1.219-.029a5.04 5.04 0 0 1-1.177-.32l-.569-.231h0z" fill="#ffb3cb"/></svg>