<svg xmlns="http://www.w3.org/2000/svg" width="23" height="28" fill="none" xmlns:v="https://vecta.io/nano"><path d="M18.547 13.671l-2.144 2.069c-1.429 1.379-2.455 2.753-3.078 4.123s-1.115 2.196-1.477 2.48a5.65 5.65 0 0 1-1.172.708c-.419.189-.855.325-1.307.407s-.908.111-1.367.083-.908-.11-1.347-.247a5.66 5.66 0 0 1-2.326-1.406 5.66 5.66 0 0 1-1.406-2.326 5.66 5.66 0 0 1-.164-2.713 5.66 5.66 0 0 1 1.116-2.479c.284-.362 1.125-1.139 2.524-2.333S8.819 9.4 9.459 7.708l1.282-3.196c.215-.439.479-.845.793-1.22s.668-.706 1.062-.995.818-.526 1.27-.712.919-.315 1.403-.387.968-.086 1.455-.04.96.149 1.422.309.897.374 1.307.641.781.578 1.115.935.62.748.859 1.174.423.875.553 1.346.202.951.215 1.439a6.01 6.01 0 0 1-.136 1.449c-.104.477-.567 2.043-1.389 4.697s-1.069 4.253-.741 4.799.508 1.068.538 1.567A6.15 6.15 0 0 1 20.38 21c-.09.492-.237.966-.442 1.422s-.461.881-.77 1.275a6.15 6.15 0 0 1-1.052 1.054c-.393.309-.818.566-1.274.771s-.93.354-1.421.444-.987.121-1.486.091-.988-.119-1.465-.267-.93-.352-1.359-.61a6.15 6.15 0 0 1-1.173-.917c-.354-.353-.66-.744-.919-1.172s-.463-.88-.612-1.358.147-1.776.887-3.895.968-3.956.684-5.509-.524-2.564-.718-3.034a6.25 6.25 0 0 1-.45-2.969 6.25 6.25 0 0 1 .982-2.838 6.25 6.25 0 0 1 2.188-2.057 6.25 6.25 0 0 1 2.893-.804 6.25 6.25 0 0 1 2.936.633 6.25 6.25 0 0 1 2.305 1.925c.301.409.08 2.095-.663 5.057l-1.649 7.738-.578 4.462c-.029.778-.099 1.417-.213 1.918s-.285.98-.515 1.439-.511.883-.844 1.274-.708.735-1.125 1.035-.863.544-1.34.735-.968.322-1.477.393-1.018.081-1.528.028a6.32 6.32 0 0 1-2.857-1.023c-.428-.284-.815-.614-1.163-.992a6.32 6.32 0 0 1-.891-1.241c-.247-.45-.436-.923-.568-1.419s-.203-1-.212-1.513l-.062-3.618c-.032-1.899-.271-3.687-.716-5.364l-.782-3.276a6.32 6.32 0 0 1 .284-3.022A6.32 6.32 0 0 1 4.87 3.251a6.32 6.32 0 0 1 2.649-1.483 6.32 6.32 0 0 1 3.035-.083 6.32 6.32 0 0 1 2.725 1.337c.393.33.742.702 1.045 1.116a6.32 6.32 0 0 1 .747 1.334c.195.475-.028 1.872-.67 4.191s-3.078 4.383-7.31 6.194-6.365 2.369-6.4 1.677a6.3 6.3 0 0 1 1.099-3.899 6.3 6.3 0 0 1 1.417-1.485 6.3 6.3 0 0 1 1.817-.955c.658-.219 1.334-.327 2.027-.324s1.368.116 2.024.34a6.3 6.3 0 0 1 1.81.968c.55.422 1.019.92 1.406 1.495s.672 1.197.855 1.866a6.3 6.3 0 0 1-.235 4.044 6.3 6.3 0 0 1-1.065 1.755 6.3 6.3 0 0 1-1.569 1.323c-.596.355-1.232.606-1.91.752s-1.361.181-2.05.103-1.347-.263-1.976-.557a6.3 6.3 0 0 1-1.694-1.158c-.501-.479-.913-1.025-1.236-1.639S.872 18.9.762 18.216a6.3 6.3 0 0 1 .671-3.995 6.3 6.3 0 0 1 1.249-1.629 6.3 6.3 0 0 1 1.703-1.145 6.3 6.3 0 0 1 1.98-.541c.69-.072 1.373-.032 2.049.119a6.3 6.3 0 0 1 1.904.767 6.3 6.3 0 0 1 1.559 1.335 6.3 6.3 0 0 1 1.051 1.763l.381.967a9495.59 9495.59 0 0 0-5.132-3.139c-3.422-2.092-5.17-3.392-5.246-3.9a6.32 6.32 0 0 1 .283-3.022A6.32 6.32 0 0 1 4.87 3.252a6.32 6.32 0 0 1 2.648-1.484 6.32 6.32 0 0 1 3.035-.083 6.32 6.32 0 0 1 2.726 1.337 6.32 6.32 0 0 1 1.792 2.45c.195.475.364 1.171.505 2.088s.432 2.296.87 4.138.67 3.954.697 6.336l-.13 4.325c-.113.5-.285.98-.515 1.439s-.511.883-.844 1.274-.708.735-1.125 1.035-.863.544-1.34.735-.969.322-1.477.394-1.017.081-1.528.029a6.32 6.32 0 0 1-1.49-.338c-.483-.173-.939-.401-1.366-.685s-.815-.614-1.163-.992-.645-.791-.891-1.241-.436-.923-.569-1.419-.203-1-.213-1.513.078-1.709.263-3.587.932-4.56 2.24-8.046 2.061-4.265 2.26-2.337.2 2.658.006 2.188a6.25 6.25 0 0 1-.45-2.969 6.25 6.25 0 0 1 .981-2.838 6.25 6.25 0 0 1 2.188-2.057 6.25 6.25 0 0 1 2.893-.804 6.25 6.25 0 0 1 2.936.632 6.25 6.25 0 0 1 2.306 1.924c.301.409.576.852.827 1.33s.762 1.823 1.534 4.039.623 4.471-.447 6.768-1.59 3.694-1.559 4.193A6.16 6.16 0 0 1 20.38 21c-.09.492-.237.966-.442 1.422s-.461.881-.769 1.275-.659.745-1.052 1.054a6.16 6.16 0 0 1-1.274.772c-.456.206-.93.354-1.421.444a6.15 6.15 0 0 1-1.486.091c-.499-.03-.988-.119-1.465-.267a6.16 6.16 0 0 1-2.532-1.527c-.354-.353-.66-.744-.919-1.172s-.463-.88-.612-1.357-.316-1.833-.499-4.068.189-4.876 1.118-7.924l1.716-5.23c.215-.439.479-.846.793-1.22s.668-.706 1.062-.995a6.01 6.01 0 0 1 1.269-.712c.452-.186.919-.315 1.403-.387s.968-.086 1.455-.04.961.148 1.422.309.897.374 1.307.64.781.578 1.115.935a6.01 6.01 0 0 1 .86 1.174 6.01 6.01 0 0 1 .553 1.346c.13.471.202.951.215 1.439a6.01 6.01 0 0 1-.135 1.449l-.303 1.582c-.098.577-.694 2.061-1.787 4.452s-2.63 4.227-4.61 5.51l-3.512 2.349a5.66 5.66 0 0 1-1.172.708c-.419.189-.855.325-1.307.407a5.66 5.66 0 0 1-1.367.083c-.459-.028-.908-.11-1.347-.247a5.66 5.66 0 0 1-2.326-1.406 5.66 5.66 0 0 1-1.406-2.326 5.66 5.66 0 0 1-.164-2.713 5.66 5.66 0 0 1 .407-1.307c.189-.419.425-.81.708-1.172s.723-1.184 1.318-2.465 1.611-2.666 3.048-4.153l2.702-2.659a5.7 5.7 0 0 1 2.497-1.124 5.7 5.7 0 0 1 2.733.165c.442.138.861.327 1.258.566a5.7 5.7 0 0 1 1.086.851c.328.327.611.689.851 1.086s.428.816.566 1.258.221.894.249 1.357 0 .921-.083 1.377a5.7 5.7 0 0 1-.41 1.317c-.19.422-.428.816-.714 1.18l-.428.547h0z" fill="#ff8595"/></svg>