<svg xmlns="http://www.w3.org/2000/svg" width="36" height="42" fill="none" xmlns:v="https://vecta.io/nano"><path d="M28.263 13.345l-5.681-1.911c-3.787-1.274-7.007-.719-9.66 1.665s-3.941 4.696-3.864 6.938 1.174 3.576 3.291 4.003 4.048.351 5.792-.229 2.866-1.232 3.366-1.956.928-1.166 1.283-1.324a4.79 4.79 0 0 1 1.107-.342c.383-.069.768-.091 1.156-.067a4.79 4.79 0 0 1 2.194.69c.332.202.636.441.91.717s.512.58.712.913a4.79 4.79 0 0 1 .679 2.197c.023.388-.002.774-.073 1.156a4.79 4.79 0 0 1-.347 1.105c-.16.354-.361.684-.602.99a4.79 4.79 0 0 1-.821.817c-.307.239-2.039-.136-5.198-1.125s-5.523-.837-7.096.456-1.202 2.16 1.111 2.6 4.247.124 5.801-.948 1.71-2.282.465-3.63-1.286-2.812-.125-4.393.889-1.72-.817-.418-1.615.972.272-.992 2.425-2.104 1.613-.42-1.927 1.648-3.345-.107-1.002-2.998 1.248-3.729 2.396-1.36.438-1.886-2.396-.817-1.314-.872 1.37.147.864.606-1.072.825-1.698 1.099a6.21 6.21 0 0 1-3.976.347 6.21 6.21 0 0 1-3.375-2.13 6.21 6.21 0 0 1-1.005-1.755 6.21 6.21 0 0 1-.392-1.984 6.21 6.21 0 0 1 .262-2.005 6.21 6.21 0 0 1 .888-1.817 6.21 6.21 0 0 1 3.229-2.347 6.21 6.21 0 0 1 3.991.086 6.21 6.21 0 0 1 3.125 2.483 6.21 6.21 0 0 1 .809 1.853c.169.662.227 1.334.175 2.015a6.21 6.21 0 0 1-.477 1.965c-.266.629-.626 1.199-1.08 1.71a6.21 6.21 0 0 1-1.569 1.276c-.593.34-1.224.575-1.894.708s-1.344.154-2.021.066a6.21 6.21 0 0 1-3.585-1.754c-.486-.48-.882-1.026-1.189-1.636a6.21 6.21 0 0 1-.604-1.93 6.21 6.21 0 0 1 .044-2.022c.125-.672.354-1.306.687-1.902l.499-.894c0 0 1.992-.704 5.978-2.115s7.146-.386 9.48 3.074 3.015 6.412 2.043 8.857-2.114 4.31-3.424 5.595-3.333 1.971-6.067 2.057-4.865-.94-6.393-3.08-2.081-4.64-1.659-7.5 1.516-5.346 3.279-7.457 4.051-3.331 6.861-3.658 5.174.158 7.092 1.455 3.443 3.061 4.574 5.292 1.691 4.614 1.679 7.149-.605 4.758-1.78 6.67-2.763 3.476-4.764 4.692-4.014 1.968-6.042 2.253-4.157.027-6.389-.777-3.879-2.02-4.941-3.648-1.605-3.588-1.63-5.878 1.115-4.753 3.419-7.387 5.063-3.574 8.274-2.82 5.456 1.884 6.734 3.39 2.438 3.242 3.482 5.208 1.603 4.019 1.679 6.159-.511 4.225-1.761 6.253-3.177 3.369-5.783 4.023-5.312.16-8.12-1.479-4.577-4.565-5.309-8.776-.579-7.567.457-10.069 2.689-4.277 4.958-5.327 4.683-1.223 7.245-.518 4.546 1.817 5.954 3.339 2.356 3.364 2.844 5.528.272 4.578-.648 7.242-2.57 5.118-4.951 7.362-5.134 3.356-8.261 3.337-5.752-.865-7.875-2.536-3.321-3.986-3.592-6.943.193-5.685 1.392-8.182 2.98-4.329 5.342-5.493 5.182-1.565 8.459-1.2 5.782 1.571 7.515 3.621 2.561 4.42 2.485 7.109-.933 5.264-2.571 7.723-3.616 4.195-5.933 5.208-4.764 1.428-7.34 1.247-4.946-1.107-7.111-2.778-3.325-3.715-3.48-6.133.935-4.678 3.272-6.781 5.121-3.349 8.352-3.737 5.809.015 7.735 1.211a13.2 13.2 0 0 1 4.587 4.792c1.132 1.999 1.797 4.223 1.995 6.673s-.545 5.033-2.231 7.748-4.041 4.474-7.066 5.276-6.296 1.091-9.814.867-6.209-1.228-8.075-3.011-2.958-3.798-3.277-6.045-.136-4.253.548-6.019 1.66-3.332 2.929-4.701 2.86-2.491 4.775-3.366 4.171-.678 6.769.591 4.074 1.824 4.429 1.666.724-.273 1.107-.342a4.78 4.78 0 0 1 1.156-.067c.388.024.768.095 1.139.211s.723.276 1.055.478a4.79 4.79 0 0 1 .91.716c.274.276.512.58.712.913s.358.686.473 1.057a4.79 4.79 0 0 1 .206 1.14c.023.388-.002.774-.073 1.156s-.187.751-.347 1.105-.361.684-.602.99-.514.578-.821.817-.702.651-1.187 1.235-1.681 1.305-3.589 2.163-4.077 1.217-6.507 1.077-5.331-.951-8.701-2.433-5.497-3.41-6.381-5.783-1.023-5.114-.417-8.221 2.087-6.131 4.445-9.072 5.156-4.779 8.393-5.515 6.903-.666 10.997.21 6.328 1.389 6.7 1.541.722.346 1.048.583.618.509.877.817a4.96 4.96 0 0 1 .657 1.003c.178.361.311.738.397 1.131s.125.791.115 1.193-.068.798-.174 1.186-.257.758-.452 1.11-.431.675-.705.97-.58.552-.917.773a4.95 4.95 0 0 1-1.075.531 4.96 4.96 0 0 1-1.171.258c-.401.039-.8.029-1.198-.03l-.597-.088h0z" fill="#ff8595"/></svg>