<svg xmlns="http://www.w3.org/2000/svg" width="29" height="29" fill="none" xmlns:v="https://vecta.io/nano"><path d="M19.794 23.608l-4.583-1.89c-3.056-1.26-5.328-1.743-6.816-1.45s-2.416.353-2.783.179a5 5 0 0 1-1.862-1.519 5 5 0 0 1-.943-2.21 5 5 0 0 1-.049-1.209c.033-.405.113-.8.242-1.186a5 5 0 0 1 1.283-2.031 5 5 0 0 1 2.08-1.202c.39-.113.788-.178 1.194-.194s.808.016 1.206.097 1.338 1.164 2.818 3.247 1.185 3.027-.888 2.83-3.261-.488-3.566-.874-.559-.802-.762-1.249-.35-.912-.441-1.395-.122-.97-.094-1.46a6.05 6.05 0 0 1 .853-2.777c.252-.421.552-.807.898-1.155s.729-.651 1.148-.907.863-.458 1.332-.606a6.05 6.05 0 0 1 2.899-.187c.484.087.95.23 1.399.43s.867.451 1.255.752.465 2.269.232 5.903-1.314 5.034-3.242 4.2-2.051-1.667-.37-2.501 3.116-.862 4.307-.086 1.89 1.396 2.099 1.861a6.28 6.28 0 0 1 .451 1.45c.092.502.122 1.007.091 1.515a6.28 6.28 0 0 1-.274 1.493c-.152.487-.36.948-.624 1.384s-.576.834-.937 1.194a6.27 6.27 0 0 1-1.196.936c-.436.264-.898.471-1.385.622a6.28 6.28 0 0 1-1.494.273c-.509.03-1.014 0-1.515-.093s-.985-.243-1.449-.453a6.27 6.27 0 0 1-1.299-.786c-.401-.315-.759-.673-1.073-1.074s-.397-1.842-.25-4.322.87-4.592 2.167-6.336 2.628-1.611 3.993.399 1.639 2.165.82.466-1.555-1.62-2.207.237-.9 1.841-.744-.049.386-2.075.691-.553.326 2.507.063 2.955a6.39 6.39 0 0 1-2.143 2.2 6.39 6.39 0 0 1-1.402.653c-.494.161-1 .261-1.518.299a6.39 6.39 0 0 1-1.545-.073c-.512-.087-1.006-.234-1.483-.441a6.39 6.39 0 0 1-2.442-1.862A6.39 6.39 0 0 1 .64 14.272c-.1-.51-.138-1.024-.114-1.543a6.39 6.39 0 0 1 .259-1.525c.148-.498 2.217-1.149 6.207-1.953s6.216-.187 6.677 1.852l1.129 6.296c.291 2.158.835 2.123 1.63-.105s.2-3.366-1.787-3.415-2.204-.697-.65-1.946 2.096-.762 1.624 1.462-1.677 2.636-3.617 1.239-3.341-1.996-4.204-1.795-1.606.241-2.23.12a5.77 5.77 0 0 1-1.764-.651c-.552-.314-1.04-.707-1.464-1.181s-.76-1.002-1.01-1.586-.4-1.193-.451-1.826.001-1.258.156-1.874.403-1.192.746-1.726.763-1.001 1.258-1.398 1.042-.705 1.639-.923 1.213-.335 1.848-.351 1.256.07 1.863.257 1.168.467 1.683.839.958.816 1.328 1.332.647 1.079.833 1.686.269 1.229.25 1.864-.138 1.251-.358 1.846-.53 1.141-.929 1.635-.866.912-1.402 1.253-1.112.588-1.729.74a5.78 5.78 0 0 1-1.875.149c-.633-.053-1.241-.205-1.824-.457s-1.111-.591-1.583-1.016-.864-.915-1.175-1.468S1.078 8.96.96 8.336.825 7.085.912 6.456s.272-1.228.556-1.797.65-1.077 1.1-1.525.96-.813 1.53-1.094 1.169-.464 1.799-.549l.944-.127c-.001 0 1.289.15 3.868.45a15.98 15.98 0 0 1 7.125 2.625c2.171 1.45 3.962 3.39 5.372 5.819a11.12 11.12 0 0 1 1.374 7.78c-.495 2.757-2.068 4.859-4.721 6.305s-5.347 1.635-8.084.563-4.769-2.519-6.097-4.344-2.183-3.901-2.565-6.23.021-4.657 1.209-6.984S7.11 3.289 9.12 2.149s4.726-.916 8.149.675 5.407 3.506 5.952 5.749.209 4.849-1.006 7.819-3.002 4.973-5.359 6.008-4.915.673-7.673-1.086-4.041-4.135-3.847-7.126 1.228-5.337 3.103-7.034 3.785-2.734 5.731-3.11 4.301-.203 7.065.517 4.854 2.659 6.271 5.816 1.653 5.888.71 8.193-2.586 4.507-4.926 6.607-4.858 3.305-7.55 3.617-5.047-.112-7.063-1.271-3.467-2.973-4.353-5.442-.573-5.357.939-8.664S8.364 7.8 10.032 6.496s3.439-1.964 5.314-1.979 3.895 1.245 6.06 3.781 2.183 5.379.054 8.531-4.677 4.602-7.644 4.348-5.498-1.511-7.593-3.774-3.028-4.785-2.797-7.566S4.76 4.801 6.736 3.073 10.838.457 13.109.407s4.54 1.271 6.805 3.964 2.756 5.507 1.474 8.441-3.023 4.134-5.224 3.598-3.432-.58-3.695-.132-.575.858-.938 1.23a6.39 6.39 0 0 1-2.607 1.624c-.494.161-1 .261-1.518.299s-1.033.014-1.545-.073a6.39 6.39 0 0 1-2.817-1.223 6.39 6.39 0 0 1-1.926-2.392c-.219-.471-.379-.961-.48-1.47S.502 13.249.527 12.73a6.39 6.39 0 0 1 .259-1.525l.469-1.8c.165-.702.862-1.867 2.093-3.495s3.757-2.69 7.578-3.185 6.521-.214 8.099.846 2.692 3.158 3.341 6.296.077 5.752-1.717 7.843-4.404 3.374-7.832 3.848-6.218-.239-8.37-2.139-3.153-4.203-3.003-6.907 1.418-4.824 3.801-6.36 4.815-2.022 7.293-1.459 4.693 2.357 6.644 5.381 2.145 5.935.581 8.733-3.422 4.366-5.575 4.703-4.462-.829-6.926-3.499-2.849-5.594-1.153-8.771 3.864-5.015 6.505-5.516 4.884.899 6.729 4.199 2.135 5.872.872 7.717-3.332 3.387-6.206 4.625-5.803.059-8.787-3.539-4.038-6.265-3.16-8 2.275-3.01 4.19-3.823 4.018-.825 6.309-.035 3.824 2.563 4.601 5.32l1.479 4.832a6.28 6.28 0 0 1 .451 1.45c.092.502.122 1.007.091 1.515s-.123 1.007-.274 1.493-.36.948-.624 1.384-.576.834-.937 1.195-.759.672-1.196.936-.898.471-1.385.622a6.28 6.28 0 0 1-3.009.18c-.501-.092-.984-.243-1.449-.452a6.27 6.27 0 0 1-1.299-.786c-.401-.315-.759-.673-1.073-1.074s-1.053-1.502-2.216-3.301-1.595-3.915-1.295-6.348 2.495-4.221 6.587-5.364 7.111-.6 9.059 1.628 3.01 4.391 3.187 6.487-.11 4.036-.86 5.82-1.921 3.164-3.512 4.14-3.557 1.311-5.898 1.006-3.827-2.178-4.458-5.617-1.098-5.352-1.403-5.737-.559-.802-.762-1.249a6.05 6.05 0 0 1-.441-1.395c-.091-.483-.122-.97-.094-1.46a6.05 6.05 0 0 1 .258-1.44c.144-.47.343-.915.595-1.337s.552-.807.898-1.155.729-.651 1.148-.907a6.05 6.05 0 0 1 1.332-.606c.469-.148.948-.238 1.438-.27s.977-.004 1.461.082.95.23 1.399.43.867.45 1.255.752.928.809 1.619 1.522 1.668 1.898 2.93 3.555 2.005 3.57 2.227 5.741-.229 4.091-1.357 5.759-2.75 2.837-4.867 3.505-4.515.511-7.192-.473-4.608-2.555-5.792-4.714-1.062-5.065.365-8.719 3.341-5.697 5.74-6.13 4.548-.097 6.447 1.007 3.495 2.828 4.789 5.172 1.761 4.526 1.4 6.545-1.555 3.685-3.58 4.996-4.022 1.773-5.99 1.385-3.492-1.5-4.572-3.335-1.803-2.839-2.171-3.013a5 5 0 0 1-1.862-1.519 5 5 0 0 1-.943-2.21 5 5 0 0 1 .192-2.395 5 5 0 0 1 1.283-2.031 5 5 0 0 1 .967-.727c.352-.203.723-.362 1.113-.475s.788-.178 1.194-.195.808.016 1.206.097 1.223.009 2.475-.217 3.574.106 6.967.995l5.692 1.62c.402.19.775.426 1.12.707s.651.599.918.955.488.738.663 1.147.298.833.369 1.272.089.88.054 1.324-.124.876-.264 1.298-.33.821-.567 1.197a5.47 5.47 0 0 1-1.896 1.823 5.47 5.47 0 0 1-1.218.52c-.427.124-.863.195-1.307.213s-.884-.017-1.32-.106l-.653-.133h0z" fill="#ff8595"/></svg>