<svg xmlns="http://www.w3.org/2000/svg" width="40" height="46" fill="none" xmlns:v="https://vecta.io/nano"><path d="M14.101 36.102l2.884.173c1.923.115 3.628-.222 5.118-1.011s2.787-1.942 3.893-3.458 2.185-3.431 3.236-5.745 1.119-4.216.203-5.705-1.684-3.271-2.306-5.345-1.826-3.129-3.611-3.167-3.594.217-5.426.765-3.407 1.274-4.724 2.18-2.018 2.178-2.102 3.818.308 3.405 1.179 5.296 2.206 2.841 4.007 2.852 3.055-1.118 3.763-3.386.684-4.187-.072-5.758-.762-1.322-.017.749.805 2.379.179.925-1.471-1.368-2.535.255-.917 2.842.44 3.657 2.117 2.023 2.28 3.625-.008 3.155-.512 4.66-.903 2.429-1.198 2.774-.627.649-.995.914-.764.481-1.185.649-.857.284-1.306.347-.9.071-1.351.025-.891-.146-1.318-.299-.83-.355-1.208-.606a5.58 5.58 0 0 1-1.815-1.974c-.218-.398-.385-.816-.502-1.254s-.179-.884-.187-1.337a5.58 5.58 0 0 1 .596-2.615c.204-.405.203.256-.003 1.984s-.823 2.406-1.852 2.034-1.69-.735-1.983-1.091-.539-.741-.739-1.156-.346-.848-.44-1.299-.133-.906-.116-1.367.088-.912.214-1.355a5.67 5.67 0 0 1 .533-1.265c.229-.4.502-.767.82-1.1s.671-.625 1.06-.873a5.68 5.68 0 0 1 1.238-.594c.437-.148.884-.242 1.344-.281s.917-.023 1.372.049.895.197 1.32.375a5.67 5.67 0 0 1 1.192.68c.37.275.611.722.722 1.342s.399.966.862 1.039a5.77 5.77 0 0 1 2.554 1.073 5.76 5.76 0 0 1 1.011.961c.298.361.548.753.751 1.175a5.76 5.76 0 0 1 .566 2.711c-.017.468-.089.927-.218 1.378s-.309.879-.541 1.286-.51.78-.834 1.119a5.77 5.77 0 0 1-2.336 1.491c-.444.15-.899.246-1.366.285s-1.616-.521-3.448-1.683-1.516-2.101.946-2.817 2.286-.704-.529.036-4.403.958-4.766.654a5.81 5.81 0 0 1-.962-1.028c-.279-.382-.508-.791-.688-1.228s-.304-.89-.374-1.357-.082-.937-.038-1.407.145-.929.3-1.376a5.82 5.82 0 0 1 1.527-2.343c.346-.323.725-.6 1.138-.831a5.83 5.83 0 0 1 1.304-.535c.456-.126.921-.195 1.394-.208a5.83 5.83 0 0 1 1.403.132c.462.101.906.255 1.33.463s1.329.742 2.712 1.6 2.182 1.5 2.396 1.925.373.87.479 1.334a5.85 5.85 0 0 1 .145 1.41c-.009.476-.074.944-.196 1.404a5.85 5.85 0 0 1-.527 1.316 5.86 5.86 0 0 1-1.905 2.073 5.86 5.86 0 0 1-1.267.636c-.448.161-.909.266-1.383.315a5.86 5.86 0 0 1-2.788-.389 5.86 5.86 0 0 1-1.243-.681c-.387-.277-.735-.597-1.044-.958s-.593-.537-.85-.527-.578-.128-.96-.416-.725-.618-1.028-.989a5.89 5.89 0 0 1-1.211-2.559 5.89 5.89 0 0 1 .118-2.829c.134-.46.321-.897.561-1.311a5.9 5.9 0 0 1 .859-1.139c.332-.345.701-.645 1.107-.901a5.9 5.9 0 0 1 1.29-.61c.455-.151.921-.246 1.399-.284a5.9 5.9 0 0 1 2.796.457c.441.188 1.161 1.226 2.161 3.114s1.35 2.334 1.049 1.341-.222-1.412.237-1.255.892.366 1.299.628.778.569 1.111.921.619.739.858 1.16.424.865.555 1.332.204.942.22 1.426a5.96 5.96 0 0 1-.128 1.437c-.101.474-.257.929-.468 1.365s-.472.84-.782 1.213a5.97 5.97 0 0 1-2.305 1.703c-.447.186-.911.317-1.39.391s-.96.089-1.443.047-1.527-1.036-3.133-2.978-3.018-3.379-4.237-4.308-1.95-1.605-2.194-2.028a6 6 0 0 1-.805-2.771c-.02-.488.019-.97.116-1.449a6.01 6.01 0 0 1 1.236-2.608 6.01 6.01 0 0 1 1.048-1.008c.39-.293.81-.536 1.259-.728a6.02 6.02 0 0 1 1.397-.405c.482-.079.966-.099 1.453-.06s.962.135 1.425.29a6.01 6.01 0 0 1 1.314.622c.413.261.789.567 1.127.918s.761 1.278 1.268 2.78 1.139 2.478 1.897 2.929 1.315.844 1.672 1.177a6.01 6.01 0 0 1 1.576 2.421c.161.461.264.935.31 1.422a6.01 6.01 0 0 1-.04 1.454c-.072.483-.201.951-.387 1.403s-.423.875-.712 1.27-.62.749-.995 1.063a6.02 6.02 0 0 1-2.595 1.273 6.02 6.02 0 0 1-2.889-.078c-.471-.13-.92-.314-1.347-.553s.555-2.062 2.943-5.469 3.761-4.944 4.118-4.611a6.01 6.01 0 0 1 .935 1.114c.267.409.48.844.641 1.305s.264.935.309 1.421.032.971-.04 1.454a6.01 6.01 0 0 1-.387 1.402c-.186.452-.423.875-.711 1.269a6.02 6.02 0 0 1-2.214 1.856 6.02 6.02 0 0 1-1.374.479c-.477.104-.96.15-1.449.136a6.02 6.02 0 0 1-1.439-.214 6.01 6.01 0 0 1-1.346-.552c-.426-.239-1.61-1.242-3.552-3.01l-3.094-2.994c-.121-.228-.264-.573-.431-1.034s-.275-.936-.326-1.424-.043-.975.025-1.461a6.04 6.04 0 0 1 1.075-2.695 6.04 6.04 0 0 1 .988-1.078c.373-.319.779-.589 1.217-.81s.897-.386 1.376-.495a6.05 6.05 0 0 1 1.454-.152c.491.008.974.075 1.448.2s.927.306 1.358.541.827.518 1.189.85.679.701.951 1.11.671 1.449 1.196 3.123l.827 2.636c.026.083.079.369.158.856a6.07 6.07 0 0 1 .059 1.47c-.04.492-.138.973-.295 1.441a6.08 6.08 0 0 1-.631 1.329c-.264.417-.575.797-.931 1.139s-.749.637-1.177.884-.879.439-1.354.577-.959.216-1.453.236-.983-.019-1.467-.118a6.09 6.09 0 0 1-1.396-.466 6.08 6.08 0 0 1-1.244-.786c-.383-.312-.722-.666-1.019-1.06s-.542-.819-.735-1.274-.419-1.193-.678-2.215l-.619-2.24a6.1 6.1 0 0 1-.219-2.924c.083-.489.223-.961.42-1.416s.446-.88.747-1.275a6.11 6.11 0 0 1 2.284-1.842c.45-.21.918-.363 1.405-.46a6.11 6.11 0 0 1 2.931.135c.476.141.928.336 1.356.587s.82.548 1.176.894.665.729.928 1.149-1.593 1.651-5.567 3.692-6.038 2.825-6.193 2.354a6.1 6.1 0 0 1-.218-2.924c.083-.489.222-.961.42-1.416s.446-.88.747-1.275a6.11 6.11 0 0 1 1.03-1.059c.386-.311.804-.572 1.254-.782s.918-.363 1.404-.46a6.11 6.11 0 0 1 2.931.135 6.1 6.1 0 0 1 1.356.587c.428.25.82.548 1.176.894a6.1 6.1 0 0 1 .928 1.149c.263.421.855 1.131 1.778 2.131s1.451 1.739 1.585 2.218.209.966.225 1.462-.028.988-.131 1.474a6.12 6.12 0 0 1-1.282 2.644c-.318.382-.676.721-1.076 1.017s-.829.539-1.288.73-.934.325-1.426.4-.985.092-1.48.048a6.12 6.12 0 0 1-1.448-.308c-.47-.161-.914-.376-1.332-.645a6.12 6.12 0 0 1-1.139-.945 6.11 6.11 0 0 1-.88-1.19c-.245-.432 1.042-2.223 3.861-5.373s4.371-4.422 4.656-3.818.466 1.238.543 1.901a6.07 6.07 0 0 1-.812 3.818c-.34.575-.764 1.081-1.27 1.517a6.08 6.08 0 0 1-1.688 1.032 6.08 6.08 0 0 1-1.93.44c-.667.041-1.323-.025-1.969-.199s-1.246-.446-1.802-.817a6.07 6.07 0 0 1-1.446-1.349c-.408-.529-.721-1.109-.939-1.74s-.329-1.281-.334-1.949a6.07 6.07 0 0 1 .306-1.954c.209-.634.514-1.219.915-1.754a6.08 6.08 0 0 1 1.427-1.371 6.08 6.08 0 0 1 1.79-.844 6.08 6.08 0 0 1 1.966-.228 6.08 6.08 0 0 1 1.935.411c.623.243 1.19.578 1.703 1.007a6.07 6.07 0 0 1 1.291 1.498c.349.57.597 1.18.745 1.832a6.07 6.07 0 0 1-.395 3.883c-.276.608-.643 1.157-1.099 1.645a6.08 6.08 0 0 1-1.567 1.208 6.08 6.08 0 0 1-1.871.645 6.08 6.08 0 0 1-1.979.014c-.66-.103-1.287-.309-1.88-.618a6.07 6.07 0 0 1-1.584-1.185l-.694-.722a7981.41 7981.41 0 0 0 4.684-4.091c3.122-2.728 5.318-3.117 6.588-1.169s1.971 3.162 2.106 3.64.21.966.226 1.462a6.12 6.12 0 0 1-.131 1.474 6.11 6.11 0 0 1-.48 1.4 6.12 6.12 0 0 1-.802 1.244c-.318.382-.676.721-1.076 1.017s-.829.539-1.288.73a6.12 6.12 0 0 1-1.426.401c-.491.076-.985.092-1.48.048a6.12 6.12 0 0 1-1.448-.307c-.47-.161-.914-.376-1.332-.645s-.798-.584-1.139-.945a6.11 6.11 0 0 1-.88-1.19c-.245-.432-.049-.312.588.36s.215.251-1.266-1.265-2.299-2.509-2.453-2.98a6.1 6.1 0 0 1-.219-2.924 6.1 6.1 0 0 1 .42-1.416c.197-.455.446-.88.746-1.275a6.11 6.11 0 0 1 2.284-1.842 6.11 6.11 0 0 1 2.878-.571 6.11 6.11 0 0 1 1.457.245c.476.141.928.336 1.356.586a6.1 6.1 0 0 1 1.176.894c.356.346.665.729.928 1.149s-1.349 1.354-4.834 2.799-5.305 1.932-5.459 1.461a6.1 6.1 0 0 1-.219-2.924c.083-.489.222-.961.42-1.416s.446-.88.747-1.275a6.11 6.11 0 0 1 2.284-1.842c.45-.21.918-.363 1.405-.46s.978-.133 1.474-.111a6.11 6.11 0 0 1 2.813.831c.428.25.82.548 1.176.894a6.1 6.1 0 0 1 .928 1.149c.263.421.627 1.443 1.094 3.068l.818 3.168a6.07 6.07 0 0 1-.236 2.91c-.157.468-.367.911-.631 1.329a6.08 6.08 0 0 1-2.108 2.023 6.09 6.09 0 0 1-2.807.813c-.494.02-.983-.019-1.467-.118s-.949-.254-1.396-.465-.861-.474-1.244-.786-.722-.666-1.019-1.06-.542-.819-.736-1.274-.416-1.214-.668-2.28l-.627-2.291c-.166-.462-.275-.936-.326-1.424s-.043-.975.025-1.461a6.04 6.04 0 0 1 .374-1.413c.182-.456.416-.883.701-1.283s.615-.758.988-1.078.779-.589 1.217-.81a6.04 6.04 0 0 1 1.376-.496c.479-.11.963-.16 1.454-.152s.974.075 1.448.2a6.04 6.04 0 0 1 1.358.541c.431.235.827.518 1.189.85s.679.701.951 1.11.817.891 1.634 1.449 1.405 1.003 1.761 1.336a6.01 6.01 0 0 1 .935 1.114c.267.409.48.844.641 1.305a6 6 0 0 1 .31 1.421c.046.486.032.971-.04 1.454s-.201.95-.387 1.402a6.01 6.01 0 0 1-.711 1.269c-.288.394-.62.748-.994 1.062s-.781.579-1.22.794-.897.375-1.374.479-.96.15-1.449.136-.968-.085-1.439-.214-.92-.314-1.346-.552.56-1.926 2.959-5.062 3.776-4.537 4.133-4.203a6.01 6.01 0 0 1 1.577 2.421 6.01 6.01 0 0 1 .27 2.876c-.072.483-.201.951-.387 1.403a6.01 6.01 0 0 1-.712 1.27 6.02 6.02 0 0 1-2.215 1.857 6.02 6.02 0 0 1-2.824.616 6.02 6.02 0 0 1-2.787-.767c-.427-.239-1.284-.971-2.573-2.197a15.93 15.93 0 0 1-3.162-4.185l-1.594-2.98a6 6 0 0 1-.805-2.771c-.02-.487.019-.97.116-1.449a6.01 6.01 0 0 1 .46-1.379c.209-.441.468-.851.776-1.229s.658-.714 1.048-1.008.81-.536 1.259-.728a6.02 6.02 0 0 1 1.396-.406c.482-.079.966-.099 1.453-.06a6.01 6.01 0 0 1 2.739.911 6 6 0 0 1 1.127.918c.338.352.271.485-.201.4s-.261.603.636 2.064 1.574 2.27 2.033 2.427a5.96 5.96 0 0 1 2.41 1.549c.333.352.619.739.858 1.16s.424.865.555 1.331a5.96 5.96 0 0 1 .092 2.863c-.101.474-.257.929-.468 1.365a5.97 5.97 0 0 1-.781 1.213c-.31.373-.659.703-1.049.991a5.97 5.97 0 0 1-1.256.712c-.447.187-.911.317-1.39.391a5.97 5.97 0 0 1-1.443.047l-1.083-.149c-.239-.057-1.052-.504-2.437-1.341s-2.684-2.198-3.896-4.081-1.327-2.129-.347-.738 1.28 1.942.897 1.654a5.89 5.89 0 0 1-1.789-2.195 5.89 5.89 0 0 1-.563-2.775c.02-.479.097-.948.231-1.408s.321-.897.561-1.312.526-.794.859-1.139a5.9 5.9 0 0 1 1.107-.901c.405-.256.835-.459 1.29-.61s.921-.246 1.399-.284.953-.018 1.426.059.93.21 1.37.398l.923.442c.175.107.953.728 2.334 1.865s2.178 1.918 2.392 2.343a5.85 5.85 0 0 1 .479 1.334c.106.464.154.934.146 1.41a5.86 5.86 0 0 1-.196 1.404c-.122.46-.298.899-.527 1.316s-.504.801-.826 1.152a5.86 5.86 0 0 1-1.078.921c-.397.263-.819.476-1.267.636a5.87 5.87 0 0 1-1.383.315c-.474.049-.946.041-1.418-.025s-.929-.187-1.371-.363-.857-.403-1.244-.681-.735-.597-1.044-.958-.581-.42-.816-.176-.533.214-.896-.089-.683-.646-.962-1.028-.508-.791-.688-1.228-.304-.89-.374-1.357-.082-.937-.038-1.407.145-.929.3-1.376a5.82 5.82 0 0 1 1.527-2.343 5.83 5.83 0 0 1 2.441-1.366c.456-.126.921-.195 1.394-.208s.941.031 1.403.132a5.82 5.82 0 0 1 1.33.463c.425.208-.662.516-3.26.924s-2.507.679.272.813l4.863.311a5.77 5.77 0 0 1 1.342.381 5.76 5.76 0 0 1 2.223 1.653c.298.361.549.753.751 1.175s.352.862.448 1.321a5.76 5.76 0 0 1 .119 1.39c-.017.468-.089.927-.218 1.378a5.77 5.77 0 0 1-1.375 2.405 5.77 5.77 0 0 1-1.077.888c-.395.252-.815.454-1.258.604a5.77 5.77 0 0 1-1.366.286l-.803.053c-.068-.005-.845-.249-2.329-.733s-2.755-1.349-3.812-2.595l-2.024-2.402c-.293-.355-.539-.741-.739-1.156s-.346-.848-.44-1.299-.133-.907-.117-1.367a5.67 5.67 0 0 1 .214-1.355c.126-.443.304-.864.532-1.265s.502-.767.82-1.101a5.68 5.68 0 0 1 2.297-1.467c.437-.148.884-.242 1.344-.281a5.68 5.68 0 0 1 1.372.049c.455.072.895.197 1.32.375s.822.405 1.192.68.477.506.322.692.687.84 2.528 1.962 2.785 2.775 2.834 4.96-.074 3.45-.369 3.795a5.59 5.59 0 0 1-2.181 1.564 5.59 5.59 0 0 1-2.657.372c-.451-.046-.891-.146-1.318-.299a5.58 5.58 0 0 1-2.235-1.483 5.58 5.58 0 0 1-.787-1.097c-.218-.398-.385-.816-.502-1.254a5.58 5.58 0 0 1-.048-2.681 5.58 5.58 0 0 1 .457-1.271c.204-.405.2-.96-.012-1.666s-.276-2.077-.192-4.117.896-3.985 2.436-5.836 3.452-2.91 5.735-3.177 4.348.765 6.195 3.095 2.476 4.835 1.887 7.515-1.636 4.417-3.143 5.211-3.391 1.024-5.654.689-4.157-1.292-5.684-2.874-2.524-3.494-2.993-5.738-.627-4.177-.474-5.8.743-3.193 1.768-4.709 3.079-2.484 6.16-2.903 5.753-.124 8.017.885 3.847 2.189 4.751 3.538 1.531 2.887 1.882 4.612-.163 4.613-1.543 8.665-2.981 6.425-4.804 7.118-3.76.792-5.809.297-3.744-1.617-5.083-3.366-2.129-3.633-2.371-5.653-.22-4.308.064-6.865.795-4.59 1.532-6.1 1.907-2.795 3.51-3.857 3.975-1.122 7.115-.18 5.377 2.363 6.709 4.264 2.141 4.242 2.428 7.025.088 5.394-.596 7.835-2.088 4.944-4.214 7.509-3.953 4.075-5.483 4.529l-4.994 1.23c-1.799.366-3.978.012-6.535-1.063s-4.468-2.782-5.732-5.121a60.15 60.15 0 0 1-3.34-7.332C.08 23.217-.146 20.73.365 18.305l1.757-6.891c.661-2.169 1.715-3.919 3.164-5.25s2.958-2.28 4.528-2.845l4.658-1.461L19.064.67C20.59.287 22.753.212 25.555.445s4.88.769 6.235 1.609 2.516 2.178 3.484 4.016 1.813 4.053 2.534 6.648l1.705 6.621c.415 1.819.398 3.692-.05 5.618l-1.581 5.67c-.605 1.854-1.765 4.075-3.479 6.661s-3.285 4.357-4.713 5.311-3.481 1.752-6.16 2.391-4.981.944-6.908.916l-3.472-.136c-.388-.062-.762-.169-1.124-.322a4.83 4.83 0 0 1-1.014-.581c-.315-.235-.596-.504-.845-.807s-.458-.632-.627-.986-.294-.723-.373-1.108-.112-.773-.097-1.165a4.83 4.83 0 0 1 .641-2.23c.196-.34.429-.653.7-.936a4.84 4.84 0 0 1 .904-.742 4.83 4.83 0 0 1 1.055-.504 4.84 4.84 0 0 1 1.145-.237l.587-.049h0z" fill="#f5f2f2"/></svg>