<svg xmlns="http://www.w3.org/2000/svg" width="20" height="22" fill="none" xmlns:v="https://vecta.io/nano"><path d="M8.38 11.054l1.451-.695c.967-.464 1.606-.258 1.915.616s.189 1.502-.361 1.883a6.08 6.08 0 0 1-1.787.851 6.08 6.08 0 0 1-1.965.235c-.668-.029-1.314-.164-1.938-.405s-1.193-.575-1.707-1.002a6.08 6.08 0 0 1-1.298-1.495c-.351-.569-.602-1.18-.752-1.831s-.194-1.31-.128-1.975.235-1.303.509-1.913a6.08 6.08 0 0 1 1.093-1.65c.455-.49.976-.895 1.563-1.215s1.21-.537 1.869-.652a6.08 6.08 0 0 1 1.979-.021 6.08 6.08 0 0 1 1.883.612c.594.307 1.124.701 1.588 1.181s.841 1.023 1.128 1.626a6.08 6.08 0 0 1 .55 1.902 6.08 6.08 0 0 1-.086 1.978 6.08 6.08 0 0 1-.713 1.847 6.08 6.08 0 0 1-1.265 1.522c-.505.438-1.067.784-1.685 1.038a6.08 6.08 0 0 1-1.929.446 6.08 6.08 0 0 1-1.97-.193c-.646-.172-1.248-.443-1.805-.812s-1.041-.818-1.451-1.346a6.08 6.08 0 0 1-.946-1.739 6.08 6.08 0 0 1-.341-1.95 6.08 6.08 0 0 1 .3-1.957 6.08 6.08 0 0 1 .909-1.759l.598-.804c0 0 2.195.022 6.585.065s7.177 1.622 8.359 4.737 1.482 5.57.899 7.366-2.152 3.376-4.708 4.742-5.18 1.416-7.872.152-4.544-3.156-5.557-5.675S.182 9.748.997 7.278s2.417-4.31 4.803-5.52 4.78-1.329 7.181-.36 3.744 1.638 4.032 2.004a5.74 5.74 0 0 1 1.131 2.513c.084.458.112.92.084 1.385a5.73 5.73 0 0 1-.25 1.365 5.74 5.74 0 0 1-1.426 2.358 5.74 5.74 0 0 1-1.093.856c-.399.241-.821.431-1.266.57a5.74 5.74 0 0 1-2.751.166 5.74 5.74 0 0 1-2.513-1.131l-.55-.431h0z" fill="#ffebc7"/></svg>