<svg xmlns="http://www.w3.org/2000/svg" width="35" height="33" fill="none" xmlns:v="https://vecta.io/nano"><path d="M27.848 12.655l-5.069-1.963c-3.379-1.309-5.913-1.368-7.601-.178s-2.858 2.964-3.508 5.323.04 3.684 2.073 3.976 3.764-.534 5.195-2.476 1.171-3.277-.778-4.002-3.159.084-3.631 2.428-1.38 2.837-2.725 1.479-1.361-1.246-.05.337l1.653 1.983c-.21-.261-.556-.148-1.04.337s-1.032.88-1.645 1.185-1.259.505-1.938.598-1.354.076-2.027-.052a6.22 6.22 0 0 1-1.904-.697c-.597-.336-1.124-.759-1.582-1.268s-.823-1.078-1.094-1.707-.435-1.285-.492-1.967-.003-1.356.162-2.021.431-1.286.799-1.864a6.23 6.23 0 0 1 1.352-1.511c.533-.43 1.121-.763 1.764-1s1.306-.365 1.991-.385 1.355.071 2.01.271 1.261.5 1.818.899 1.035.876 1.436 1.432.701 1.161.903 1.816.294 1.324.276 2.009-.144 1.349-.38 1.992-.567 1.232-.996 1.766a6.23 6.23 0 0 1-1.508 1.356c-.577.37-1.197.637-1.862.804s-1.338.222-2.021.167-1.339-.217-1.968-.487-1.199-.633-1.71-1.09-.934-.983-1.272-1.579-.572-1.23-.701-1.903-.149-1.348-.057-2.027.289-1.325.593-1.939l.455-.92c0 .001 1.613-.89 4.84-2.673s5.898-2.291 8.013-1.526 3.791 2.053 5.028 3.863 1.764 3.849 1.583 6.117-1.726 4.526-4.633 6.776-5.764 2.968-8.568 2.156-4.753-2.342-5.845-4.591-1.444-4.366-1.058-6.353 1.218-4.218 2.493-6.694 2.926-4.151 4.952-5.025 4.338-.944 6.936-.211 4.518 2.059 5.76 3.978 1.743 4.431 1.505 7.538-1.204 5.546-2.896 7.318-3.426 2.914-5.203 3.425-3.639.591-5.588.24S6.323 24 4.641 20.828 2.5 15.077 3.26 13.093s1.819-3.833 3.174-5.547 3.821-3.031 7.397-3.952 6.515-.868 8.819.155 3.97 2.751 5 5.182 1.022 4.871-.021 7.32-2.2 4.488-3.468 6.116-3.133 2.832-5.595 3.612-4.764.824-6.907.129-4.014-1.98-5.614-3.856-1.902-5.21-.907-10.003 2.313-7.825 3.954-9.095S12.495 1.036 14.38.61s4.304-.437 7.256-.032 5.38 1.356 7.283 2.854 3.253 3.191 4.051 5.079.949 3.997.452 6.325-1.449 4.5-2.858 6.514-2.74 3.703-3.994 5.066-3.358 2.707-6.313 4.029-5.663 2.057-8.123 2.203-4.575-.429-6.346-1.726-3.125-3.457-4.064-6.481-1.085-5.737-.439-8.14 1.515-4.763 2.608-7.081 2.451-4.147 4.073-5.488 3.969-2.343 7.039-3.007S21.505.152 25.29.992s5.878 1.349 6.278 1.524a5.37 5.37 0 0 1 1.119.66c.346.265.656.568.929.909a5.37 5.37 0 0 1 1.084 2.341c.083.428.114.86.092 1.296a5.37 5.37 0 0 1-.221 1.281c-.125.418-.299.815-.521 1.191s-.485.72-.79 1.031-.643.583-1.014.812-.764.412-1.179.546-.84.217-1.276.248a5.37 5.37 0 0 1-1.298-.065l-.645-.111h0z" fill="#ffebc7"/></svg>