<svg xmlns="http://www.w3.org/2000/svg" width="25" height="28" fill="none" xmlns:v="https://vecta.io/nano"><path d="M17.362 17.618l-1.974-1.531c-1.316-1.02-2.893-1.641-4.732-1.861s-1.778-.69.182-1.407 2.519-.227 1.677 1.472-.305 2.514 1.61 2.444 1.606-.529-.93-1.379-3.256-2.316-2.161-4.399 1.833-2.321 2.216-.71.321 2.171-.183 1.682a6.39 6.39 0 0 1-1.24-1.67c-.322-.625-.536-1.284-.642-1.979a6.39 6.39 0 0 1 .023-2.08 6.39 6.39 0 0 1 .686-1.964 6.39 6.39 0 0 1 1.277-1.642c.516-.477 1.094-.86 1.735-1.148a6.39 6.39 0 0 1 2.011-.534c.699-.068 1.391-.023 2.076.136s1.326.423 1.924.792a6.39 6.39 0 0 1 1.57 1.365c.449.541.799 1.139 1.052 1.795s.394 1.335.424 2.037a6.39 6.39 0 0 1-.248 2.065 6.39 6.39 0 0 1-.895 1.878c-.401.577-.883 1.075-1.448 1.494a6.39 6.39 0 0 1-1.849.953c-.668.217-1.354.321-2.056.313a6.39 6.39 0 0 1-3.875-1.355 6.39 6.39 0 0 1-1.413-1.527 6.39 6.39 0 0 1-.852-1.898c-.18-.679-.247-1.369-.201-2.07s.203-1.377.47-2.026a6.39 6.39 0 0 1 1.093-1.77c.461-.53.995-.973 1.601-1.328s1.253-.605 1.941-.748S17.613.844 18.31.928s1.364.277 1.998.58l.951.453c-.001 0 .4 2.121 1.201 6.364s.628 7.254-.521 9.035-3.501 2.794-7.057 3.041-5.419-1.515-5.589-5.287 2.002-5.548 6.515-5.329 7.193 1.338 8.039 3.356 1.028 4.215.546 6.591-1.45 4.202-2.904 5.479-3.534 1.984-6.239 2.119-4.905-.428-6.598-1.692-3.02-3.097-3.979-5.501-.653-5.148.918-8.233 4.217-4.053 7.939-2.904 6.015 3.04 6.883 5.675 1.058 4.897.571 6.787-1.449 3.443-2.887 4.66-3.589 1.802-6.455 1.753-5.144-.876-6.838-2.484-2.92-3.561-3.679-5.861S.3 14.88.929 12.479 2.805 7.98 4.671 6.187s4.54-2.258 8.023-1.395 5.25 2.906 5.3 6.128-.617 5.759-2.001 7.608-3.068 2.987-5.05 3.413-3.699-1.018-5.151-4.332-1.471-5.846-.057-7.596 3.97-2.777 7.67-3.081l6.204-.28c.437.117.853.285 1.249.504s.76.481 1.092.788.623.649.872 1.027a5.57 5.57 0 0 1 .601 1.205c.151.426.25.864.295 1.314s.036.899-.028 1.346a5.57 5.57 0 0 1-.35 1.3c-.169.419-.386.812-.651 1.179s-.569.696-.914.989-.719.54-1.124.741a5.57 5.57 0 0 1-2.609.585l-.678-.014h0z" fill="#ffebc7"/></svg>