<svg width="29" height="28" viewBox="0 0 29 28" fill="none" xmlns="http://www.w3.org/2000/svg">
<g filter="url(#filter0_d_7_3)">
<path d="M13.9961 0.000677619C10.8514 0.00163785 7.8136 1.14246 5.44566 3.21177C3.07772 5.28108 1.54013 8.13857 1.1178 11.2548C0.69547 14.371 1.41703 17.5347 3.14877 20.1596C4.88052 22.7845 7.50505 24.6927 10.5361 25.5307C10.6661 25.5796 10.8049 25.6009 10.9437 25.5932C11.0824 25.5855 11.218 25.549 11.3418 25.4859C11.4656 25.4229 11.575 25.3348 11.6628 25.2272C11.7507 25.1195 11.8152 24.9948 11.8522 24.8608C11.8891 24.7269 11.8978 24.5867 11.8776 24.4493C11.8574 24.3118 11.8087 24.18 11.7348 24.0624C11.6608 23.9448 11.5631 23.8439 11.448 23.7661C11.3329 23.6883 11.2028 23.6354 11.0661 23.6107C8.54923 22.9215 6.35937 21.36 4.88764 19.2051C3.41592 17.0503 2.75818 14.4424 3.03193 11.8473C3.30568 9.2522 4.49308 6.83895 6.38203 5.03859C8.27098 3.23823 10.7385 2.16804 13.3437 2.01917C15.9489 1.87029 18.5222 2.65245 20.604 4.22591C22.6857 5.79937 24.1403 8.06166 24.7079 10.6087C25.2755 13.1557 24.9191 15.8215 23.7024 18.13C22.4857 20.4385 20.488 22.2393 18.0661 23.2107C18.1291 21.8966 18.0284 20.5798 17.7661 19.2907C19.1875 18.9754 20.4549 18.1753 21.3508 17.0276C22.2467 15.8798 22.7153 14.4561 22.6761 13.0007C22.7482 11.6317 22.3803 10.2755 21.6261 9.13068C21.7659 7.99481 21.6286 6.84198 21.2261 5.77068C21.151 5.5473 20.9995 5.35758 20.7983 5.235C20.597 5.11242 20.359 5.06485 20.1261 5.10068C18.92 5.2654 17.7674 5.70318 16.7561 6.38068C15.8552 6.14115 14.9282 6.01352 13.9961 6.00068C12.9828 6.02737 11.976 6.17168 10.9961 6.43068C10.024 5.68707 8.83972 5.27361 7.61606 5.25068C7.40046 5.23795 7.18653 5.29536 7.00627 5.41433C6.82601 5.5333 6.68912 5.70743 6.61606 5.91068C6.24932 6.93147 6.12271 8.02304 6.24606 9.10068C5.52853 10.2728 5.16399 11.6268 5.19606 13.0007C5.23312 14.4488 5.74131 15.8454 6.6436 16.9786C7.54588 18.1119 8.79306 18.9201 10.1961 19.2807C10.1318 19.5411 10.0818 19.8048 10.0461 20.0707C9.04606 20.1307 8.46606 19.5207 7.72606 18.5907C7.29045 17.8587 6.59943 17.3137 5.78606 17.0607C5.53348 17.0156 5.27324 17.0694 5.05919 17.2109C4.84514 17.3523 4.69366 17.5707 4.63606 17.8207C4.58068 18.0709 4.62346 18.3328 4.75558 18.5524C4.88769 18.7719 5.09906 18.9324 5.34606 19.0007C5.50606 19.0007 5.89606 19.5207 6.11606 19.8107C6.51453 20.4593 7.06334 21.0024 7.71607 21.394C8.36881 21.7856 9.10626 22.0143 9.86606 22.0607C10.3056 22.0601 10.7429 21.9995 11.1661 21.8807C11.2697 21.85 11.3676 21.8027 11.4561 21.7407C11.5291 21.683 11.5902 21.6117 11.6361 21.5307C11.6679 21.5057 11.695 21.4752 11.7161 21.4407C11.742 21.3863 11.7621 21.3293 11.7761 21.2707C11.8006 21.2055 11.8207 21.1386 11.8361 21.0707C11.8327 20.4062 11.9906 19.7508 12.2961 19.1607C12.4203 19.0154 12.5003 18.8376 12.5266 18.6482C12.5529 18.4589 12.5244 18.2659 12.4444 18.0923C12.3644 17.9187 12.2364 17.7716 12.0754 17.6685C11.9144 17.5654 11.7272 17.5107 11.5361 17.5107C10.3771 17.4453 9.28568 16.9441 8.48076 16.1076C7.67584 15.2712 7.21693 14.1613 7.19606 13.0007C7.14654 11.932 7.45248 10.877 8.06606 10.0007C8.16557 9.88908 8.23879 9.75658 8.28033 9.61294C8.32186 9.46929 8.33066 9.31817 8.30606 9.17068C8.19099 8.55938 8.19099 7.93198 8.30606 7.32068C8.96044 7.45926 9.5631 7.7779 10.0461 8.24068C10.1764 8.36578 10.3382 8.45322 10.5143 8.49372C10.6904 8.53422 10.8741 8.52625 11.0461 8.47068C12.0071 8.19656 12.9975 8.03877 13.9961 8.00068C14.8948 8.02314 15.7863 8.16781 16.6461 8.43068C16.8136 8.49276 16.9948 8.5088 17.1706 8.47715C17.3465 8.44549 17.5107 8.36729 17.6461 8.25068C18.2287 7.77064 18.9125 7.42875 19.6461 7.25068C19.796 7.87851 19.796 8.53284 19.6461 9.16068C19.6069 9.34078 19.6159 9.52801 19.6721 9.70355C19.7283 9.87908 19.8297 10.0367 19.9661 10.1607C20.5531 10.9836 20.8068 11.9983 20.6761 13.0007C20.6996 13.5884 20.602 14.1748 20.3894 14.7232C20.1768 15.2717 19.8536 15.7705 19.44 16.1888C19.0265 16.6071 18.5313 16.9358 17.9852 17.1546C17.4392 17.3734 16.854 17.4776 16.2661 17.4607C16.0617 17.46 15.8621 17.522 15.6941 17.6382C15.526 17.7544 15.3976 17.9193 15.3261 18.1107C15.2535 18.3021 15.2414 18.5112 15.2915 18.7097C15.3416 18.9082 15.4514 19.0866 15.6061 19.2207C16.1961 19.7307 16.1061 23.2207 16.0761 24.5807C16.0722 24.7359 16.1045 24.89 16.1704 25.0305C16.2364 25.1711 16.3342 25.2944 16.4561 25.3907C16.6333 25.5283 16.8517 25.6022 17.0761 25.6007C17.1591 25.6104 17.243 25.6104 17.3261 25.6007C20.4086 24.8185 23.0975 22.9335 24.8839 20.3025C26.6703 17.6714 27.4303 14.4768 27.0201 11.3231C26.6099 8.16946 25.0579 5.27557 22.6578 3.18907C20.2578 1.10257 17.1761 -0.031777 13.9961 0.000677619V0.000677619Z" fill="black"/>
</g>
<defs>
<filter id="filter0_d_7_3" x="0" y="0" width="28.1288" height="27.608" filterUnits="userSpaceOnUse" color-interpolation-filters="sRGB">
<feFlood flood-opacity="0" result="BackgroundImageFix"/>
<feColorMatrix in="SourceAlpha" type="matrix" values="0 0 0 0 0 0 0 0 0 0 0 0 0 0 0 0 0 0 127 0" result="hardAlpha"/>
<feOffset dy="1"/>
<feGaussianBlur stdDeviation="0.5"/>
<feComposite in2="hardAlpha" operator="out"/>
<feColorMatrix type="matrix" values="0 0 0 0 0 0 0 0 0 0 0 0 0 0 0 0 0 0 0.25 0"/>
<feBlend mode="normal" in2="BackgroundImageFix" result="effect1_dropShadow_7_3"/>
<feBlend mode="normal" in="SourceGraphic" in2="effect1_dropShadow_7_3" result="shape"/>
</filter>
</defs>
</svg>
