<svg width="29" height="28" viewBox="0 0 29 28" fill="none" xmlns="http://www.w3.org/2000/svg">
<g filter="url(#filter0_d_7_5)">
<path d="M4.5 0C3.80777 0 3.13108 0.205271 2.55551 0.589856C1.97993 0.974441 1.53133 1.52107 1.26642 2.16061C1.00152 2.80015 0.932205 3.50388 1.06725 4.18282C1.2023 4.86175 1.53564 5.48539 2.02513 5.97487C2.51461 6.46436 3.13825 6.7977 3.81719 6.93275C4.49612 7.0678 5.19985 6.99849 5.83939 6.73358C6.47894 6.46867 7.02556 6.02007 7.41015 5.4445C7.79473 4.86892 8 4.19223 8 3.5C8 2.57174 7.63125 1.6815 6.97487 1.02513C6.3185 0.368749 5.42826 0 4.5 0ZM4.5 5C4.20333 5 3.91332 4.91203 3.66665 4.7472C3.41997 4.58238 3.22771 4.34811 3.11418 4.07403C3.00065 3.79994 2.97095 3.49834 3.02882 3.20736C3.0867 2.91639 3.22956 2.64912 3.43934 2.43934C3.64912 2.22956 3.91639 2.0867 4.20737 2.02882C4.49834 1.97094 4.79994 2.00065 5.07403 2.11418C5.34812 2.22771 5.58238 2.41997 5.74721 2.66664C5.91203 2.91332 6 3.20333 6 3.5C6 3.89782 5.84197 4.27936 5.56066 4.56066C5.27936 4.84196 4.89783 5 4.5 5ZM7 8H2C1.73479 8 1.48043 8.10536 1.29289 8.29289C1.10536 8.48043 1 8.73478 1 9C1 9.26522 1.10536 9.51957 1.29289 9.70711C1.48043 9.89464 1.73479 10 2 10H6V24H3V13C3 12.7348 2.89464 12.4804 2.70711 12.2929C2.51957 12.1054 2.26522 12 2 12C1.73479 12 1.48043 12.1054 1.29289 12.2929C1.10536 12.4804 1 12.7348 1 13V25C1 25.2652 1.10536 25.5196 1.29289 25.7071C1.48043 25.8946 1.73479 26 2 26H7C7.26522 26 7.51957 25.8946 7.70711 25.7071C7.89464 25.5196 8 25.2652 8 25V9C8 8.73478 7.89464 8.48043 7.70711 8.29289C7.51957 8.10536 7.26522 8 7 8ZM25.34 9.68C24.7669 9.12225 24.0871 8.68596 23.3414 8.39727C22.5956 8.10859 21.7992 7.97347 21 8H20C18.6113 7.9368 17.2309 8.24396 16 8.89C15.9728 8.64428 15.8556 8.41734 15.6709 8.25299C15.4862 8.08863 15.2472 7.9985 15 8H10C9.73479 8 9.48043 8.10536 9.2929 8.29289C9.10536 8.48043 9 8.73478 9 9V25C9 25.2652 9.10536 25.5196 9.2929 25.7071C9.48043 25.8946 9.73479 26 10 26H15C15.2652 26 15.5196 25.8946 15.7071 25.7071C15.8946 25.5196 16 25.2652 16 25V16C16 15.4696 16.2107 14.9609 16.5858 14.5858C16.9609 14.2107 17.4696 14 18 14C18.5304 14 19.0391 14.2107 19.4142 14.5858C19.7893 14.9609 20 15.4696 20 16V25C20 25.2652 20.1054 25.5196 20.2929 25.7071C20.4804 25.8946 20.7348 26 21 26H26C26.2652 26 26.5196 25.8946 26.7071 25.7071C26.8946 25.5196 27 25.2652 27 25V14C27.0288 13.2052 26.8965 12.4128 26.6113 11.6704C26.326 10.9281 25.8936 10.251 25.34 9.68ZM25 24H22V16C22 14.9391 21.5786 13.9217 20.8284 13.1716C20.0783 12.4214 19.0609 12 18 12C16.9391 12 15.9217 12.4214 15.1716 13.1716C14.4214 13.9217 14 14.9391 14 16V24H11V10H14V11C14.001 11.1974 14.0604 11.3901 14.1707 11.5539C14.2811 11.7176 14.4374 11.845 14.62 11.92C14.8021 11.9966 15.0028 12.0175 15.1968 11.9801C15.3908 11.9428 15.5694 11.8488 15.71 11.71C16.66 10.71 17.41 10 20 10H21C21.5349 9.97702 22.069 10.0617 22.5705 10.2489C23.0721 10.4361 23.531 10.7221 23.92 11.09C24.2848 11.4786 24.5683 11.9362 24.7538 12.436C24.9392 12.9357 25.023 13.4675 25 14V24Z" fill="black"/>
</g>
<defs>
<filter id="filter0_d_7_5" x="0" y="0" width="28.0038" height="28" filterUnits="userSpaceOnUse" color-interpolation-filters="sRGB">
<feFlood flood-opacity="0" result="BackgroundImageFix"/>
<feColorMatrix in="SourceAlpha" type="matrix" values="0 0 0 0 0 0 0 0 0 0 0 0 0 0 0 0 0 0 127 0" result="hardAlpha"/>
<feOffset dy="1"/>
<feGaussianBlur stdDeviation="0.5"/>
<feComposite in2="hardAlpha" operator="out"/>
<feColorMatrix type="matrix" values="0 0 0 0 0 0 0 0 0 0 0 0 0 0 0 0 0 0 0.25 0"/>
<feBlend mode="normal" in2="BackgroundImageFix" result="effect1_dropShadow_7_5"/>
<feBlend mode="normal" in="SourceGraphic" in2="effect1_dropShadow_7_5" result="shape"/>
</filter>
</defs>
</svg>
