<svg xmlns="http://www.w3.org/2000/svg" width="22" height="27" fill="none" xmlns:v="https://vecta.io/nano"><g filter="url(#A)"><path d="M20.638 6.613l-6.25-6.25h0A1.25 1.25 0 0 0 13.5 0H2.25A1.25 1.25 0 0 0 1 1.25v22.5A1.25 1.25 0 0 0 2.25 25h17.5A1.25 1.25 0 0 0 21 23.75V7.5a1.25 1.25 0 0 0-.363-.887h0zM19.75 23.75H2.25V1.25h11.25v5a1.25 1.25 0 0 0 1.25 1.25h5v16.25zM6 5.938A2.05 2.05 0 0 1 7.876 3.75a2.05 2.05 0 0 1 1.875 2.187 2.05 2.05 0 0 1-1.875 2.187A2.05 2.05 0 0 1 6 5.938zM3.5 12.5h15v1.25h-15V12.5zm0 2.5h15v1.25h-15V15zm0 2.5h15v1.25h-15V17.5zm0 2.5H16v1.25H3.5v-1.25zm8.75-8.75H3.5V10a7 7 0 0 1 4.375-1.25A7 7 0 0 1 12.25 10v1.25z" fill="#000"/></g><defs><filter id="A" x="0" y="0" width="22" height="27" filterUnits="userSpaceOnUse" color-interpolation-filters="sRGB"><feFlood flood-opacity="0" result="A"/><feColorMatrix in="SourceAlpha" values="0 0 0 0 0 0 0 0 0 0 0 0 0 0 0 0 0 0 127 0" result="B"/><feOffset dy="1"/><feGaussianBlur stdDeviation=".5"/><feComposite in2="B" operator="out"/><feColorMatrix values="0 0 0 0 0 0 0 0 0 0 0 0 0 0 0 0 0 0 0.25 0"/><feBlend in2="A"/><feBlend in="SourceGraphic"/></filter></defs></svg>