<svg width="29" height="25" viewBox="0 0 29 25" fill="none" xmlns="http://www.w3.org/2000/svg">
<g filter="url(#filter0_d_7_7)">
<path d="M26.7598 3.33226C26.6955 3.25258 26.6176 3.18487 26.5298 3.13226C26.753 2.7021 26.9082 2.23995 26.9898 1.76226C27.0213 1.57086 26.9966 1.37442 26.9184 1.19686C26.8403 1.01931 26.7122 0.868309 26.5498 0.762262C26.3865 0.654734 26.1953 0.597427 25.9998 0.597427C25.8043 0.597427 25.6131 0.654734 25.4498 0.762262C24.7562 1.21295 23.982 1.52534 23.1698 1.68226C22.2366 0.806277 21.0555 0.240042 19.7882 0.0610376C18.5208 -0.117967 17.2291 0.0990046 16.0898 0.682262C14.9005 1.30482 13.9512 2.30402 13.3903 3.52356C12.8294 4.74309 12.6885 6.11416 12.9898 7.42226C13.0428 7.68748 13.1991 7.92076 13.4241 8.07079C13.6492 8.22082 13.9246 8.27531 14.1898 8.22226C14.455 8.16922 14.6883 8.01299 14.8383 7.78795C14.9884 7.5629 15.0428 7.28748 14.9898 7.02226C14.7827 6.15381 14.8662 5.24139 15.2274 4.42494C15.5887 3.60848 16.2078 2.93307 16.9898 2.50226C17.8326 2.07444 18.7942 1.94048 19.7218 2.12165C20.6494 2.30283 21.4899 2.78876 22.1098 3.50226C22.2232 3.61623 22.3623 3.70118 22.5155 3.74993C22.6687 3.79867 22.8314 3.80976 22.9898 3.78226H23.2398C23.1264 3.89972 23.0434 4.04316 22.9982 4.20007C22.953 4.35698 22.9469 4.52257 22.9804 4.68238C23.0139 4.84219 23.0861 4.99136 23.1906 5.11685C23.2951 5.24234 23.4287 5.34033 23.5798 5.40226C23.4515 5.50754 23.3514 5.64311 23.2885 5.79674C23.2257 5.95037 23.2021 6.11723 23.2198 6.28226C23.3857 8.41279 23.0267 10.5515 22.1742 12.5111C21.3216 14.4706 20.0017 16.1913 18.3298 17.5223C16.615 18.9937 14.5401 19.9829 12.3173 20.3888C10.0946 20.7947 7.80391 20.6026 5.67979 19.8323C7.36874 19.5493 8.9429 18.7934 10.2198 17.6523C10.3486 17.5051 10.4315 17.3235 10.4582 17.1297C10.4848 16.936 10.4541 16.7387 10.3698 16.5623C10.2866 16.3874 10.1544 16.2405 9.98935 16.1393C9.82426 16.0381 9.63335 15.987 9.43979 15.9923C8.86956 15.9878 8.30687 15.8615 7.78945 15.6217C7.27204 15.382 6.81187 15.0344 6.43979 14.6023C6.78845 14.5351 7.12537 14.4172 7.43979 14.2523C7.62781 14.1598 7.78205 14.0107 7.88074 13.8259C7.97942 13.6411 8.01757 13.4299 7.98979 13.2223C7.96291 13.0218 7.87589 12.8342 7.7402 12.6843C7.60452 12.5343 7.42656 12.429 7.22979 12.3823C6.57363 12.2253 5.96211 11.9201 5.44211 11.4903C4.9221 11.0604 4.5074 10.5172 4.22979 9.90226C4.46979 9.90226 4.70979 9.95226 4.96979 9.96226C5.18061 9.97788 5.39096 9.92629 5.57063 9.8149C5.7503 9.70351 5.89004 9.53804 5.96979 9.34226C6.04124 9.14655 6.04976 8.93341 5.99418 8.73261C5.93861 8.53181 5.8217 8.35339 5.65979 8.22226C3.98979 6.70226 3.57979 5.07226 3.81979 3.92226C5.70597 5.91882 8.14209 7.31089 10.8198 7.92226C10.9511 7.94721 11.0861 7.94605 11.2169 7.91885C11.3478 7.89165 11.472 7.83893 11.5826 7.76372C11.6931 7.6885 11.7877 7.59226 11.861 7.48048C11.9343 7.36871 11.9848 7.24358 12.0098 7.11226C12.0347 6.98094 12.0336 6.84599 12.0064 6.71512C11.9792 6.58424 11.9265 6.46001 11.8513 6.3495C11.776 6.239 11.6798 6.1444 11.568 6.07109C11.4562 5.99779 11.3311 5.94721 11.1998 5.92226C8.48911 5.28712 6.08038 3.73663 4.37979 1.53226C4.28986 1.41827 4.17619 1.32523 4.04667 1.25961C3.91715 1.19399 3.7749 1.15736 3.62979 1.15226C3.48355 1.14684 3.33791 1.17359 3.20313 1.23061C3.06836 1.28763 2.94774 1.37353 2.84979 1.48226C2.20214 2.33583 1.82624 3.36449 1.77095 4.43453C1.71567 5.50457 1.98356 6.56649 2.53979 7.48226H2.44979C2.30197 7.56263 2.17682 7.67899 2.08593 7.82058C1.99503 7.96217 1.94133 8.1244 1.92979 8.29226C1.91348 9.13385 2.07929 9.96902 2.41587 10.7406C2.75244 11.5121 3.25182 12.2017 3.87979 12.7623C3.76318 12.8977 3.68498 13.0618 3.65332 13.2377C3.62167 13.4136 3.63771 13.5947 3.69979 13.7623C4.27892 15.3063 5.41269 16.5792 6.87979 17.3323C5.31656 17.9205 3.66005 18.222 1.98979 18.2223C1.77156 18.2245 1.56004 18.2981 1.38752 18.4317C1.215 18.5654 1.09094 18.7518 1.03428 18.9626C0.977627 19.1734 0.991477 19.3969 1.07372 19.599C1.15597 19.8012 1.30209 19.9709 1.48979 20.0823C4.05018 21.6559 6.98503 22.5156 9.98979 22.5723C13.5071 22.532 16.9009 21.2699 19.5898 19.0023C21.4464 17.5239 22.929 15.6292 23.9175 13.4715C24.906 11.3139 25.3727 8.95378 25.2798 6.58226C26.0374 6.0158 26.6029 5.23043 26.8998 4.33226C26.9673 4.16815 26.9899 3.98903 26.9653 3.81329C26.9407 3.63756 26.8698 3.47153 26.7598 3.33226V3.33226Z" fill="black"/>
</g>
<defs>
<filter id="filter0_d_7_7" x="0" y="0" width="28.0031" height="24.5723" filterUnits="userSpaceOnUse" color-interpolation-filters="sRGB">
<feFlood flood-opacity="0" result="BackgroundImageFix"/>
<feColorMatrix in="SourceAlpha" type="matrix" values="0 0 0 0 0 0 0 0 0 0 0 0 0 0 0 0 0 0 127 0" result="hardAlpha"/>
<feOffset dy="1"/>
<feGaussianBlur stdDeviation="0.5"/>
<feComposite in2="hardAlpha" operator="out"/>
<feColorMatrix type="matrix" values="0 0 0 0 0 0 0 0 0 0 0 0 0 0 0 0 0 0 0.25 0"/>
<feBlend mode="normal" in2="BackgroundImageFix" result="effect1_dropShadow_7_7"/>
<feBlend mode="normal" in="SourceGraphic" in2="effect1_dropShadow_7_7" result="shape"/>
</filter>
</defs>
</svg>
