<svg xmlns="http://www.w3.org/2000/svg" width="256" height="346" preserveAspectRatio="xMidYMid" xmlns:v="https://vecta.io/nano"><path d="M82.554 267.473s-13.198 7.675 9.393 10.273c27.369 3.122 41.357 2.675 71.517-3.034 0 0 7.929 4.972 19.004 9.278-67.612 28.977-153.019-1.678-99.914-16.517m-8.262-37.814s-14.803 10.958 7.805 13.296c29.236 3.016 52.325 3.263 92.276-4.43 0 0 5.526 5.602 14.215 8.666-81.747 23.904-172.798 1.885-114.296-17.532" fill="#5382a1"/><path d="M143.942 165.515c16.66 19.18-4.377 36.44-4.377 36.44s42.301-21.837 22.874-49.183c-18.144-25.501-32.059-38.172 43.268-81.859 0 0-118.238 29.53-61.765 94.601" fill="#e76f00"/><g fill="#5382a1"><path d="M233.364 295.442s9.767 8.048-10.757 14.274c-39.027 11.823-162.432 15.393-196.714.471-12.323-5.361 10.786-12.801 18.056-14.362 7.581-1.644 11.914-1.338 11.914-1.338-13.705-9.654-88.583 18.957-38.034 27.151 137.853 22.356 251.292-10.067 215.535-26.196M88.901 190.48s-62.772 14.909-22.229 20.324c17.118 2.292 51.244 1.773 83.031-.89 25.978-2.191 52.063-6.851 52.063-6.851s-9.16 3.923-15.787 8.448c-63.744 16.765-186.886 8.966-151.435-8.183 29.981-14.492 54.358-12.848 54.358-12.848"/><path d="M201.506 253.422c64.799-33.672 34.838-66.03 13.926-61.671-5.126 1.067-7.411 1.991-7.411 1.991s1.903-2.981 5.537-4.271c41.371-14.545 73.187 42.897-13.355 65.648 0 .001 1.003-.896 1.302-1.697"/></g><path d="M162.439.371s35.887 35.899-34.037 91.101c-56.071 44.281-12.786 69.53-.023 98.377-32.73-29.53-56.749-55.526-40.635-79.72C111.395 74.613 176.918 57.394 162.439.371" fill="#e76f00"/><path d="M95.268 344.665c62.199 3.981 157.712-2.209 159.974-31.64 0 0-4.348 11.157-51.404 20.017-53.088 9.991-118.564 8.824-157.399 2.421.001-.001 7.95 6.58 48.829 9.201" fill="#5382a1"/></svg>