<svg xmlns="http://www.w3.org/2000/svg" xmlns:xlink="http://www.w3.org/1999/xlink" viewBox="0 0 24 24" width="2500" height="2500" xmlns:v="https://vecta.io/nano"><linearGradient id="A" gradientUnits="userSpaceOnUse" x1="-4.284" x2="18.05" y1="21.933" y2="-.401"><stop offset="0" stop-color="#c757bc"/><stop offset=".108" stop-color="#c757bc"/><stop offset=".173" stop-color="#cd5ca9"/><stop offset=".492" stop-color="#e8744f"/><stop offset=".716" stop-color="#f88316"/><stop offset=".823" stop-color="#ff8900"/></linearGradient><linearGradient id="B" gradientUnits="userSpaceOnUse"><stop offset="0" stop-color="#00afff"/><stop offset=".296" stop-color="#00afff"/><stop offset=".694" stop-color="#5282ff"/><stop offset="1" stop-color="#945dff"/></linearGradient><linearGradient id="C" x1="7.753" x2="18.639" xlink:href="#B" y1="28.323" y2="17.437"/><linearGradient id="D" x1="-.253" x2="7.383" xlink:href="#B" y1="6.633" y2="-1.004"/><linearGradient id="E" gradientUnits="userSpaceOnUse" x1="-4.15" x2="18.184" y1="22.067" y2="-.267"><stop offset="0" stop-color="#ad4ca4"/><stop offset=".108" stop-color="#ad4ca4"/><stop offset=".173" stop-color="#b25093"/><stop offset=".492" stop-color="#ca6545"/><stop offset=".716" stop-color="#d87213"/><stop offset=".823" stop-color="#de7700"/></linearGradient><linearGradient id="F" gradientUnits="userSpaceOnUse"><stop offset="0" stop-color="#0098de"/><stop offset=".296" stop-color="#0098de"/><stop offset=".694" stop-color="#4771de"/><stop offset="1" stop-color="#8151de"/></linearGradient><linearGradient id="G" x1="7.753" x2="18.639" xlink:href="#F" y1="28.323" y2="17.437"/><linearGradient id="H" x1="2.748" x2="10.384" xlink:href="#F" y1="9.634" y2="1.997"/><path d="M24 0H12.05L.639 12h11.34l.053-.054z" fill="url(#A)"/><path d="M24 24H0zM12.032 11.946l-.053.054h.107z" fill="url(#C)"/><path d="M12.05 0H0v12.672V12h.639z" fill="url(#D)"/><path d="M11.979 12H.639L0 12.672V24z" fill="url(#E)"/><path d="M12.086 12h-.107L0 24h24z" fill="url(#G)"/><path d="M.639 12H0v.672z" fill="url(#H)"/></svg>