<svg xmlns="http://www.w3.org/2000/svg" width="256" height="252" preserveAspectRatio="xMidYMid" fill="#00546b" xmlns:v="https://vecta.io/nano"><path d="M235.648 194.212c-13.918-.347-24.705 1.046-33.753 4.872-2.61 1.043-6.786 1.045-7.134 4.349 1.393 1.393 1.566 3.654 2.784 5.568 2.089 3.478 5.741 8.177 9.047 10.613 3.653 2.783 7.307 5.566 11.134 8.003 6.786 4.176 14.441 6.611 21.052 10.787 3.829 2.434 7.654 5.568 11.482 8.177 1.914 1.391 3.131 3.653 5.568 4.523v-.522c-1.218-1.566-1.566-3.828-2.783-5.568-1.739-1.74-3.48-3.306-5.219-5.046-5.046-6.785-11.309-12.7-18.094-17.572-5.566-3.828-17.746-9.047-20.008-15.485l-.348-.347c3.828-.348 8.351-1.74 12.005-2.784 5.916-1.566 11.309-1.218 17.398-2.783 2.783-.696 5.568-1.566 8.351-2.436v-1.565c-3.13-3.133-5.393-7.307-8.699-10.265-8.873-7.657-18.616-15.137-28.707-21.399-5.394-3.48-12.353-5.742-18.094-8.699-2.087-1.046-5.568-1.566-6.785-3.306-3.133-3.828-4.872-8.873-7.134-13.397-5.044-9.57-9.917-20.181-14.267-30.272-3.13-6.786-5.045-13.571-8.873-19.834-17.92-29.577-37.406-47.496-67.331-65.069-6.437-3.653-14.092-5.219-22.269-7.133l-13.049-.696c-2.783-1.218-5.568-4.523-8.004-6.089C34.006 4.573 8.429-8.996 1.122 8.924c-4.698 11.309 6.959 22.443 10.96 28.185 2.959 4.001 6.786 8.524 8.874 13.049 1.218 2.956 1.565 6.089 2.783 9.221 2.784 7.653 5.393 16.18 9.047 23.314 1.914 3.653 4.001 7.481 6.437 10.786 1.392 1.913 3.827 2.784 4.349 5.916-2.435 3.48-2.61 8.699-4.002 13.049-6.263 19.66-3.827 44.017 5.046 58.457 2.783 4.348 9.395 13.92 18.268 10.265 7.829-3.131 6.089-13.049 8.351-21.748.523-2.089.175-3.48 1.218-4.871v.348l7.133 14.44c5.394 8.524 14.788 17.398 22.617 23.314 4.177 3.13 7.482 8.524 12.701 10.439v-.523h-.348c-1.045-1.566-2.61-2.262-4.001-3.48-3.131-3.131-6.612-6.959-9.047-10.439-7.306-9.744-13.745-20.529-19.486-31.665-2.783-5.393-5.219-11.309-7.481-16.702-1.045-2.089-1.045-5.219-2.784-6.263-2.61 3.827-6.436 7.133-8.351 11.83-3.304 7.481-3.653 16.702-4.871 26.271-.695.175-.348 0-.696.348-5.566-1.393-7.481-7.133-9.569-12.005-5.219-12.352-6.089-32.186-1.565-46.452 1.218-3.654 6.437-15.137 4.35-18.616-1.043-3.306-4.524-5.219-6.437-7.829-2.262-3.306-4.698-7.481-6.263-11.135-4.176-9.742-6.264-20.529-10.787-30.273-2.088-4.524-5.741-9.221-8.699-13.396-3.305-4.698-6.959-8.004-9.569-13.571-.869-1.913-2.088-5.045-.696-7.133.348-1.392 1.043-1.913 2.436-2.262 2.262-1.914 8.699.522 10.96 1.565 6.437 2.609 11.83 5.046 17.224 8.699 2.435 1.74 5.045 5.046 8.176 5.916h3.654c5.568 1.217 11.83.348 17.05 1.913 9.222 2.957 17.572 7.307 25.054 12.005 22.792 14.44 41.581 34.971 54.282 59.501 2.088 4 2.957 7.656 4.871 11.83 3.654 8.525 8.177 17.224 11.83 25.575 3.653 8.176 7.133 16.528 12.352 23.314 2.611 3.652 13.049 5.566 17.746 7.481 3.48 1.565 8.874 2.958 12.005 4.871 5.915 3.652 11.83 7.829 17.398 11.83 2.784 2.087 11.482 6.437 12.005 9.916h0 0zM58.186 43.022c-2.958 0-5.045.349-7.133.871 0-.001 0 .175 0 .348h.348c1.393 2.783 3.827 4.698 5.566 7.133l4.002 8.352.347-.348c2.437-1.741 3.654-4.524 3.654-8.699-1.045-1.218-1.218-2.436-2.088-3.654-1.043-1.741-3.306-2.61-4.698-4.002h0 0z"/></svg>