<svg xmlns="http://www.w3.org/2000/svg" width="256" height="264" preserveAspectRatio="xMidYMid" xmlns:v="https://vecta.io/nano"><path d="M255.008 158.086c-1.535-4.648-5.556-7.886-10.756-8.664-2.452-.366-5.26-.21-8.583.475-5.792 1.195-10.089 1.65-13.224 1.738 11.836-19.985 21.461-42.776 27.002-64.229 8.959-34.688 4.172-50.491-1.423-57.64C233.217 10.848 211.614.683 185.552.372c-13.902-.17-26.108 2.575-32.474 4.549-5.928-1.045-12.303-1.629-18.991-1.738-12.536-.2-23.613 2.533-33.078 8.149-5.241-1.771-13.65-4.269-23.362-5.864-22.843-3.75-41.252-.828-54.718 8.685C6.622 25.672-.937 45.684.461 73.634c.443 8.874 5.408 35.874 13.224 61.48 4.492 14.717 9.282 26.94 14.237 36.33 7.027 13.315 14.545 21.156 22.986 23.972 4.732 1.577 13.327 2.68 22.369-4.849 1.146 1.387 2.674 2.766 4.704 4.047 2.577 1.625 5.728 2.953 8.874 3.74 11.341 2.836 21.965 2.126 31.027-1.848l.135 4.481.199 6.25c.537 13.375 1.447 23.774 4.143 31.049.148.401.347 1.01.558 1.657 1.344 4.118 3.594 11.012 9.315 16.412 5.926 5.592 13.093 7.308 19.656 7.308 3.292 0 6.433-.432 9.188-1.022 9.821-2.104 20.974-5.311 29.042-16.798 7.627-10.86 11.336-27.217 12.007-52.991l.245-2.088.159-1.362 1.797.158.463.031c10.002.456 22.232-1.665 29.743-5.154 5.935-2.755 24.954-12.795 20.476-26.351"/><path d="M237.906 160.722c-29.74 6.135-31.784-3.935-31.784-3.935 31.4-46.593 44.527-105.736 33.199-120.211-30.903-39.485-84.398-20.811-85.291-20.326l-.287.051c-5.876-1.22-12.451-1.946-19.841-2.067-13.457-.221-23.664 3.528-31.41 9.402 0 0-95.43-39.313-90.992 49.444.944 18.883 27.064 142.873 58.218 105.422 11.387-13.695 22.389-25.274 22.389-25.274 5.465 3.63 12.007 5.482 18.865 4.817l.533-.452c-.166 1.7-.09 3.363.213 5.332-8.026 8.967-5.667 10.542-21.712 13.844-16.234 3.346-6.697 9.302-.471 10.859 7.549 1.888 25.013 4.562 36.813-11.957l-.471 1.885c3.145 2.519 5.353 16.383 4.983 28.952s-.617 21.198 1.861 27.938 4.947 21.905 26.039 17.386c17.624-3.777 26.756-13.564 28.027-29.889.902-11.606 2.942-9.891 3.071-20.267l1.637-4.912c1.887-15.733.3-20.809 11.158-18.448l2.639.232c7.992.364 18.451-1.285 24.59-4.139 13.219-6.135 21.058-16.377 8.025-13.686h.001" fill="#336791"/><path d="M108.076 81.525c-2.679-.373-5.107-.028-6.335.902-.691.523-.905 1.129-.962 1.547-.154 1.105.62 2.326 1.096 2.957 1.346 1.784 3.312 3.01 5.258 3.28a6.13 6.13 0 0 0 .841.058c3.246 0 6.196-2.527 6.456-4.392.325-2.336-3.066-3.893-6.354-4.351m88.784.073h-.001c-.255-1.831-3.514-2.353-6.606-1.923s-6.082 1.824-5.832 3.659c.201 1.427 2.777 3.864 5.828 3.863a5.62 5.62 0 0 0 .779-.054c2.036-.282 3.53-1.575 4.24-2.321 1.081-1.135 1.706-2.402 1.592-3.225m50.942 78.427c-1.134-3.429-4.784-4.533-10.848-3.28-18.005 3.716-24.453 1.142-26.571-.417 13.995-21.321 25.508-47.092 31.719-71.137 2.943-11.39 4.568-21.968 4.7-30.589.147-9.464-1.464-16.418-4.789-20.666-13.402-17.125-33.072-26.311-56.882-26.564-16.369-.184-30.199 4.006-32.88 5.183-5.646-1.404-11.801-2.266-18.502-2.376-12.289-.199-22.91 2.743-31.704 8.739a141.59 141.59 0 0 0-25.764-6.755c-20.873-3.361-37.458-.815-49.294 7.571-14.123 10.007-20.643 27.893-19.38 53.16.425 8.502 5.268 34.653 12.913 59.699 10.062 32.964 20.999 51.625 32.508 55.463 1.347.449 2.901.764 4.613.764 4.198 0 9.345-1.893 14.7-8.33 8.895-10.701 17.2-19.668 20.261-22.926 4.524 2.429 9.493 3.784 14.577 3.92.009.133.022.266.034.398a117.66 117.66 0 0 0-2.569 3.175c-3.522 4.471-4.255 5.401-15.592 7.736-3.225.665-11.791 2.431-11.916 8.434-.137 6.56 10.124 9.315 11.294 9.607 4.074 1.02 7.999 1.523 11.742 1.523 9.104-.001 17.114-2.992 23.517-8.781-.197 23.386.778 46.43 3.586 53.451 2.299 5.747 7.918 19.795 25.664 19.794 2.603 0 5.47-.303 8.623-.978 18.521-3.971 26.563-12.157 29.675-30.203 1.665-9.645 4.522-32.676 5.866-45.03 2.836.884 6.488 1.289 10.435 1.289 8.232 0 17.731-1.749 23.688-4.514 6.691-3.107 18.768-10.734 16.578-17.36h0zm-44.106-83.481c-.061 3.647-.563 6.958-1.096 10.414-.572 3.717-1.165 7.56-1.314 12.225-.147 4.54.42 9.26.968 13.825 1.108 9.22 2.245 18.712-2.157 28.078a36.51 36.51 0 0 1-1.95-4.008c-.547-1.326-1.735-3.456-3.379-6.405-6.399-11.476-21.385-38.349-13.713-49.315 2.284-3.265 8.083-6.62 22.64-4.814h0zm-17.644-61.786c21.334.471 38.209 8.452 50.158 23.72 9.164 11.711-.927 64.998-30.14 110.969l-.886-1.116-.37-.462c7.549-12.467 6.072-24.802 4.759-35.738-.54-4.488-1.049-8.727-.92-12.708.134-4.221.692-7.84 1.232-11.34.664-4.314 1.339-8.776 1.152-14.037.139-.552.195-1.204.122-1.978-.475-5.046-6.235-20.144-17.976-33.811-6.421-7.474-15.787-15.839-28.574-21.482 5.5-1.14 13.022-2.203 21.443-2.015h0zM66.674 175.778c-5.9 7.094-9.975 5.734-11.314 5.288-8.731-2.912-18.86-21.364-27.791-50.624-7.728-25.318-12.244-50.777-12.601-57.916-1.129-22.578 4.344-38.313 16.268-46.769 19.404-13.761 51.306-5.524 64.125-1.347l-.559.536c-21.036 21.245-20.537 57.542-20.485 59.76-.002.856.07 2.068.168 3.735.362 6.104 1.035 17.467-.764 30.334-1.673 11.957 2.013 23.66 10.111 32.109a36.12 36.12 0 0 0 2.617 2.468 539.53 539.53 0 0 0-19.775 22.426h0zm22.479-29.993c-6.527-6.809-9.49-16.281-8.133-25.989 1.9-13.593 1.198-25.431.822-31.791l-.127-2.285c3.073-2.724 17.314-10.355 27.469-8.028 4.635 1.062 7.458 4.217 8.632 9.646 6.077 28.103.805 39.816-3.431 49.228-.873 1.939-1.698 3.772-2.403 5.669l-.546 1.466c-1.382 3.706-2.668 7.152-3.465 10.424-6.937-.021-13.687-2.984-18.819-8.34h0zm1.065 37.9c-2.026-.506-3.848-1.385-4.917-2.114.893-.42 2.482-.991 5.238-1.559 13.337-2.746 15.397-4.684 19.895-10.395 1.032-1.309 2.201-2.794 3.819-4.601 2.413-2.702 3.516-2.244 5.516-1.415 1.621.671 3.2 2.702 3.84 4.938.303 1.056.643 3.061-.47 4.62-9.396 13.156-23.088 12.987-32.921 10.526h0zm69.799 64.952c-16.316 3.496-22.093-4.829-25.9-14.346-2.457-6.145-3.664-33.851-2.808-64.448.011-.407-.047-.801-.159-1.17-.098-.714-.248-1.435-.456-2.162-1.275-4.452-4.379-8.176-8.104-9.72-1.48-.613-4.197-1.738-7.461-.903.696-2.868 1.904-6.106 3.212-9.613l.549-1.476c.618-1.663 1.394-3.386 2.214-5.209 4.433-9.849 10.504-23.337 3.915-53.811-2.468-11.414-10.71-16.987-23.204-15.693-7.491.775-14.343 3.797-17.761 5.53a57.17 57.17 0 0 0-2.035 1.083c.954-11.5 4.558-32.992 18.041-46.59 8.488-8.561 19.794-12.789 33.568-12.561 27.14.445 44.544 14.373 54.366 25.979 8.463 10.002 13.047 20.076 14.876 25.51-13.755-1.398-23.11 1.317-27.853 8.097-10.317 14.747 5.644 43.372 13.316 57.129 1.407 2.522 2.621 4.7 3.003 5.626 2.498 6.054 5.732 10.096 8.093 13.047.724.904 1.426 1.781 1.96 2.546-4.166 1.201-11.649 3.976-10.967 17.847-.55 6.96-4.461 39.546-6.448 51.059-2.623 15.21-8.22 20.876-23.958 24.25h0zm68.104-77.937c-4.26 1.978-11.389 3.461-18.161 3.779-7.48.351-11.288-.838-12.183-1.569-.421-8.644 2.797-9.547 6.202-10.503.535-.151 1.057-.297 1.561-.473a12.72 12.72 0 0 0 1.032.756c6.012 3.968 16.736 4.396 31.874 1.272l.166-.034c-2.041 1.909-5.536 4.471-10.49 6.772h0z" fill="#fff"/></svg>