<svg xmlns="http://www.w3.org/2000/svg" width="32" height="32" fill="none" xmlns:v="https://vecta.io/nano"><g clip-path="url(#C)"><path d="M15.863.009c-8.103 0-7.597 3.528-7.597 3.528l.009 3.655h7.733V8.29H5.203S.018 7.699.018 15.908s4.526 7.918 4.526 7.918h2.701v-3.809s-.146-4.544 4.454-4.544h7.67s4.309.07 4.309-4.181V4.263S24.332.009 15.863.009zm-4.264 2.458a1.39 1.39 0 0 1 .984.409 1.4 1.4 0 0 1 0 1.975 1.39 1.39 0 0 1-1.967 0 1.4 1.4 0 0 1 0-1.975 1.39 1.39 0 0 1 .984-.409h0z" fill="url(#A)"/><path d="M16.093 31.89c8.103 0 7.597-3.528 7.597-3.528l-.009-3.655h-7.733V23.61h10.804s5.185.59 5.185-7.619-4.526-7.918-4.526-7.918h-2.701v3.809s.146 4.544-4.453 4.544h-7.67s-4.309-.07-4.309 4.181v7.029s-.654 4.254 7.814 4.254h0zm4.264-2.458a1.39 1.39 0 0 1-.984-.409 1.4 1.4 0 0 1 0-1.975 1.39 1.39 0 0 1 1.967 0 1.4 1.4 0 0 1 0 1.975 1.39 1.39 0 0 1-.984.409h0z" fill="url(#B)"/></g><defs><linearGradient id="A" x1="3.086" y1="2.877" x2="18.967" y2="18.537" gradientUnits="userSpaceOnUse"><stop stop-color="#387eb8"/><stop offset="1" stop-color="#366994"/></linearGradient><linearGradient id="B" x1="12.795" y1="12.973" x2="29.846" y2="29.028" gradientUnits="userSpaceOnUse"><stop stop-color="#ffe052"/><stop offset="1" stop-color="#ffc331"/></linearGradient><clipPath id="C"><path fill="#fff" d="M0 0h32v32H0z"/></clipPath></defs></svg>