<svg xmlns="http://www.w3.org/2000/svg" width="37" height="37" fill="none" xmlns:v="https://vecta.io/nano"><g clip-path="url(#A)"><path d="M33.647 1.945c-.518 1.242-1.182 2.419-1.977 3.506-1.735-1.743-3.8-3.123-6.073-4.06S20.886-.023 18.427-.01s-4.891.514-7.155 1.475-4.314 2.363-6.031 4.123-3.067 3.845-3.972 6.131-1.345 4.731-1.297 7.189.585 4.883 1.579 7.133 2.425 4.279 4.21 5.971l.686.605c2.617 2.205 5.792 3.643 9.175 4.155s6.842.078 9.994-1.253 5.874-3.509 7.865-6.292 3.173-6.062 3.417-9.474c.506-4.723-.881-10.701-3.249-17.806l-.001-.001zM8.4 32.12c-.197.244-.463.424-.763.517s-.62.095-.921.006-.569-.266-.769-.507-.325-.537-.358-.849.028-.627.174-.905.372-.506.648-.655.59-.214.902-.185.609.15.853.348c.326.265.534.648.578 1.067s-.08.836-.345 1.163h0zm25.17-5.556c-4.579 6.099-14.355 4.041-20.623 4.337 0 0-1.111.065-2.23.249 0 0 .422-.179.961-.383 4.402-1.532 6.483-1.827 9.156-3.203 5.034-2.559 10.014-8.164 11.049-13.991-1.915 5.605-7.731 10.425-13.025 12.382-3.628 1.337-10.183 2.64-10.183 2.64l-.264-.142c-4.46-2.168-4.597-11.827 3.513-14.942 3.551-1.368 6.949-.617 10.784-1.532 4.095-.973 8.834-4.041 10.762-8.045 2.156 6.406 4.755 16.432.096 22.634l.003-.004z" fill="#68bd45"/></g><defs><clipPath id="A"><path fill="#fff" d="M0 0h37v37H0z"/></clipPath></defs></svg>