<svg xmlns="http://www.w3.org/2000/svg" width="35" height="35" fill="none" xmlns:v="https://vecta.io/nano"><g clip-path="url(#A)"><path d="M0 17.5V0H35V35H0" fill="#007acc"/><path d="M7.674 17.561v1.426h4.55v12.95h3.229v-12.95h4.55v-1.4l-.035-1.444c0-.026-2.774-.035-6.143-.035l-6.125.026v1.435l-.026-.009h0zM28.123 16.1c.893.21 1.575.612 2.188 1.251.324.35.805.963.84 1.12 0 .053-1.514 1.076-2.432 1.645-.035.026-.175-.122-.315-.35-.455-.648-.919-.928-1.645-.98-1.05-.07-1.75.481-1.75 1.4 0 .28.052.438.157.665.236.481.674.77 2.03 1.365 2.503 1.076 3.587 1.785 4.244 2.8.744 1.137.91 2.922.411 4.261-.56 1.461-1.925 2.45-3.876 2.774-.613.105-2.012.088-2.669-.026-1.4-.263-2.739-.963-3.561-1.864-.324-.35-.945-1.286-.91-1.348l.332-.21 1.313-.761.989-.578.227.306c.289.455.936 1.067 1.313 1.277 1.137.586 2.66.508 3.413-.175a1.31 1.31 0 0 0 .464-1.05c0-.402-.061-.586-.262-.892-.28-.385-.84-.7-2.415-1.4-1.811-.77-2.581-1.26-3.299-2.012-.411-.455-.787-1.164-.962-1.75-.131-.508-.175-1.75-.053-2.249.376-1.75 1.698-2.975 3.588-3.325.613-.122 2.056-.07 2.66.088l-.018.018h0z" fill="#fff"/></g><defs><clipPath id="A"><path fill="#fff" d="M0 0h35v35H0z"/></clipPath></defs></svg>