<svg width="28" height="28" viewBox="0 0 28 28" fill="none" xmlns="http://www.w3.org/2000/svg">
<g filter="url(#filter0_d_8_9)">
<path d="M20.1835 15.8773C20.1835 17.0113 20.5062 17.4636 21.3499 17.4636C23.2305 17.4636 24.4279 15.0673 24.4279 11.0821C24.4279 4.99095 19.9891 2.07495 14.4474 2.07495C8.7463 2.07495 3.56095 5.89815 3.56095 13.1233C3.56095 20.0245 8.09695 23.7829 15.063 23.7829C17.4282 23.7829 19.0158 23.5237 21.4444 22.7137L21.9655 24.8832C19.5679 25.6621 17.0056 25.8876 15.0306 25.8876C5.89375 25.8876 1 20.8656 1 13.122C1 5.3136 6.67135 0 14.4798 0C22.6122 0 26.92 4.86 26.92 10.8216C26.92 15.876 25.3338 19.7316 20.3442 19.7316C18.0748 19.7316 16.5858 18.8244 16.3914 16.8142C15.8082 19.0498 14.253 19.7316 12.1456 19.7316C9.3268 19.7316 6.9616 17.5594 6.9616 13.1868C6.9616 8.7804 9.03655 6.0588 12.7626 6.0588C14.739 6.0588 15.9702 6.8364 16.5183 8.0676L17.4592 6.3504H20.1808V15.8773H20.1835V15.8773ZM16.1997 11.6005C16.1997 9.8199 14.8699 9.07335 13.7683 9.07335C12.5695 9.07335 11.2425 10.044 11.2425 12.8965C11.2425 15.1645 12.2469 16.4281 13.7683 16.4281C14.8375 16.4281 16.1997 15.7477 16.1997 13.8685V11.6005Z" fill="black"/>
</g>
<defs>
<filter id="filter0_d_8_9" x="0" y="0" width="27.92" height="27.8876" filterUnits="userSpaceOnUse" color-interpolation-filters="sRGB">
<feFlood flood-opacity="0" result="BackgroundImageFix"/>
<feColorMatrix in="SourceAlpha" type="matrix" values="0 0 0 0 0 0 0 0 0 0 0 0 0 0 0 0 0 0 127 0" result="hardAlpha"/>
<feOffset dy="1"/>
<feGaussianBlur stdDeviation="0.5"/>
<feComposite in2="hardAlpha" operator="out"/>
<feColorMatrix type="matrix" values="0 0 0 0 0 0 0 0 0 0 0 0 0 0 0 0 0 0 0.25 0"/>
<feBlend mode="normal" in2="BackgroundImageFix" result="effect1_dropShadow_8_9"/>
<feBlend mode="normal" in="SourceGraphic" in2="effect1_dropShadow_8_9" result="shape"/>
</filter>
</defs>
</svg>
