<svg xmlns="http://www.w3.org/2000/svg" width="29" height="39" fill="none" xmlns:v="https://vecta.io/nano"><g clip-path="url(#A)"><path d="M9.352 30.149s-1.495.865 1.064 1.158c3.1.352 4.685.302 8.101-.342a14.12 14.12 0 0 0 2.153 1.046c-7.659 3.266-17.334-.189-11.318-1.862m-.936-4.262s-1.677 1.235.884 1.499c3.312.34 5.927.368 10.453-.499 0 0 .626.631 1.61.977-9.26 2.694-19.575.212-12.948-1.976" fill="#5382a1"/><path d="M16.306 18.656c1.887 2.162-.496 4.107-.496 4.107s4.792-2.461 2.591-5.544c-2.055-2.874-3.632-4.303 4.901-9.227 0 0-13.394 3.329-6.997 10.663" fill="#e76f00"/><g fill="#5382a1"><path d="M26.436 33.301s1.106.907-1.219 1.609c-4.421 1.333-18.4 1.735-22.284.053-1.396-.604 1.222-1.443 2.045-1.619.859-.185 1.35-.151 1.35-.151-1.553-1.088-10.035 2.137-4.309 3.06 15.616 2.52 28.467-1.135 24.416-2.953M10.071 21.47s-7.111 1.68-2.518 2.291c1.939.258 5.805.2 9.406-.1 2.943-.247 5.898-.772 5.898-.772s-1.038.442-1.788.952c-7.221 1.89-21.171 1.011-17.155-.922 3.396-1.634 6.158-1.448 6.158-1.448"/><path d="M22.827 28.565c7.341-3.795 3.947-7.443 1.578-6.951-.581.12-.839.224-.839.224s.216-.336.627-.481c4.687-1.64 8.291 4.835-1.513 7.4 0 0 .114-.101.147-.191"/></g><path d="M18.401.042s4.065 4.046-3.856 10.269c-6.352 4.991-1.448 7.837-.003 11.089-3.708-3.329-6.429-6.259-4.603-8.986C12.619 8.41 20.042 6.469 18.401.042z" fill="#e76f00"/><path d="M10.792 38.85c7.046.449 17.866-.249 18.122-3.566 0 0-.492 1.258-5.823 2.256-6.014 1.126-13.431.995-17.83.273 0 0 .901.742 5.531 1.037" fill="#5382a1"/></g><defs><clipPath id="A"><path fill="#fff" d="M0 0h29v39H0z"/></clipPath></defs></svg>