<svg xmlns="http://www.w3.org/2000/svg" width="31" height="35" fill="none" xmlns:v="https://vecta.io/nano"><g clip-path="url(#A)"><path d="M2.876 31.46L-.001.002l31 .012-2.853 31.422-12.671 3.554-12.598-3.53h0zm22.935-1.717L28.218 2.8H15.523l.097 29.717 10.192-2.774h0zM14.338 6.75h-3.083l-.036 16.125-5.985-1.621.012 3.686 9.092 2.437V6.75z" fill="#d4b830"/><path opacity=".986" d="M5.246 24.94l-.012-3.686 5.985 1.621.036-16.113h3.083v20.616L5.246 24.94h0z" fill="#ebebeb" fill-opacity=".922"/><path d="M15.523 2.787h12.695l-2.406 26.943-10.289 2.774V2.787h0zm9.636 22.429l.834-10.074-6.166.684v-5.379l6.577-.024.266-3.674-9.926.048.133 13.376 5.997-1.021-.085 2.978-6.045 1.597.06 3.65 8.354-2.161z" fill="#fdd83c"/></g><defs><clipPath id="A"><path fill="#fff" d="M0 0h31v35H0z"/></clipPath></defs></svg>