<svg xmlns="http://www.w3.org/2000/svg" xmlns:xlink="http://www.w3.org/1999/xlink" width="35" height="35" fill="none" xmlns:v="https://vecta.io/nano"><g clip-path="url(#G)"><path d="M35 0H17.573L.932 17.5h16.538l.077-.079L35 0z" fill="url(#A)"/><path d="M35 35H0h35zM17.547 17.421l-.077.079h.156l-.079-.079z" fill="url(#B)"/><path d="M17.573 0H0v18.48-.98h.932L17.573 0z" fill="url(#C)"/><path d="M17.469 17.5H.932L0 18.48V35l17.469-17.5z" fill="url(#D)"/><path d="M17.625 17.5h-.156L0 35h35L17.625 17.5z" fill="url(#E)"/><path d="M.932 17.5H0v.98l.932-.98z" fill="url(#F)"/></g><defs><linearGradient id="A" x1="-6.247" y1="31.986" x2="26.323" y2="-.585" xlink:href="#H"><stop stop-color="#c757bc"/><stop offset=".108" stop-color="#c757bc"/><stop offset=".173" stop-color="#cd5ca9"/><stop offset=".492" stop-color="#e8744f"/><stop offset=".716" stop-color="#f88316"/><stop offset=".823" stop-color="#ff8900"/></linearGradient><linearGradient id="B" x1="11.307" y1="41.304" x2="27.182" y2="25.429" xlink:href="#H"><stop stop-color="#00afff"/><stop offset=".296" stop-color="#00afff"/><stop offset=".694" stop-color="#5282ff"/><stop offset="1" stop-color="#945dff"/></linearGradient><linearGradient id="C" x1="-.369" y1="9.673" x2="10.767" y2="-1.464" xlink:href="#H"><stop stop-color="#00afff"/><stop offset=".296" stop-color="#00afff"/><stop offset=".694" stop-color="#5282ff"/><stop offset="1" stop-color="#945dff"/></linearGradient><linearGradient id="D" x1="-6.052" y1="32.181" x2="26.518" y2="-.389" xlink:href="#H"><stop stop-color="#ad4ca4"/><stop offset=".108" stop-color="#ad4ca4"/><stop offset=".173" stop-color="#b25093"/><stop offset=".492" stop-color="#ca6545"/><stop offset=".716" stop-color="#d87213"/><stop offset=".823" stop-color="#de7700"/></linearGradient><linearGradient id="E" x1="11.307" y1="41.304" x2="27.182" y2="25.429" xlink:href="#H"><stop stop-color="#0098de"/><stop offset=".296" stop-color="#0098de"/><stop offset=".694" stop-color="#4771de"/><stop offset="1" stop-color="#8151de"/></linearGradient><linearGradient id="F" x1="4.008" y1="14.05" x2="15.143" y2="2.912" xlink:href="#H"><stop stop-color="#0098de"/><stop offset=".296" stop-color="#0098de"/><stop offset=".694" stop-color="#4771de"/><stop offset="1" stop-color="#8151de"/></linearGradient><clipPath id="G"><path fill="#fff" d="M0 0h35v35H0z"/></clipPath><linearGradient id="H" gradientUnits="userSpaceOnUse"/></defs></svg>