<svg xmlns="http://www.w3.org/2000/svg" width="38" height="38" fill="none" xmlns:v="https://vecta.io/nano"><g clip-path="url(#A)"><path d="M34.979 29.286c-2.066-.052-3.667.158-5.01.735-.387.157-1.007.158-1.059.656.207.21.232.551.413.84.31.525.852 1.233 1.343 1.6l1.653 1.207c1.007.63 2.144.997 3.125 1.627.568.367 1.136.84 1.704 1.233.284.21.465.551.826.682v-.079c-.181-.236-.233-.577-.413-.84l-.775-.761c-.749-1.023-1.679-1.915-2.686-2.65-.826-.577-2.634-1.364-2.97-2.335l-.052-.052c.568-.052 1.24-.262 1.782-.42.878-.236 1.679-.184 2.583-.42l1.24-.367v-.236c-.465-.472-.801-1.102-1.291-1.548-1.317-1.155-2.763-2.283-4.261-3.227-.801-.525-1.834-.866-2.686-1.312-.31-.158-.826-.236-1.007-.499-.465-.577-.723-1.338-1.059-2.02l-2.118-4.565c-.465-1.023-.749-2.046-1.317-2.991-2.66-4.46-5.552-7.162-9.994-9.812-.956-.551-2.092-.787-3.306-1.076l-1.937-.105c-.413-.184-.826-.682-1.188-.918C5.048.69 1.251-1.357.167 1.346-.531 3.051 1.2 4.73 1.793 5.596c.439.603 1.007 1.285 1.317 1.968.181.446.232.918.413 1.39.413 1.154.801 2.44 1.343 3.516.284.551.594 1.128.955 1.626.207.288.568.42.646.892-.361.525-.387 1.312-.594 1.968-.93 2.965-.568 6.637.749 8.815.413.656 1.395 2.099 2.712 1.548 1.162-.472.904-1.968 1.24-3.279.078-.315.026-.525.181-.735v.052l1.059 2.177c.801 1.285 2.195 2.624 3.357 3.516.62.472 1.111 1.285 1.885 1.574v-.079h-.052c-.155-.236-.387-.341-.594-.525-.465-.472-.981-1.049-1.343-1.574-1.085-1.469-2.04-3.096-2.892-4.775-.413-.813-.775-1.705-1.11-2.519-.155-.315-.155-.787-.413-.944-.387.577-.955 1.076-1.24 1.784-.49 1.128-.542 2.519-.723 3.962-.103.026-.052 0-.103.052-.826-.21-1.11-1.076-1.42-1.81-.775-1.863-.904-4.853-.232-7.005.181-.551.955-2.283.646-2.807-.155-.498-.672-.787-.955-1.181-.336-.499-.697-1.128-.93-1.679-.62-1.469-.93-3.096-1.601-4.565-.31-.682-.852-1.39-1.291-2.02-.491-.708-1.033-1.207-1.42-2.046-.129-.288-.31-.761-.103-1.076.052-.21.155-.288.362-.341.336-.289 1.291.079 1.627.236.955.393 1.756.761 2.557 1.312.361.262.749.761 1.214.892h.542c.827.184 1.756.052 2.531.288 1.369.446 2.608 1.102 3.719 1.81 3.383 2.177 6.172 5.273 8.058 8.972.31.603.439 1.154.723 1.784.542 1.285 1.214 2.597 1.756 3.857.542 1.233 1.059 2.492 1.834 3.516.388.551 1.937.839 2.634 1.128.517.236 1.317.446 1.782.735.878.551 1.756 1.181 2.583 1.784.413.315 1.704.971 1.782 1.495h0zM8.637 6.487c-.439 0-.749.053-1.059.131 0 0 0 .026 0 .052h.052c.207.42.568.708.826 1.076l.594 1.259.052-.052c.362-.263.542-.682.542-1.312-.155-.184-.181-.367-.31-.551-.155-.263-.491-.394-.697-.603h0z" fill="#00546b"/></g><defs><clipPath id="A"><path fill="#fff" d="M0 0h38v38H0z"/></clipPath></defs></svg>