<svg xmlns="http://www.w3.org/2000/svg" width="38" height="39" fill="none" xmlns:v="https://vecta.io/nano"><g clip-path="url(#A)"><path d="M37.853 23.354c-.228-.687-.825-1.165-1.596-1.28-.364-.054-.781-.031-1.274.07-.86.177-1.498.244-1.963.257 1.757-2.952 3.186-6.319 4.008-9.488 1.33-5.124.619-7.459-.211-8.515C34.618 1.603 31.412.101 27.543.055c-2.064-.025-3.875.38-4.82.672A18.07 18.07 0 0 0 19.904.47c-1.861-.03-3.505.374-4.91 1.204-.778-.262-2.026-.631-3.468-.866C8.135.254 5.402.685 3.404 2.091.983 3.792-.139 6.749.068 10.878c.066 1.311.803 5.3 1.963 9.082.667 2.174 1.378 3.98 2.113 5.367 1.043 1.967 2.159 3.125 3.412 3.541.702.233 1.978.396 3.32-.716a2.9 2.9 0 0 0 .698.598c.383.24.85.436 1.317.552 1.684.419 3.26.314 4.606-.273l.02.662.03.923c.08 1.976.215 3.512.615 4.587a8.07 8.07 0 0 1 .083.245c.2.608.534 1.627 1.383 2.425.88.826 1.944 1.08 2.918 1.08.489 0 .955-.064 1.364-.151 1.458-.311 3.113-.785 4.311-2.481 1.132-1.604 1.683-4.021 1.782-7.828l.036-.308.024-.201.267.023.069.005c1.485.067 3.3-.246 4.415-.761.881-.407 3.704-1.89 3.039-3.893" fill="#000"/><path d="M35.314 23.743c-4.415.906-4.718-.581-4.718-.581 4.661-6.883 6.61-15.62 4.928-17.758-4.587-5.833-12.528-3.074-12.66-3.003l-.043.008c-.872-.18-1.848-.287-2.945-.305-1.998-.033-3.513.521-4.662 1.389 0 0-14.165-5.808-13.507 7.304.14 2.79 4.017 21.106 8.642 15.574 1.69-2.023 3.323-3.734 3.323-3.734.811.536 1.782.81 2.8.712l.079-.067a3.06 3.06 0 0 0 .032.788c-1.191 1.325-.841 1.557-3.223 2.045-2.41.494-.994 1.374-.07 1.604 1.12.279 3.713.674 5.464-1.766l-.07.278c.467.372.795 2.42.74 4.277s-.092 3.131.276 4.127.734 3.236 3.865 2.568c2.616-.558 3.972-2.004 4.16-4.415.134-1.715.437-1.461.456-2.994l.243-.726c.28-2.324.045-3.074 1.656-2.725l.392.034c1.186.054 2.739-.19 3.65-.611 1.962-.906 3.126-2.419 1.191-2.022h0" fill="#336791"/><path d="M16.043 12.043c-.398-.055-.758-.004-.94.133-.103.077-.134.167-.143.229-.023.163.092.344.163.437.2.264.492.445.781.485a.93.93 0 0 0 .125.009c.482 0 .92-.373.958-.649.048-.345-.455-.575-.943-.643m13.179.011h0c-.038-.271-.522-.348-.981-.284s-.903.269-.866.54c.03.211.412.571.865.571.039 0 .077-.003.116-.008.302-.042.524-.233.629-.343.161-.168.253-.355.236-.476m7.562 11.586c-.168-.506-.71-.67-1.61-.485-2.673.549-3.63.169-3.944-.062 2.077-3.15 3.786-6.957 4.708-10.509.437-1.683.678-3.245.698-4.519.022-1.398-.217-2.425-.711-3.053-1.989-2.53-4.909-3.887-8.443-3.924-2.43-.027-4.483.592-4.881.766-.838-.207-1.752-.335-2.746-.351-1.824-.029-3.401.405-4.706 1.291a21.1 21.1 0 0 0-3.824-.998c-3.098-.497-5.56-.12-7.317 1.118C1.91 4.394.942 7.036 1.129 10.768c.063 1.256.782 5.119 1.917 8.819 1.494 4.87 3.117 7.626 4.825 8.193a2.17 2.17 0 0 0 .685.113c.623 0 1.387-.28 2.182-1.23 1.32-1.581 2.553-2.905 3.008-3.387a4.86 4.86 0 0 0 2.164.579c.001.02.003.039.005.059a17.65 17.65 0 0 0-.381.469c-.523.66-.632.798-2.314 1.143-.479.098-1.75.359-1.769 1.246-.02.969 1.503 1.376 1.676 1.419.605.151 1.187.225 1.743.225 1.351 0 2.54-.442 3.491-1.297-.029 3.455.116 6.859.532 7.896.341.849 1.175 2.924 3.81 2.924.386 0 .812-.045 1.28-.145 2.749-.587 3.943-1.796 4.405-4.462.247-1.425.671-4.827.871-6.652.421.131.963.19 1.549.19 1.222 0 2.632-.258 3.516-.667.993-.459 2.786-1.586 2.461-2.565h0zm-6.547-12.332c-.009.539-.084 1.028-.163 1.538-.085.549-.173 1.117-.195 1.806-.022.671.062 1.368.144 2.042.164 1.362.333 2.764-.32 4.148-.108-.191-.205-.389-.289-.592-.081-.196-.258-.511-.502-.946-.95-1.695-3.174-5.665-2.036-7.285.339-.482 1.2-.978 3.361-.711h0zM27.617 2.18c3.167.07 5.672 1.249 7.445 3.504 1.36 1.73-.138 9.602-4.474 16.393l-.131-.165-.055-.068c1.12-1.842.901-3.664.706-5.279-.08-.663-.156-1.289-.137-1.877.02-.623.103-1.158.183-1.675.099-.637.199-1.296.171-2.074.021-.082.029-.178.018-.292-.071-.745-.926-2.976-2.668-4.995-.953-1.104-2.343-2.34-4.241-3.173.816-.168 1.933-.325 3.183-.298h0zM9.897 25.967c-.876 1.048-1.481.847-1.679.781-1.296-.43-2.8-3.156-4.125-7.478-1.147-3.74-1.817-7.501-1.87-8.556-.168-3.335.645-5.66 2.415-6.909 2.88-2.033 7.616-.816 9.519-.199l-.083.079c-3.123 3.138-3.049 8.501-3.041 8.828 0 .127.01.306.025.552.054.902.154 2.58-.113 4.481-.248 1.766.299 3.495 1.501 4.743.123.128.253.25.389.365a79.8 79.8 0 0 0-2.935 3.313h0 0zm3.337-4.431c-.969-1.006-1.409-2.405-1.207-3.839.282-2.008.178-3.757.122-4.696l-.019-.338c.456-.402 2.57-1.53 4.077-1.186.688.157 1.107.623 1.281 1.425.902 4.151.12 5.882-.509 7.272-.13.286-.252.557-.357.837l-.081.217c-.205.547-.396 1.057-.514 1.54-1.03-.003-2.032-.441-2.793-1.232h0zm.158 5.599c-.301-.075-.571-.205-.73-.312.133-.062.368-.146.777-.23 1.98-.406 2.286-.692 2.953-1.536.153-.193.327-.413.567-.68.358-.399.522-.332.819-.209.241.099.475.399.57.73.045.156.096.452-.07.683-1.395 1.944-3.427 1.918-4.887 1.555h0zm10.361 9.595c-2.422.516-3.279-.713-3.844-2.119-.365-.908-.544-5.001-.417-9.521.002-.06-.007-.118-.024-.173-.015-.105-.037-.212-.068-.319-.189-.658-.65-1.208-1.203-1.436-.22-.091-.623-.257-1.107-.133.103-.424.283-.902.477-1.42l.082-.218c.092-.246.207-.5.329-.769.658-1.455 1.559-3.448.581-7.949-.366-1.686-1.59-2.51-3.444-2.318-1.112.114-2.129.561-2.636.817-.102.051-.203.105-.302.16.142-1.699.677-4.874 2.678-6.883 1.26-1.265 2.938-1.889 4.983-1.856 4.029.066 6.612 2.123 8.07 3.838 1.256 1.478 1.937 2.966 2.208 3.769-2.042-.207-3.43.195-4.134 1.196-1.531 2.178.838 6.407 1.977 8.439.209.373.389.694.446.831.371.894.851 1.491 1.201 1.927.108.133.212.263.291.376-.618.177-1.729.587-1.628 2.636-.082 1.028-.662 5.842-.957 7.543-.389 2.247-1.22 3.084-3.556 3.582h0zm10.109-11.513c-.632.292-1.69.511-2.696.558-1.11.052-1.675-.124-1.808-.232-.062-1.277.415-1.41.921-1.552.079-.022.157-.044.232-.07a1.88 1.88 0 0 0 .153.112c.892.586 2.484.649 4.731.188l.025-.005c-.303.282-.822.66-1.557 1h0z" fill="#fff"/></g><defs><clipPath id="A"><path fill="#fff" d="M0 0h38v39H0z"/></clipPath></defs></svg>