<svg xmlns="http://www.w3.org/2000/svg" width="37" height="37" fill="none" xmlns:v="https://vecta.io/nano"><g clip-path="url(#A)"><path d="M31.851 20.558c-1.294.008-2.414.318-3.353.781-.347-.687-.694-1.286-.752-1.734-.065-.52-.145-.838-.065-1.46s.441-1.503.441-1.575c-.007-.065-.08-.383-.824-.39s-1.387.145-1.46.34a8.3 8.3 0 0 0-.311 1.106c-.13.679-1.489 3.086-2.262 4.351-.253-.491-.47-.925-.513-1.272-.065-.52-.144-.838-.065-1.46s.441-1.503.441-1.575c-.007-.065-.08-.383-.824-.39s-1.387.144-1.46.34-.152.658-.311 1.106c-.152.448-1.959 4.467-2.428 5.514l-.6 1.251c-.152.289-.007.022-.021.051l-.202.383v.007c-.101.181-.21.354-.26.354-.036 0-.109-.485.014-1.149.268-1.395.918-3.571.911-3.65 0-.036.123-.419-.419-.614-.528-.195-.716.13-.759.13s-.08.116-.08.116.586-2.45-1.12-2.45c-1.07 0-2.544 1.164-3.274 2.226l-3.686 2.017-.08-.087c-2.066-2.206-5.889-3.767-5.73-6.73.058-1.077.434-3.917 7.342-7.357 5.659-2.818 10.191-2.045 10.979-.325 1.12 2.457-2.421 7.024-8.304 7.683-2.24.253-3.418-.615-3.715-.94-.311-.34-.354-.354-.47-.289-.188.101-.072.405 0 .586.173.456.896 1.265 2.125 1.67 1.077.354 3.707.549 6.888-.679 3.563-1.381 6.346-5.211 5.529-8.412-.831-3.259-6.237-4.329-11.347-2.515-3.042 1.083-6.332 2.773-8.702 4.992C.298 13.136-.15 15.435.037 16.389c.658 3.404 5.348 5.623 7.227 7.264l-.26.145c-.939.462-4.517 2.334-5.413 4.315-1.012 2.24.159 3.852.939 4.069 2.414.672 4.885-.535 6.222-2.522 1.33-1.988 1.171-4.567.557-5.745l-.022-.043.737-.434c.477-.282.947-.542 1.359-.766-.231.629-.398 1.373-.485 2.457-.101 1.272.419 2.92 1.106 3.57.303.282.665.289.889.289.795 0 1.156-.658 1.554-1.445.492-.961.925-2.074.925-2.074s-.542 3.014.94 3.014c.542 0 1.084-.701 1.33-1.063v.007s.014-.022.043-.072c.058-.087.087-.138.087-.138V27.2c.217-.376.701-1.236 1.424-2.659.933-1.836 1.829-4.134 1.829-4.134s.087.564.354 1.489c.159.549.506 1.149.774 1.734l-.347.477.007.008c-.185.245-.375.486-.571.723-.737.882-1.619 1.886-1.734 2.175-.138.34-.109.593.159.795.195.145.542.173.91.145.665-.043 1.127-.21 1.359-.311.417-.149.811-.356 1.171-.615.723-.535 1.164-1.294 1.12-2.306-.022-.557-.202-1.106-.427-1.626l.195-.289c1.142-1.67 2.023-3.505 2.023-3.505s.087.564.354 1.489c.138.47.412.983.658 1.489-1.07.875-1.742 1.886-1.973 2.551-.427 1.229-.094 1.785.535 1.915.282.058.687-.072.99-.202a4.49 4.49 0 0 0 1.25-.643c.723-.535 1.416-1.279 1.381-2.284-.022-.463-.145-.918-.311-1.352.911-.376 2.089-.593 3.584-.412 3.216.376 3.852 2.385 3.729 3.223s-.795 1.301-1.019 1.445c-.224.138-.297.188-.275.289.029.152.13.144.326.116.268-.043 1.691-.687 1.749-2.233.087-1.988-1.8-4.156-5.145-4.134h.001zM7.047 28.921c-1.063 1.164-2.558 1.604-3.194 1.229-.687-.398-.419-2.11.889-3.346.795-.752 1.829-1.445 2.508-1.872l.658-.398c.043-.029.072-.043.072-.043.051-.029.109-.065.167-.101.484 1.763.022 3.31-1.098 4.531l-.001.001zm7.77-5.283c-.369.904-1.149 3.223-1.619 3.093-.405-.109-.65-1.864-.08-3.599.289-.875.904-1.915 1.265-2.32.586-.65 1.221-.867 1.38-.6.188.347-.716 2.862-.947 3.426v.001zm6.41 3.064c-.159.08-.303.138-.369.094-.051-.029.065-.138.065-.138s.802-.86 1.12-1.258l.629-.802v.087c0 1.041-.997 1.734-1.445 2.016h-.001zm4.943-1.127c-.116-.087-.101-.354.289-1.193.152-.332.499-.889 1.099-1.416.072.217.116.427.109.622-.008 1.301-.933 1.785-1.496 1.988z" fill="#cf649a"/></g><defs><clipPath id="A"><path fill="#fff" d="M0 0h37v37H0z"/></clipPath></defs></svg>