<svg xmlns="http://www.w3.org/2000/svg" width="35" height="39" fill="none" xmlns:v="https://vecta.io/nano"><path d="M25.153 15.077l-4.164 1.161c-2.776.774-5.101 2.302-6.974 4.582s-1.662 3.789.634 4.524 4.304.462 6.026-.821 2.536-3.155 2.442-5.615-.79-4.499-2.089-6.117-2.733-1.687-4.303-.206-2.546 3.157-2.926 5.032-.151 3.642.689 5.305 2.182 2.082 4.025 1.259 2.736-2.611 2.679-5.364-.617-3.312-1.679-1.677-1.358 2.74-.888 3.313.485 1.139.045 1.697-.957 1.031-1.552 1.419a6.46 6.46 0 0 1-1.924.85c-.688.178-1.386.242-2.095.191a6.46 6.46 0 0 1-3.829-1.604c-.533-.469-.978-1.012-1.333-1.627a6.46 6.46 0 0 1-.821-4.069c.089-.705.289-1.377.598-2.016s.713-1.213 1.211-1.72 1.063-.922 1.697-1.243a6.46 6.46 0 0 1 2.005-.636 6.46 6.46 0 0 1 4.084.744 6.46 6.46 0 0 1 2.801 3.064 6.46 6.46 0 0 1 .376 4.134 6.46 6.46 0 0 1-2.203 3.519 6.46 6.46 0 0 1-1.821 1.052c-.665.251-1.352.39-2.062.416a6.46 6.46 0 0 1-3.98-1.181 6.46 6.46 0 0 1-1.501-1.473c-.42-.573-.737-1.198-.952-1.876a6.46 6.46 0 0 1-.303-2.081c.013-.71.138-1.4.377-2.069l.358-1.003c0 .001.438-.713 1.315-2.14s2.786-2.813 5.726-4.157 5.462-1.81 7.565-1.396 4.053 1.579 5.851 3.496 2.379 4.836 1.744 8.756-1.849 6.689-3.642 8.304-3.851 2.577-6.174 2.885-4.466-.062-6.432-1.109S10.35 27 9.445 24.985s-1.251-3.983-1.038-5.903.864-3.8 1.953-5.643 2.647-3.216 4.674-4.119 4.339-1.073 6.936-.509 4.809 2.43 6.632 5.595 2.604 5.764 2.341 7.797-.953 3.799-2.072 5.3-2.614 2.734-4.487 3.699-3.899 1.32-6.08 1.065-4.014-.959-5.501-2.114-2.752-2.619-3.798-4.394-1.644-3.871-1.794-6.29.545-4.89 2.086-7.414 3.324-4.395 5.35-5.612 4.436-1.688 7.231-1.413 5.024 1.175 6.687 2.698 2.817 3.286 3.461 5.287 1.005 4.446 1.082 7.333-.465 5.372-1.624 7.453-2.726 3.969-4.699 5.663-3.882 2.736-5.726 3.125-3.786.403-5.826.04-4.013-1.254-5.919-2.675-3.385-3.056-4.438-4.904-1.786-3.931-2.199-6.248-.413-4.666 0-7.049 1.848-5.051 4.302-8.005 4.617-4.864 6.488-5.733S17.506.784 19.973.925s4.677.951 6.628 2.43 3.558 3.426 4.819 5.839 2.155 5.391 2.682 8.932.267 6.355-.782 8.444-2.417 3.972-4.105 5.65-3.466 2.89-5.332 3.635-3.831 1.35-5.893 1.815-4.091.52-6.091.163-3.928-1.218-5.788-2.585-3.276-3.146-4.249-5.335-1.2-4.34-.682-6.45 1.501-4.534 2.947-7.27 3.395-4.84 5.844-6.313 5.036-2.706 7.76-3.698l4.731-1.612c.43-.083.864-.113 1.302-.09s.866.097 1.286.224a5.39 5.39 0 0 1 2.229 1.321 5.39 5.39 0 0 1 .814 1.02c.23.373.412.768.546 1.185a5.39 5.39 0 0 1 .246 1.282c.03.437.008.872-.067 1.303s-.201.848-.378 1.249a5.39 5.39 0 0 1-.665 1.122c-.267.347-.572.658-.915.931s-.713.501-1.111.685l-.597.275h0z" fill="#f5f2f2"/></svg>