<svg xmlns="http://www.w3.org/2000/svg" width="23" height="23" fill="none" xmlns:v="https://vecta.io/nano"><path d="M16.53 5.117l.467 3.236.497 3.916c.019.453-.016.903-.106 1.347s-.232.873-.425 1.283a5.58 5.58 0 0 1-.72 1.144c-.286.352-.61.665-.973.939s-.752.499-1.169.678-.849.305-1.297.379-.898.093-1.35.057-.894-.125-1.325-.267a5.59 5.59 0 0 1-1.222-.577c-.384-.242-.734-.526-1.049-.852s-.587-.686-.814-1.079-.405-.807-.532-1.242.589-1.804 2.149-4.104 2.604-4.028 3.133-5.183 1.011-1.829 1.446-2.021a5.85 5.85 0 0 1 1.355-.412c.468-.083.94-.108 1.414-.076s.938.12 1.391.264a5.85 5.85 0 0 1 1.287.59c.405.249.775.542 1.109.881a5.85 5.85 0 0 1 .866 1.12c.243.409.434.84.573 1.295s.22.92.246 1.395a5.85 5.85 0 0 1-.525 2.762 5.85 5.85 0 0 1-.741 1.207c-.296.372-.632.704-1.008.995s-1.834.316-4.374.077-3.6-1.264-3.181-3.075.432-1.769.04.122.201 2.235 1.781 1.029 1.872-2.039.878-2.5-1.139-.751-.433-.87 1.411-.123 2.118-.011 1.377.334 2.011.666 1.198.756 1.692 1.273.894 1.099 1.197 1.747.496 1.327.577 2.038.046 1.416-.104 2.116-.409 1.357-.774 1.971-.82 1.155-1.363 1.621-1.146.833-1.809 1.101-1.352.423-2.066.465-1.417-.031-2.107-.219-1.332-.481-1.927-.88-1.109-.882-1.545-1.449-.769-1.19-1.001-1.867-.349-1.373-.353-2.088.107-1.413.333-2.092.553-1.304.983-1.876.94-1.06 1.531-1.464 1.23-.704 1.918-.899 1.39-.274 2.105-.239 1.405.184 2.071.445 1.273.623 1.82 1.083a6.5 6.5 0 0 1 2.172 3.572c.157.698.199 1.403.125 2.114a6.5 6.5 0 0 1-.557 2.043c-.297.651-.691 1.237-1.18 1.759a6.5 6.5 0 0 1-1.68 1.29l-.945.507c.001 0-1.794-.339-5.383-1.015s-5.967-1.969-7.134-3.877-1.536-4.057-1.11-6.448 1.898-4.357 4.414-5.897 5.153-1.806 7.912-.795 4.667 2.467 5.724 4.368 1.49 3.969 1.296 6.203-1.056 4.26-2.588 6.079-3.195 2.914-4.991 3.285-3.736.282-5.822-.269-4.043-1.659-5.871-3.325S.676 14.661.305 11.756s.04-5.211 1.231-6.919 2.853-2.969 4.984-3.784 4.707-.688 7.728.379 5.022 2.522 6.005 4.365 1.438 3.755 1.366 5.736-.644 3.873-1.718 5.677-3.525 3.138-7.352 4.004-6.708.133-8.642-2.198-2.534-4.911-1.801-7.741S4.17 6.44 6.095 5.259s4.214-1.697 6.867-1.549 4.718 1.081 6.197 2.797 1.688 4.039.626 6.968-3.125 4.555-6.191 4.878-5.804-.512-8.215-2.504-2.997-4.587-1.759-7.784 3.042-4.83 5.412-4.9 3.772-.202 4.206-.394.886-.33 1.355-.413.94-.108 1.414-.076a5.85 5.85 0 0 1 1.391.264c.453.144.882.341 1.288.59s.775.542 1.109.881a5.85 5.85 0 0 1 .866 1.12c.243.409.434.84.573 1.295a5.85 5.85 0 0 1 .246 1.395c.026.475-.006.946-.095 1.413s-.232.917-.43 1.349-.445.835-.741 1.207-.632.704-1.008.995-.761.163-1.153-.384-.579-.593-.559-.14a5.59 5.59 0 0 1-.106 1.347c-.09.445-.231.873-.425 1.283a5.59 5.59 0 0 1-1.692 2.082c-.362.274-.752.5-1.169.679a5.58 5.58 0 0 1-1.297.379c-.448.074-.898.093-1.35.058a5.59 5.59 0 0 1-1.325-.267c-.431-.143-.838-.335-1.222-.577s-.734-.526-1.049-.852-.587-.686-.814-1.079-.405-.807-.533-1.242-.39-1.725-.787-3.868l-.626-3.91c-.02-.464.016-.923.108-1.378s.237-.893.435-1.313.444-.81.736-1.17.625-.68.995-.96.769-.511 1.196-.694.869-.312 1.327-.388.919-.095 1.381-.059.915.128 1.355.274.857.343 1.251.59.751.538 1.073.872a5.72 5.72 0 0 1 .833 1.104c.233.402.415.825.545 1.271l.195.668h0z" fill="#f5f2f2"/></svg>