<svg xmlns="http://www.w3.org/2000/svg" width="22" height="19" fill="none" xmlns:v="https://vecta.io/nano"><path d="M17.404 11.879l-2.482.212c-1.655.141-2.832.82-3.53 2.037s-1.271 1.871-1.718 1.962a5.61 5.61 0 0 1-2.694-.11 5.61 5.61 0 0 1-1.249-.533c-.395-.228-.756-.5-1.085-.816s-.615-.667-.858-1.052-.437-.795-.581-1.227a5.61 5.61 0 0 1-.216-2.687 5.61 5.61 0 0 1 1.058-2.48A5.61 5.61 0 0 1 6.137 5.48c.412-.195 1.619-.167 3.622.086s2.664 1.302 1.984 3.149-.955 1.814-.826-.099.407-3.003.832-3.27a6.19 6.19 0 0 1 2.823-.932 6.19 6.19 0 0 1 1.496.065c.496.082.975.223 1.437.421s.893.45 1.294.753.76.65 1.076 1.041a6.19 6.19 0 0 1 1.265 2.69c.099.493.137.991.115 1.493s-.104.995-.245 1.477-.339.941-.592 1.376a6.19 6.19 0 0 1-.904 1.194c-.35.361-1.434.679-3.252.953s-4.641.001-8.467-.818-5.765-1.568-5.818-2.246a6.18 6.18 0 0 1 .17-2.006c.166-.66.434-1.275.802-1.847A6.18 6.18 0 0 1 4.3 7.465a6.18 6.18 0 0 1 1.756-.985 6.18 6.18 0 0 1 1.979-.373c.68-.016 1.345.077 1.994.279s1.25.502 1.801.901a6.18 6.18 0 0 1 1.419 1.429c.395.554.691 1.156.889 1.807s.286 1.316.265 1.996-.149 1.339-.386 1.976a6.18 6.18 0 0 1-.997 1.75c-.428.529-.929.975-1.504 1.339a6.18 6.18 0 0 1-1.852.789 6.18 6.18 0 0 1-2.008.157 6.18 6.18 0 0 1-1.952-.493c-.624-.271-1.188-.634-1.693-1.09s-.923-.981-1.256-1.574a6.18 6.18 0 0 1-.688-1.893 6.18 6.18 0 0 1-.047-2.013 6.18 6.18 0 0 1 1.778-3.554 6.18 6.18 0 0 1 1.64-1.169c.61-.3 1.253-.495 1.927-.584s1.345-.069 2.013.062 1.297.364 1.888.701 1.113.759 1.565 1.267a6.18 6.18 0 0 1 1.078 1.701l.4.938a5718 5718 0 0 0-1.599-2.541c-1.066-1.693-1.386-2.673-.96-2.941a6.19 6.19 0 0 1 2.823-.932 6.19 6.19 0 0 1 1.496.065c.496.082.975.223 1.437.421s.893.45 1.294.753.76.65 1.077 1.041.582.813.796 1.268a6.19 6.19 0 0 1 .585 2.915 6.19 6.19 0 0 1-.245 1.477c-.142.482-.339.941-.591 1.376s-.554.833-.904 1.194-1.346 1.046-2.989 2.055-4.385 1.252-8.227.731-6.209-1.587-7.102-3.198S.184 10.821.837 8.271 3.088 3.852 5.63 2.664s4.87-1.658 6.984-1.411 4.215 1.651 6.303 4.212 2.143 5.011.165 7.351-3.928 3.448-5.852 3.324-3.109-.141-3.556-.05-.898.127-1.354.109-.902-.091-1.34-.218a5.61 5.61 0 0 1-2.334-1.349 5.61 5.61 0 0 1-1.44-2.279 5.61 5.61 0 0 1-.216-2.687 5.61 5.61 0 0 1 1.058-2.48A5.61 5.61 0 0 1 6.137 5.48c.412-.195.466-.347.161-.456s.865-.809 3.509-2.101L14.451.848a5.68 5.68 0 0 1 2.726.111 5.68 5.68 0 0 1 2.362 1.365 5.68 5.68 0 0 1 1.457 2.306c.146.438.237.886.274 1.346a5.68 5.68 0 0 1-.439 2.692c-.181.424-.41.821-.688 1.189a5.67 5.67 0 0 1-.952.99c-.358.292-.745.536-1.162.734l-.625.296h0z" fill="#f5f2f2"/></svg>