<svg xmlns="http://www.w3.org/2000/svg" width="38" height="39" fill="none" xmlns:v="https://vecta.io/nano"><path d="M24.623 14.175l-3.163 1.533c-2.109 1.022-3.494 2.717-4.156 5.085s-.11 2.681 1.657.939l5.699-5.408c2.033-1.863 2.775-3.104 2.226-3.722s-.488-.736.18-.353a9.52 9.52 0 0 1 1.835 1.367c.555.528 1.038 1.114 1.447 1.757s.735 1.324.975 2.045.389 1.458.447 2.214.021 1.507-.108 2.254a9.18 9.18 0 0 1-.656 2.163c-.308.695-.697 1.344-1.166 1.947a9.42 9.42 0 0 1-1.608 1.617c-.603.475-1.255.873-1.957 1.194s-1.433.554-2.192.701-1.526.203-2.3.167a9.73 9.73 0 0 1-2.274-.376c-.742-.216-2.027-2.083-3.852-5.601s-2.086-4.265-.78-2.239 3.27 2.944 5.891 2.755 1.034.189-4.764 1.136-8.967.976-9.508.087-.923-1.839-1.145-2.851-.274-2.031-.155-3.059a9.25 9.25 0 0 1 .852-2.947 9.4 9.4 0 0 1 1.769-2.527 9.6 9.6 0 0 1 2.502-1.842c.937-.48 1.927-.802 2.972-.964s2.088-.158 3.131.014 2.03.503 2.962.992a9.59 9.59 0 0 1 2.484 1.865c.724.755 1.305 1.602 1.745 2.543a9.24 9.24 0 0 1 .823 2.955c.109 1.029.048 2.048-.184 3.058a9.29 9.29 0 0 1-1.173 2.84c-.549.884-1.229 1.659-2.038 2.325a9.66 9.66 0 0 1-2.691 1.567 9.8 9.8 0 0 1-3.061.644c-1.056.051-2.093-.064-3.111-.346a9.71 9.71 0 0 1-2.835-1.299c-.873-.585-1.627-1.291-2.263-2.117s-1.12-1.731-1.453-2.713a9.22 9.22 0 0 1 .03-6.045 9.34 9.34 0 0 1 1.48-2.699 9.53 9.53 0 0 1 2.284-2.096c.878-.576 1.828-1.001 2.848-1.273s2.059-.377 3.114-.316 2.074.285 3.055.673 1.872.918 2.675 1.592l1.203 1.009c-.001-.001-2.684.744-8.05 2.234s-7.312.87-5.837-1.86 3.994-4.753 7.558-6.07 6.877-.898 9.939 1.255 4.774 4.533 5.139 7.138-.378 2.35-2.226-.766-2.438-4.483-1.77-4.1a9.51 9.51 0 0 1 1.835 1.367 9.36 9.36 0 0 1 1.447 1.757 9.23 9.23 0 0 1 .976 2.044c.241.72.39 1.458.447 2.213a9.12 9.12 0 0 1-.107 2.254c-.129.747-.348 1.468-.656 2.163s-.697 1.344-1.166 1.947a9.43 9.43 0 0 1-1.608 1.617c-.603.475-1.255.873-1.957 1.194a9.68 9.68 0 0 1-2.192.701 9.74 9.74 0 0 1-2.3.167c-.774-.035-1.532-.161-2.274-.376s-1.227-.374-1.454-.477-1.362-.987-3.404-2.653-3.234-4.494-3.575-8.483.734-7.205 3.226-9.649 5.208-3.866 8.148-4.269 5.586.073 7.94 1.428 4.299 3.467 5.838 6.339 2.075 6.063 1.609 9.574-1.803 6.574-4.01 9.19-4.465 4.555-6.776 5.815-4.714 2.142-7.211 2.645-4.963.222-7.399-.844-4.861-2.584-7.275-4.553-3.916-4.21-4.505-6.724-.785-4.981-.59-7.4.898-4.854 2.107-7.304 3.057-4.409 5.543-5.879 4.78-2.723 6.881-3.76S18.046.637 18.627.434A7.74 7.74 0 0 1 20.42.038a7.76 7.76 0 0 1 1.837.035 7.73 7.73 0 0 1 1.775.464c.573.225 1.109.514 1.61.867s.951.759 1.351 1.218.738.959 1.014 1.499.482 1.104.618 1.693.198 1.185.185 1.788a7.28 7.28 0 0 1-.257 1.78c-.159.583-.388 1.139-.685 1.668s-.655 1.015-1.073 1.459a7.55 7.55 0 0 1-1.399 1.165l-.772.499h0z" fill="#f5f2f2"/></svg>