<svg xmlns="http://www.w3.org/2000/svg" width="23" height="23" fill="none" xmlns:v="https://vecta.io/nano"><path d="M14.743 18.997l-2.196-1.955c-1.464-1.304-3.142-.886-5.035 1.252s-3.047 3.156-3.462 3.052a5.27 5.27 0 0 1-1.191-.457 5.27 5.27 0 0 1-1.047-.729c-.32-.285-.601-.605-.843-.958S.53 18.471.38 18.07s-.251-.814-.301-1.24-.049-.851.005-1.276.156-.838.31-1.238.352-.776.597-1.128a5.27 5.27 0 0 1 1.902-1.673c.38-.198.778-.347 1.195-.448a5.27 5.27 0 0 1 1.267-.149c.428.002 1.549.338 3.363 1.009s2.485.505 2.014-.497-.441-1.725.089-2.166a6.27 6.27 0 0 1 3.758-1.455 6.27 6.27 0 0 1 3.872 1.116 6.27 6.27 0 0 1 1.468 1.419c.412.553.725 1.158.939 1.813a6.27 6.27 0 0 1-.04 4.029 6.27 6.27 0 0 1-2.47 3.184 6.27 6.27 0 0 1-3.893 1.04c-.688-.044-1.351-.197-1.989-.459s-1.218-.618-1.739-1.07-.957-.975-1.306-1.569a6.27 6.27 0 0 1-.827-3.944c.081-.685.27-1.339.566-1.962a6.27 6.27 0 0 1 1.163-1.678c.479-.496 1.025-.902 1.638-1.219a6.27 6.27 0 0 1 3.983-.612 6.27 6.27 0 0 1 1.928.671c.606.329 1.144.746 1.613 1.252s.846 1.073 1.129 1.701a6.27 6.27 0 0 1 .395 4.01c-.155.672-.413 1.302-.775 1.889l-.542.88c.001 0-2.338-.088-7.015-.262s-7.421-1.184-8.232-3.028-.765-4.096.136-6.754 3.128-4.219 6.683-4.683 6.169.331 7.845 2.384 2.354 4 2.033 5.841-1.421 3.599-3.302 5.273-4.07 2.528-6.566 2.563-4.643-.566-6.441-1.801-3.015-3.013-3.652-5.333-.274-4.604 1.089-6.851S5.318 1.955 7.334 1.31s4.048-.766 6.095-.364 3.888 1.419 5.522 3.05 2.633 3.556 2.997 5.775-.109 4.427-1.419 6.626-3.251 3.807-5.822 4.826-4.886 1.32-6.945.903l-3.712-.782c-.416-.104-.813-.256-1.191-.456s-.728-.443-1.047-.728-.601-.605-.843-.958S.53 18.471.38 18.07s-.251-.814-.301-1.24-.049-.851.004-1.276a5.27 5.27 0 0 1 .31-1.238c.153-.4.352-.776.597-1.128s.528-.669.849-.952a5.28 5.28 0 0 1 2.247-1.169c.416-.101.839-.151 1.267-.149s.198-.209-.692-.632.8-.928 5.068-1.515l7.056-.717c.436.109.853.269 1.251.479a5.54 5.54 0 0 1 1.099.765 5.53 5.53 0 0 1 .884 1.006c.254.371.46.767.618 1.188s.263.855.316 1.301.051.893-.005 1.339a5.54 5.54 0 0 1-.325 1.299c-.161.42-.37.815-.627 1.184s-.554.702-.892.999-.706.549-1.105.757a5.53 5.53 0 0 1-1.254.47c-.437.106-.88.158-1.33.157l-.674-.002h0z" fill="#f5f2f2"/></svg>