<svg xmlns="http://www.w3.org/2000/svg" width="24" height="16" fill="none" xmlns:v="https://vecta.io/nano"><path d="M8.594 4.271l3.242-1.021 3.88-1.151c.425-.087.855-.121 1.289-.103a5.34 5.34 0 0 1 1.276.208c.417.121.813.29 1.189.507a5.34 5.34 0 0 1 1.85 1.779 5.34 5.34 0 0 1 .553 1.168c.137.412.223.834.258 1.267s.017.863-.053 1.291-.19.842-.36 1.241-.386.772-.647 1.119a5.34 5.34 0 0 1-1.989 1.622c-.392.186-2.246-.266-5.561-1.356s-5.201-1.191-5.657-.304-.903 1.366-1.34 1.436a5.45 5.45 0 0 1-2.61-.215c-.42-.141-.817-.33-1.19-.567a5.45 5.45 0 0 1-1.81-1.892 5.45 5.45 0 0 1-.724-2.516 5.45 5.45 0 0 1 .529-2.565 5.45 5.45 0 0 1 1.66-2.025 5.45 5.45 0 0 1 1.143-.657c.408-.173 2.212.492 5.414 1.994s5.413 3.376 6.634 5.622.024 3.085-3.591 2.517-5.413-1.163-5.393-1.786a5.66 5.66 0 0 1 .358-1.809A5.66 5.66 0 0 1 9.239 5.25a5.66 5.66 0 0 1 3.537-.858 5.66 5.66 0 0 1 1.787.455c.571.249 1.087.583 1.548 1.002a5.66 5.66 0 0 1 1.147 1.444 5.66 5.66 0 0 1 .626 1.734 5.66 5.66 0 0 1 .039 1.844 5.66 5.66 0 0 1-.551 1.76 5.66 5.66 0 0 1-1.085 1.491 5.66 5.66 0 0 1-3.27 1.598 5.66 5.66 0 0 1-1.843-.061 5.66 5.66 0 0 1-3.158-1.81 5.66 5.66 0 0 1-.984-1.559 5.66 5.66 0 0 1-.434-1.792 5.66 5.66 0 0 1 .161-1.837 5.66 5.66 0 0 1 .739-1.69 5.66 5.66 0 0 1 2.85-2.263 5.66 5.66 0 0 1 1.813-.337 5.66 5.66 0 0 1 3.473 1.089 5.66 5.66 0 0 1 1.296 1.312 5.66 5.66 0 0 1 .809 1.657l.269.894c0-.001-1.114-.673-3.341-2.018s-1.558-2.153 2.007-2.425 5.824.482 6.775 2.26.246 3.562-2.116 5.35-5.312 2.131-8.848 1.029l-5.961-1.547c-.437.07-.877.087-1.318.051s-.872-.125-1.292-.266-.817-.33-1.191-.567-.714-.516-1.02-.836a5.45 5.45 0 0 1-1.305-2.27 5.45 5.45 0 0 1-.101-2.617 5.45 5.45 0 0 1 1.127-2.364A5.45 5.45 0 0 1 3.52 1.535 2.63 2.63 0 0 0 4.564.733c.288-.362 2.112-.203 5.473.476l5.679.889a5.34 5.34 0 0 1 2.564.104c.417.121.813.29 1.189.507a5.34 5.34 0 0 1 1.85 1.778 5.34 5.34 0 0 1 .812 2.435 5.34 5.34 0 0 1-.413 2.533c-.17.399-.386.772-.647 1.119s-.559.657-.896.932-.701.504-1.093.69-1.657.655-3.795 1.407l-3.858 1.261c-.434.088-.873.124-1.315.106s-.877-.089-1.302-.212-.83-.296-1.214-.518a5.45 5.45 0 0 1-1.054-.793c-.319-.307-.597-.648-.834-1.023a5.45 5.45 0 0 1-.565-1.192c-.14-.42-.228-.851-.263-1.293s-.017-.881.054-1.318.194-.86.368-1.267.394-.788.66-1.142.571-.671.915-.951.715-.515 1.116-.705l.6-.284h0z" fill="#f5f2f2"/></svg>